<ttFont>
<head>
    <!-- Most of this table will be recalculated by the compiler -->
    <tableVersion value="1.0"/>
    <fontRevision value="1.106"/>
    <checkSumAdjustment value="0xf91b1715"/>
    <magicNumber value="0x5f0f3cf5"/>
    <flags value="00000000 00000001"/>
    <unitsPerEm value="1000"/>
    <created value="Mon Sep 16 15:14:13 2019"/>
    <modified value="Mon Sep 16 15:22:46 2019"/>
    <xMin value="-242"/>
    <yMin value="-337"/>
    <xMax value="1971"/>
    <yMax value="1306"/>
    <macStyle value="00000000 00000010"/>
    <lowestRecPPEM value="6"/>
    <fontDirectionHint value="2"/>
    <indexToLocFormat value="0"/>
    <glyphDataFormat value="0"/>
  </head>
    <TTGlyph name=".notdef" xMin="117" yMin="-200" xMax="617" yMax="800">
      <contour>
        <pt x="117" y="-200" on="1"/>
        <pt x="117" y="800" on="1"/>
        <pt x="617" y="800" on="1"/>
        <pt x="617" y="-200" on="1"/>
      </contour>
      <contour>
        <pt x="188" y="750" on="1"/>
        <pt x="367" y="360" on="1"/>
        <pt x="546" y="750" on="1"/>
      </contour>
      <contour>
        <pt x="167" y="-76" on="1"/>
        <pt x="339" y="300" on="1"/>
        <pt x="167" y="676" on="1"/>
      </contour>
      <contour>
        <pt x="567" y="676" on="1"/>
        <pt x="395" y="300" on="1"/>
        <pt x="567" y="-76" on="1"/>
      </contour>
      <contour>
        <pt x="367" y="240" on="1"/>
        <pt x="188" y="-150" on="1"/>
        <pt x="546" y="-150" on="1"/>
      </contour>
    </TTGlyph>
    <TTGlyph name="A" xMin="9" yMin="0" xMax="695" yMax="700">
      <contour>
        <pt x="9" y="0" on="1"/>
        <pt x="429" y="700" on="1"/>
        <pt x="577" y="700" on="1"/>
        <pt x="695" y="0" on="1"/>
        <pt x="619" y="0" on="1"/>
        <pt x="586" y="202" on="1"/>
        <pt x="214" y="202" on="1"/>
        <pt x="93" y="0" on="1"/>
      </contour>
      <contour>
        <pt x="468" y="630" on="1"/>
        <pt x="253" y="269" on="1"/>
        <pt x="575" y="269" on="1"/>
        <pt x="515" y="630" on="1"/>
      </contour>
    </TTGlyph>
    <TTGlyph name="A.sc" xMin="12" yMin="0" xMax="610" yMax="575">
      <component glyphName="a.sc" x="0" y="0" flags="0x204"/>
    </TTGlyph>
    <TTGlyph name="AE" xMin="-25" yMin="0" xMax="1210" yMax="700">
      <contour>
        <pt x="762" y="633" on="1"/>
        <pt x="712" y="396" on="1"/>
        <pt x="1075" y="396" on="1"/>
        <pt x="1061" y="329" on="1"/>
        <pt x="698" y="329" on="1"/>
        <pt x="642" y="67" on="1"/>
        <pt x="1109" y="67" on="1"/>
        <pt x="1086" y="0" on="1"/>
        <pt x="553" y="0" on="1"/>
        <pt x="596" y="202" on="1"/>
        <pt x="235" y="202" on="1"/>
        <pt x="66" y="0" on="1"/>
        <pt x="-25" y="0" on="1"/>
        <pt x="559" y="700" on="1"/>
        <pt x="1210" y="700" on="1"/>
        <pt x="1208" y="633" on="1"/>
      </contour>
      <contour>
        <pt x="594" y="630" on="1"/>
        <pt x="291" y="269" on="1"/>
        <pt x="610" y="269" on="1"/>
        <pt x="687" y="630" on="1"/>
      </contour>
    </TTGlyph>
    <TTGlyph name="AE.sc" xMin="-16" yMin="0" xMax="1038" yMax="575">
      <component glyphName="ae.sc" x="0" y="0" flags="0x204"/>
    </TTGlyph>
    <TTGlyph name="AEacute" xMin="-25" yMin="0" xMax="1210" yMax="972">
      <component glyphName="AE" x="0" y="0" flags="0x204"/>
      <component glyphName="acute" x="507" y="172" flags="0x4"/>
    </TTGlyph>
    <TTGlyph name="AEacute.sc" xMin="-16" yMin="0" xMax="1038" yMax="847">
      <component glyphName="aeacute.sc" x="0" y="0" flags="0x204"/>
    </TTGlyph>
    <TTGlyph name="Aacute" xMin="9" yMin="0" xMax="753" yMax="972">
      <component glyphName="A" x="0" y="0" flags="0x204"/>
      <component glyphName="acute" x="256" y="172" flags="0x4"/>
    </TTGlyph>
    <TTGlyph name="Aacute.sc" xMin="12" yMin="0" xMax="679" yMax="847">
      <component glyphName="aacute.sc" x="0" y="0" flags="0x204"/>
    </TTGlyph>
    <TTGlyph name="Abreve" xMin="9" yMin="0" xMax="722" yMax="980">
      <component glyphName="A" x="0" y="0" flags="0x204"/>
      <component glyphName="breve" x="196" y="172" flags="0x4"/>
    </TTGlyph>
    <TTGlyph name="Abreve.sc" xMin="12" yMin="0" xMax="655" yMax="855">
      <component glyphName="abreve.sc" x="0" y="0" flags="0x204"/>
    </TTGlyph>
    <TTGlyph name="Acircumflex" xMin="9" yMin="0" xMax="719" yMax="979">
      <component glyphName="A" x="0" y="0" flags="0x204"/>
      <component glyphName="circumflex" x="195" y="172" flags="0x4"/>
    </TTGlyph>
    <TTGlyph name="Acircumflex.sc" xMin="12" yMin="0" xMax="653" yMax="854">
      <component glyphName="acircumflex.sc" x="0" y="0" flags="0x204"/>
    </TTGlyph>
    <TTGlyph name="Adieresis" xMin="9" yMin="0" xMax="709" yMax="901">
      <component glyphName="A" x="0" y="0" flags="0x204"/>
      <component glyphName="dieresis" x="195" y="172" flags="0x4"/>
    </TTGlyph>
    <TTGlyph name="Adieresis.sc" xMin="12" yMin="0" xMax="643" yMax="776">
      <component glyphName="adieresis.sc" x="0" y="0" flags="0x204"/>
    </TTGlyph>
    <TTGlyph name="Agrave" xMin="9" yMin="0" xMax="695" yMax="972">
      <component glyphName="A" x="0" y="0" flags="0x204"/>
      <component glyphName="grave" x="133" y="172" flags="0x4"/>
    </TTGlyph>
    <TTGlyph name="Agrave.sc" xMin="12" yMin="0" xMax="610" yMax="847">
      <component glyphName="agrave.sc" x="0" y="0" flags="0x204"/>
    </TTGlyph>
    <TTGlyph name="Amacron" xMin="9" yMin="0" xMax="717" yMax="882">
      <component glyphName="A" x="0" y="0" flags="0x204"/>
      <component glyphName="macron" x="195" y="172" flags="0x4"/>
    </TTGlyph>
    <TTGlyph name="Amacron.sc" xMin="12" yMin="0" xMax="651" yMax="757">
      <component glyphName="amacron.sc" x="0" y="0" flags="0x204"/>
    </TTGlyph>
    <TTGlyph name="Aogonek" xMin="9" yMin="-289" xMax="695" yMax="700">
      <contour>
        <pt x="9" y="0" on="1"/>
        <pt x="429" y="700" on="1"/>
        <pt x="577" y="700" on="1"/>
        <pt x="695" y="0" on="1"/>
        <pt x="625" y="-57" on="1"/>
        <pt x="572" y="-102" on="0"/>
        <pt x="529" y="-159" on="0"/>
        <pt x="529" y="-185" on="1"/>
        <pt x="529" y="-207" on="0"/>
        <pt x="562" y="-233" on="0"/>
        <pt x="594" y="-233" on="1"/>
        <pt x="619" y="-233" on="0"/>
        <pt x="669" y="-217" on="0"/>
        <pt x="694" y="-203" on="1"/>
        <pt x="682" y="-261" on="1"/>
        <pt x="658" y="-275" on="0"/>
        <pt x="606" y="-289" on="0"/>
        <pt x="578" y="-289" on="1"/>
        <pt x="523" y="-289" on="0"/>
        <pt x="461" y="-238" on="0"/>
        <pt x="461" y="-198" on="1"/>
        <pt x="461" y="-155" on="0"/>
        <pt x="524" y="-76" on="0"/>
        <pt x="586" y="-25" on="1"/>
        <pt x="619" y="1" on="1"/>
        <pt x="586" y="202" on="1"/>
        <pt x="214" y="202" on="1"/>
        <pt x="93" y="0" on="1"/>
      </contour>
      <contour>
        <pt x="468" y="630" on="1"/>
        <pt x="253" y="269" on="1"/>
        <pt x="575" y="269" on="1"/>
        <pt x="515" y="630" on="1"/>
      </contour>
    </TTGlyph>
    <TTGlyph name="Aogonek.sc" xMin="12" yMin="-289" xMax="610" yMax="575">
      <component glyphName="aogonek.sc" x="0" y="0" flags="0x204"/>
    </TTGlyph>
    <TTGlyph name="Aring" xMin="9" yMin="0" xMax="703" yMax="1064">
      <component glyphName="A" x="0" y="0" flags="0x204"/>
      <component glyphName="ring" x="140" y="172" flags="0x4"/>
    </TTGlyph>
    <TTGlyph name="Aring.sc" xMin="12" yMin="0" xMax="636" yMax="939">
      <component glyphName="aring.sc" x="0" y="0" flags="0x204"/>
    </TTGlyph>
    <TTGlyph name="Aringacute" xMin="9" yMin="0" xMax="816" yMax="1306">
      <component glyphName="A" x="0" y="0" flags="0x204"/>
      <component glyphName="ring" x="140" y="172" flags="0x4"/>
      <component glyphName="acute" x="319" y="506" flags="0x4"/>
    </TTGlyph>
    <TTGlyph name="Aringacute.sc" xMin="12" yMin="0" xMax="750" yMax="1181">
      <component glyphName="aringacute.sc" x="0" y="0" flags="0x204"/>
    </TTGlyph>
    <TTGlyph name="Atilde" xMin="9" yMin="0" xMax="728" yMax="932">
      <component glyphName="A" x="0" y="0" flags="0x204"/>
      <component glyphName="tilde" x="195" y="172" flags="0x4"/>
    </TTGlyph>
    <TTGlyph name="Atilde.sc" xMin="12" yMin="0" xMax="662" yMax="807">
      <component glyphName="atilde.sc" x="0" y="0" flags="0x204"/>
    </TTGlyph>
    <TTGlyph name="B" xMin="68" yMin="0" xMax="736" yMax="700">
      <contour>
        <pt x="68" y="0" on="1"/>
        <pt x="217" y="700" on="1"/>
        <pt x="539" y="700" on="1"/>
        <pt x="635" y="700" on="0"/>
        <pt x="736" y="615" on="0"/>
        <pt x="736" y="544" on="1"/>
        <pt x="736" y="476" on="0"/>
        <pt x="651" y="378" on="0"/>
        <pt x="570" y="359" on="1"/>
        <pt x="627" y="345" on="0"/>
        <pt x="693" y="268" on="0"/>
        <pt x="693" y="211" on="1"/>
        <pt x="693" y="113" on="0"/>
        <pt x="536" y="0" on="0"/>
        <pt x="403" y="0" on="1"/>
      </contour>
      <contour>
        <pt x="225" y="389" on="1"/>
        <pt x="483" y="389" on="1"/>
        <pt x="566" y="389" on="0"/>
        <pt x="662" y="469" on="0"/>
        <pt x="662" y="531" on="1"/>
        <pt x="662" y="581" on="0"/>
        <pt x="594" y="634" on="0"/>
        <pt x="531" y="634" on="1"/>
        <pt x="277" y="634" on="1"/>
      </contour>
      <contour>
        <pt x="211" y="328" on="1"/>
        <pt x="156" y="66" on="1"/>
        <pt x="412" y="66" on="1"/>
        <pt x="512" y="66" on="0"/>
        <pt x="619" y="147" on="0"/>
        <pt x="619" y="215" on="1"/>
        <pt x="619" y="265" on="0"/>
        <pt x="545" y="328" on="0"/>
        <pt x="470" y="328" on="1"/>
      </contour>
    </TTGlyph>
    <TTGlyph name="B.sc" xMin="68" yMin="0" xMax="651" yMax="575">
      <component glyphName="b.sc" x="0" y="0" flags="0x204"/>
    </TTGlyph>
    <TTGlyph name="C" xMin="88" yMin="-13" xMax="736" yMax="713">
      <contour>
        <pt x="482" y="713" on="1"/>
        <pt x="559" y="713" on="0"/>
        <pt x="689" y="666" on="0"/>
        <pt x="736" y="620" on="1"/>
        <pt x="721" y="547" on="1"/>
        <pt x="720" y="547" on="1"/>
        <pt x="673" y="596" on="0"/>
        <pt x="550" y="645" on="0"/>
        <pt x="481" y="645" on="1"/>
        <pt x="409" y="645" on="0"/>
        <pt x="291" y="590" on="0"/>
        <pt x="209" y="496" on="0"/>
        <pt x="164" y="371" on="0"/>
        <pt x="164" y="301" on="1"/>
        <pt x="164" y="180" on="0"/>
        <pt x="304" y="54" on="0"/>
        <pt x="418" y="54" on="1"/>
        <pt x="478" y="54" on="0"/>
        <pt x="594" y="90" on="0"/>
        <pt x="641" y="119" on="1"/>
        <pt x="642" y="119" on="1"/>
        <pt x="626" y="41" on="1"/>
        <pt x="581" y="16" on="0"/>
        <pt x="468" y="-13" on="0"/>
        <pt x="409" y="-13" on="1"/>
        <pt x="336" y="-13" on="0"/>
        <pt x="217" y="29" on="0"/>
        <pt x="133" y="108" on="0"/>
        <pt x="88" y="223" on="0"/>
        <pt x="88" y="297" on="1"/>
        <pt x="88" y="381" on="0"/>
        <pt x="144" y="533" on="0"/>
        <pt x="247" y="646" on="0"/>
        <pt x="393" y="713" on="0"/>
      </contour>
    </TTGlyph>
    <TTGlyph name="C.sc" xMin="79" yMin="-12" xMax="641" yMax="587">
      <component glyphName="c.sc" x="0" y="0" flags="0x204"/>
    </TTGlyph>
    <TTGlyph name="Cacute" xMin="88" yMin="-13" xMax="772" yMax="985">
      <component glyphName="C" x="0" y="0" flags="0x204"/>
      <component glyphName="acute" x="275" y="185" flags="0x4"/>
    </TTGlyph>
    <TTGlyph name="Cacute.sc" xMin="79" yMin="-12" xMax="685" yMax="859">
      <component glyphName="cacute.sc" x="0" y="0" flags="0x204"/>
    </TTGlyph>
    <TTGlyph name="Ccaron" xMin="88" yMin="-13" xMax="781" yMax="992">
      <component glyphName="C" x="0" y="0" flags="0x204"/>
      <component glyphName="caron" x="222" y="185" flags="0x4"/>
    </TTGlyph>
    <TTGlyph name="Ccaron.sc" xMin="79" yMin="-12" xMax="694" yMax="866">
      <component glyphName="ccaron.sc" x="0" y="0" flags="0x204"/>
    </TTGlyph>
    <TTGlyph name="Ccedilla" xMin="88" yMin="-189" xMax="736" yMax="713">
      <contour>
        <pt x="482" y="713" on="1"/>
        <pt x="559" y="713" on="0"/>
        <pt x="689" y="666" on="0"/>
        <pt x="736" y="620" on="1"/>
        <pt x="721" y="547" on="1"/>
        <pt x="720" y="547" on="1"/>
        <pt x="673" y="596" on="0"/>
        <pt x="550" y="645" on="0"/>
        <pt x="481" y="645" on="1"/>
        <pt x="409" y="645" on="0"/>
        <pt x="291" y="590" on="0"/>
        <pt x="209" y="496" on="0"/>
        <pt x="164" y="371" on="0"/>
        <pt x="164" y="301" on="1"/>
        <pt x="164" y="180" on="0"/>
        <pt x="304" y="54" on="0"/>
        <pt x="418" y="54" on="1"/>
        <pt x="478" y="54" on="0"/>
        <pt x="594" y="90" on="0"/>
        <pt x="641" y="119" on="1"/>
        <pt x="642" y="119" on="1"/>
        <pt x="626" y="41" on="1"/>
        <pt x="581" y="16" on="0"/>
        <pt x="469" y="-13" on="0"/>
        <pt x="412" y="-13" on="1"/>
        <pt x="262" y="-189" on="1"/>
        <pt x="168" y="-189" on="1"/>
        <pt x="169" y="-186" on="1"/>
        <pt x="351" y="-9" on="1"/>
        <pt x="230" y="6" on="0"/>
        <pt x="88" y="165" on="0"/>
        <pt x="88" y="297" on="1"/>
        <pt x="88" y="381" on="0"/>
        <pt x="144" y="533" on="0"/>
        <pt x="247" y="646" on="0"/>
        <pt x="393" y="713" on="0"/>
      </contour>
    </TTGlyph>
    <TTGlyph name="Ccedilla.sc" xMin="79" yMin="-190" xMax="641" yMax="587">
      <component glyphName="ccedilla.sc" x="0" y="0" flags="0x204"/>
    </TTGlyph>
    <TTGlyph name="Cdotaccent" xMin="88" yMin="-13" xMax="736" yMax="917">
      <component glyphName="C" x="0" y="0" flags="0x204"/>
      <component glyphName="dotaccent" x="222" y="185" flags="0x4"/>
    </TTGlyph>
    <TTGlyph name="Cdotaccent.sc" xMin="79" yMin="-12" xMax="641" yMax="791">
      <component glyphName="cdotaccent.sc" x="0" y="0" flags="0x204"/>
    </TTGlyph>
    <TTGlyph name="D" xMin="68" yMin="0" xMax="772" yMax="700">
      <contour>
        <pt x="68" y="0" on="1"/>
        <pt x="217" y="700" on="1"/>
        <pt x="445" y="700" on="1"/>
        <pt x="536" y="700" on="0"/>
        <pt x="661" y="656" on="0"/>
        <pt x="738" y="580" on="0"/>
        <pt x="772" y="477" on="0"/>
        <pt x="772" y="419" on="1"/>
        <pt x="772" y="336" on="0"/>
        <pt x="718" y="183" on="0"/>
        <pt x="608" y="69" on="0"/>
        <pt x="440" y="0" on="0"/>
        <pt x="327" y="0" on="1"/>
      </contour>
      <contour>
        <pt x="696" y="415" on="1"/>
        <pt x="696" y="458" on="0"/>
        <pt x="672" y="536" on="0"/>
        <pt x="614" y="596" on="0"/>
        <pt x="512" y="632" on="0"/>
        <pt x="434" y="632" on="1"/>
        <pt x="277" y="632" on="1"/>
        <pt x="157" y="68" on="1"/>
        <pt x="334" y="68" on="1"/>
        <pt x="428" y="68" on="0"/>
        <pt x="566" y="126" on="0"/>
        <pt x="654" y="222" on="0"/>
        <pt x="696" y="348" on="0"/>
      </contour>
    </TTGlyph>
    <TTGlyph name="D.sc" xMin="68" yMin="0" xMax="673" yMax="575">
      <component glyphName="d.sc" x="0" y="0" flags="0x204"/>
    </TTGlyph>
    <TTGlyph name="Dcaron" xMin="68" yMin="0" xMax="772" yMax="979">
      <component glyphName="D" x="0" y="0" flags="0x204"/>
      <component glyphName="caron" x="169" y="172" flags="0x4"/>
    </TTGlyph>
    <TTGlyph name="Dcaron.sc" xMin="68" yMin="0" xMax="673" yMax="854">
      <component glyphName="dcaron.sc" x="0" y="0" flags="0x204"/>
    </TTGlyph>
    <TTGlyph name="Dcroat" xMin="55" yMin="0" xMax="807" yMax="700">
      <component glyphName="Eth" x="0" y="0" flags="0x204"/>
    </TTGlyph>
    <TTGlyph name="Dcroat.sc" xMin="55" yMin="0" xMax="708" yMax="575">
      <component glyphName="dcroat.sc" x="0" y="0" flags="0x204"/>
    </TTGlyph>
    <TTGlyph name="E" xMin="68" yMin="0" xMax="725" yMax="700">
      <contour>
        <pt x="277" y="633" on="1"/>
        <pt x="227" y="396" on="1"/>
        <pt x="590" y="396" on="1"/>
        <pt x="576" y="329" on="1"/>
        <pt x="213" y="329" on="1"/>
        <pt x="157" y="67" on="1"/>
        <pt x="624" y="67" on="1"/>
        <pt x="601" y="0" on="1"/>
        <pt x="68" y="0" on="1"/>
        <pt x="217" y="700" on="1"/>
        <pt x="725" y="700" on="1"/>
        <pt x="723" y="633" on="1"/>
      </contour>
    </TTGlyph>
    <TTGlyph name="E.sc" xMin="68" yMin="0" xMax="629" yMax="575">
      <component glyphName="e.sc" x="0" y="0" flags="0x204"/>
    </TTGlyph>
    <TTGlyph name="Eacute" xMin="68" yMin="0" xMax="730" yMax="972">
      <component glyphName="E" x="0" y="0" flags="0x204"/>
      <component glyphName="acute" x="233" y="172" flags="0x4"/>
    </TTGlyph>
    <TTGlyph name="Eacute.sc" xMin="68" yMin="0" xMax="641" yMax="847">
      <component glyphName="eacute.sc" x="0" y="0" flags="0x204"/>
    </TTGlyph>
    <TTGlyph name="Ebreve" xMin="68" yMin="0" xMax="725" yMax="980">
      <component glyphName="E" x="0" y="0" flags="0x204"/>
      <component glyphName="breve" x="180" y="172" flags="0x4"/>
    </TTGlyph>
    <TTGlyph name="Ebreve.sc" xMin="68" yMin="0" xMax="629" yMax="855">
      <component glyphName="ebreve.sc" x="0" y="0" flags="0x204"/>
    </TTGlyph>
    <TTGlyph name="Ecaron" xMin="68" yMin="0" xMax="740" yMax="979">
      <component glyphName="E" x="0" y="0" flags="0x204"/>
      <component glyphName="caron" x="181" y="172" flags="0x4"/>
    </TTGlyph>
    <TTGlyph name="Ecaron.sc" xMin="68" yMin="0" xMax="650" yMax="854">
      <component glyphName="ecaron.sc" x="0" y="0" flags="0x204"/>
    </TTGlyph>
    <TTGlyph name="Ecircumflex" xMin="68" yMin="0" xMax="725" yMax="979">
      <component glyphName="E" x="0" y="0" flags="0x204"/>
      <component glyphName="circumflex" x="180" y="172" flags="0x4"/>
    </TTGlyph>
    <TTGlyph name="Ecircumflex.sc" xMin="68" yMin="0" xMax="629" yMax="854">
      <component glyphName="ecircumflex.sc" x="0" y="0" flags="0x204"/>
    </TTGlyph>
    <TTGlyph name="Edieresis" xMin="68" yMin="0" xMax="725" yMax="901">
      <component glyphName="E" x="0" y="0" flags="0x204"/>
      <component glyphName="dieresis" x="180" y="172" flags="0x4"/>
    </TTGlyph>
    <TTGlyph name="Edieresis.sc" xMin="68" yMin="0" xMax="629" yMax="776">
      <component glyphName="edieresis.sc" x="0" y="0" flags="0x204"/>
    </TTGlyph>
    <TTGlyph name="Edotaccent" xMin="68" yMin="0" xMax="725" yMax="904">
      <component glyphName="E" x="0" y="0" flags="0x204"/>
      <component glyphName="dotaccent" x="180" y="172" flags="0x4"/>
    </TTGlyph>
    <TTGlyph name="Edotaccent.sc" xMin="68" yMin="0" xMax="629" yMax="779">
      <component glyphName="edotaccent.sc" x="0" y="0" flags="0x204"/>
    </TTGlyph>
    <TTGlyph name="Egrave" xMin="68" yMin="0" xMax="725" yMax="972">
      <component glyphName="E" x="0" y="0" flags="0x204"/>
      <component glyphName="grave" x="127" y="172" flags="0x4"/>
    </TTGlyph>
    <TTGlyph name="Egrave.sc" xMin="68" yMin="0" xMax="629" yMax="847">
      <component glyphName="egrave.sc" x="0" y="0" flags="0x204"/>
    </TTGlyph>
    <TTGlyph name="Emacron" xMin="68" yMin="0" xMax="725" yMax="882">
      <component glyphName="E" x="0" y="0" flags="0x204"/>
      <component glyphName="macron" x="180" y="172" flags="0x4"/>
    </TTGlyph>
    <TTGlyph name="Emacron.sc" xMin="68" yMin="0" xMax="629" yMax="757">
      <component glyphName="emacron.sc" x="0" y="0" flags="0x204"/>
    </TTGlyph>
    <TTGlyph name="Eogonek" xMin="68" yMin="-289" xMax="725" yMax="700">
      <contour>
        <pt x="277" y="633" on="1"/>
        <pt x="227" y="396" on="1"/>
        <pt x="590" y="396" on="1"/>
        <pt x="576" y="329" on="1"/>
        <pt x="213" y="329" on="1"/>
        <pt x="157" y="67" on="1"/>
        <pt x="624" y="67" on="1"/>
        <pt x="601" y="0" on="1"/>
        <pt x="531" y="-57" on="1"/>
        <pt x="478" y="-102" on="0"/>
        <pt x="435" y="-159" on="0"/>
        <pt x="435" y="-185" on="1"/>
        <pt x="435" y="-207" on="0"/>
        <pt x="468" y="-233" on="0"/>
        <pt x="500" y="-233" on="1"/>
        <pt x="525" y="-233" on="0"/>
        <pt x="575" y="-217" on="0"/>
        <pt x="600" y="-203" on="1"/>
        <pt x="588" y="-261" on="1"/>
        <pt x="564" y="-275" on="0"/>
        <pt x="512" y="-289" on="0"/>
        <pt x="484" y="-289" on="1"/>
        <pt x="429" y="-289" on="0"/>
        <pt x="367" y="-238" on="0"/>
        <pt x="367" y="-198" on="1"/>
        <pt x="367" y="-155" on="0"/>
        <pt x="430" y="-76" on="0"/>
        <pt x="492" y="-25" on="1"/>
        <pt x="523" y="0" on="1"/>
        <pt x="68" y="0" on="1"/>
        <pt x="217" y="700" on="1"/>
        <pt x="725" y="700" on="1"/>
        <pt x="723" y="633" on="1"/>
      </contour>
    </TTGlyph>
    <TTGlyph name="Eogonek.sc" xMin="68" yMin="-289" xMax="629" yMax="575">
      <component glyphName="eogonek.sc" x="0" y="0" flags="0x204"/>
    </TTGlyph>
    <TTGlyph name="Eth" xMin="55" yMin="0" xMax="807" yMax="700">
      <contour>
        <pt x="102" y="0" on="1"/>
        <pt x="171" y="322" on="1"/>
        <pt x="55" y="322" on="1"/>
        <pt x="75" y="379" on="1"/>
        <pt x="183" y="379" on="1"/>
        <pt x="251" y="700" on="1"/>
        <pt x="479" y="700" on="1"/>
        <pt x="570" y="700" on="0"/>
        <pt x="696" y="656" on="0"/>
        <pt x="773" y="580" on="0"/>
        <pt x="807" y="477" on="0"/>
        <pt x="807" y="419" on="1"/>
        <pt x="807" y="336" on="0"/>
        <pt x="752" y="183" on="0"/>
        <pt x="642" y="69" on="0"/>
        <pt x="474" y="0" on="0"/>
        <pt x="361" y="0" on="1"/>
      </contour>
      <contour>
        <pt x="731" y="415" on="1"/>
        <pt x="731" y="458" on="0"/>
        <pt x="707" y="537" on="0"/>
        <pt x="648" y="596" on="0"/>
        <pt x="546" y="632" on="0"/>
        <pt x="469" y="632" on="1"/>
        <pt x="311" y="632" on="1"/>
        <pt x="257" y="379" on="1"/>
        <pt x="484" y="379" on="1"/>
        <pt x="472" y="322" on="1"/>
        <pt x="245" y="322" on="1"/>
        <pt x="191" y="68" on="1"/>
        <pt x="369" y="68" on="1"/>
        <pt x="463" y="68" on="0"/>
        <pt x="600" y="126" on="0"/>
        <pt x="689" y="222" on="0"/>
        <pt x="731" y="348" on="0"/>
      </contour>
    </TTGlyph>
    <TTGlyph name="Eth.sc" xMin="55" yMin="0" xMax="708" yMax="575">
      <component glyphName="eth.sc" x="0" y="0" flags="0x204"/>
    </TTGlyph>
    <TTGlyph name="Euro" xMin="41" yMin="-13" xMax="752" yMax="708">
      <contour>
        <pt x="41" y="234" on="1"/>
        <pt x="56" y="286" on="1"/>
        <pt x="170" y="286" on="1"/>
        <pt x="170" y="290" on="1"/>
        <pt x="170" y="319" on="0"/>
        <pt x="176" y="376" on="0"/>
        <pt x="183" y="404" on="1"/>
        <pt x="93" y="404" on="1"/>
        <pt x="108" y="455" on="1"/>
        <pt x="199" y="455" on="1"/>
        <pt x="218" y="509" on="0"/>
        <pt x="284" y="602" on="0"/>
        <pt x="372" y="669" on="0"/>
        <pt x="485" y="708" on="0"/>
        <pt x="551" y="708" on="1"/>
        <pt x="617" y="708" on="0"/>
        <pt x="718" y="673" on="0"/>
        <pt x="752" y="646" on="1"/>
        <pt x="738" y="582" on="1"/>
        <pt x="737" y="582" on="1"/>
        <pt x="700" y="610" on="0"/>
        <pt x="606" y="645" on="0"/>
        <pt x="551" y="645" on="1"/>
        <pt x="448" y="645" on="0"/>
        <pt x="306" y="537" on="0"/>
        <pt x="272" y="455" on="1"/>
        <pt x="591" y="455" on="1"/>
        <pt x="580" y="404" on="1"/>
        <pt x="254" y="404" on="1"/>
        <pt x="247" y="377" on="0"/>
        <pt x="240" y="320" on="0"/>
        <pt x="240" y="291" on="1"/>
        <pt x="240" y="290" on="0"/>
        <pt x="240" y="287" on="0"/>
        <pt x="240" y="286" on="1"/>
        <pt x="556" y="286" on="1"/>
        <pt x="545" y="235" on="1"/>
        <pt x="244" y="235" on="1"/>
        <pt x="258" y="145" on="0"/>
        <pt x="382" y="51" on="0"/>
        <pt x="482" y="51" on="1"/>
        <pt x="528" y="51" on="0"/>
        <pt x="623" y="74" on="0"/>
        <pt x="658" y="92" on="1"/>
        <pt x="659" y="92" on="1"/>
        <pt x="645" y="23" on="1"/>
        <pt x="610" y="6" on="0"/>
        <pt x="519" y="-13" on="0"/>
        <pt x="475" y="-13" on="1"/>
        <pt x="345" y="-13" on="0"/>
        <pt x="189" y="118" on="0"/>
        <pt x="174" y="234" on="1"/>
      </contour>
    </TTGlyph>
    <TTGlyph name="Euro.tab" xMin="33" yMin="-13" xMax="715" yMax="708">
      <contour>
        <pt x="33" y="234" on="1"/>
        <pt x="48" y="286" on="1"/>
        <pt x="156" y="286" on="1"/>
        <pt x="156" y="291" on="1"/>
        <pt x="156" y="320" on="0"/>
        <pt x="162" y="377" on="0"/>
        <pt x="168" y="404" on="1"/>
        <pt x="85" y="404" on="1"/>
        <pt x="100" y="455" on="1"/>
        <pt x="183" y="455" on="1"/>
        <pt x="201" y="509" on="0"/>
        <pt x="263" y="602" on="0"/>
        <pt x="347" y="669" on="0"/>
        <pt x="454" y="708" on="0"/>
        <pt x="517" y="708" on="1"/>
        <pt x="582" y="708" on="0"/>
        <pt x="681" y="672" on="0"/>
        <pt x="715" y="645" on="1"/>
        <pt x="701" y="581" on="1"/>
        <pt x="700" y="581" on="1"/>
        <pt x="664" y="609" on="0"/>
        <pt x="571" y="645" on="0"/>
        <pt x="517" y="645" on="1"/>
        <pt x="421" y="645" on="0"/>
        <pt x="287" y="537" on="0"/>
        <pt x="255" y="455" on="1"/>
        <pt x="558" y="455" on="1"/>
        <pt x="547" y="404" on="1"/>
        <pt x="239" y="404" on="1"/>
        <pt x="233" y="377" on="0"/>
        <pt x="226" y="320" on="0"/>
        <pt x="226" y="292" on="1"/>
        <pt x="226" y="291" on="0"/>
        <pt x="226" y="287" on="0"/>
        <pt x="226" y="286" on="1"/>
        <pt x="523" y="286" on="1"/>
        <pt x="512" y="235" on="1"/>
        <pt x="230" y="235" on="1"/>
        <pt x="243" y="145" on="0"/>
        <pt x="356" y="51" on="0"/>
        <pt x="449" y="51" on="1"/>
        <pt x="494" y="51" on="0"/>
        <pt x="586" y="74" on="0"/>
        <pt x="621" y="91" on="1"/>
        <pt x="622" y="91" on="1"/>
        <pt x="608" y="22" on="1"/>
        <pt x="573" y="6" on="0"/>
        <pt x="484" y="-13" on="0"/>
        <pt x="441" y="-13" on="1"/>
        <pt x="320" y="-13" on="0"/>
        <pt x="174" y="118" on="0"/>
        <pt x="159" y="234" on="1"/>
      </contour>
    </TTGlyph>
    <TTGlyph name="F" xMin="68" yMin="0" xMax="721" yMax="700">
      <contour>
        <pt x="277" y="633" on="1"/>
        <pt x="224" y="383" on="1"/>
        <pt x="589" y="383" on="1"/>
        <pt x="575" y="316" on="1"/>
        <pt x="209" y="316" on="1"/>
        <pt x="142" y="0" on="1"/>
        <pt x="68" y="0" on="1"/>
        <pt x="217" y="700" on="1"/>
        <pt x="721" y="700" on="1"/>
        <pt x="717" y="633" on="1"/>
      </contour>
    </TTGlyph>
    <TTGlyph name="F.sc" xMin="68" yMin="0" xMax="616" yMax="575">
      <component glyphName="f.sc" x="0" y="0" flags="0x204"/>
    </TTGlyph>
    <TTGlyph name="G" xMin="89" yMin="-18" xMax="775" yMax="713">
      <contour>
        <pt x="488" y="645" on="1"/>
        <pt x="413" y="645" on="0"/>
        <pt x="292" y="588" on="0"/>
        <pt x="209" y="492" on="0"/>
        <pt x="165" y="366" on="0"/>
        <pt x="165" y="298" on="1"/>
        <pt x="165" y="244" on="0"/>
        <pt x="197" y="151" on="0"/>
        <pt x="258" y="85" on="0"/>
        <pt x="352" y="48" on="0"/>
        <pt x="413" y="48" on="1"/>
        <pt x="531" y="48" on="0"/>
        <pt x="673" y="191" on="0"/>
        <pt x="693" y="308" on="1"/>
        <pt x="398" y="308" on="1"/>
        <pt x="412" y="372" on="1"/>
        <pt x="775" y="372" on="1"/>
        <pt x="765" y="273" on="0"/>
        <pt x="705" y="123" on="0"/>
        <pt x="656" y="74" on="1"/>
        <pt x="610" y="28" on="0"/>
        <pt x="484" y="-18" on="0"/>
        <pt x="408" y="-18" on="1"/>
        <pt x="332" y="-18" on="0"/>
        <pt x="212" y="27" on="0"/>
        <pt x="132" y="108" on="0"/>
        <pt x="89" y="224" on="0"/>
        <pt x="89" y="293" on="1"/>
        <pt x="89" y="375" on="0"/>
        <pt x="144" y="528" on="0"/>
        <pt x="247" y="643" on="0"/>
        <pt x="397" y="713" on="0"/>
        <pt x="491" y="713" on="1"/>
        <pt x="575" y="713" on="0"/>
        <pt x="713" y="656" on="0"/>
        <pt x="759" y="607" on="1"/>
        <pt x="743" y="535" on="1"/>
        <pt x="742" y="535" on="1"/>
        <pt x="696" y="584" on="0"/>
        <pt x="569" y="645" on="0"/>
      </contour>
    </TTGlyph>
    <TTGlyph name="G.sc" xMin="80" yMin="-16" xMax="679" yMax="586">
      <component glyphName="g.sc" x="0" y="0" flags="0x204"/>
    </TTGlyph>
    <TTGlyph name="Gbreve" xMin="89" yMin="-18" xMax="775" yMax="993">
      <component glyphName="G" x="0" y="0" flags="0x204"/>
      <component glyphName="breve" x="190" y="185" flags="0x4"/>
    </TTGlyph>
    <TTGlyph name="Gbreve.sc" xMin="80" yMin="-16" xMax="679" yMax="866">
      <component glyphName="gbreve.sc" x="0" y="0" flags="0x204"/>
    </TTGlyph>
    <TTGlyph name="Gdotaccent" xMin="89" yMin="-18" xMax="775" yMax="917">
      <component glyphName="G" x="0" y="0" flags="0x204"/>
      <component glyphName="dotaccent" x="190" y="185" flags="0x4"/>
    </TTGlyph>
    <TTGlyph name="Gdotaccent.sc" xMin="80" yMin="-16" xMax="679" yMax="790">
      <component glyphName="gdotaccent.sc" x="0" y="0" flags="0x204"/>
    </TTGlyph>
    <TTGlyph name="H" xMin="68" yMin="0" xMax="804" yMax="700">
      <contour>
        <pt x="580" y="0" on="1"/>
        <pt x="650" y="328" on="1"/>
        <pt x="212" y="328" on="1"/>
        <pt x="142" y="0" on="1"/>
        <pt x="68" y="0" on="1"/>
        <pt x="217" y="700" on="1"/>
        <pt x="291" y="700" on="1"/>
        <pt x="226" y="396" on="1"/>
        <pt x="664" y="396" on="1"/>
        <pt x="729" y="700" on="1"/>
        <pt x="804" y="700" on="1"/>
        <pt x="655" y="0" on="1"/>
      </contour>
    </TTGlyph>
    <TTGlyph name="H.sc" xMin="68" yMin="0" xMax="711" yMax="575">
      <component glyphName="h.sc" x="0" y="0" flags="0x204"/>
    </TTGlyph>
    <TTGlyph name="Hbar" xMin="94" yMin="0" xMax="916" yMax="700">
      <contour>
        <pt x="94" y="516" on="1"/>
        <pt x="114" y="573" on="1"/>
        <pt x="224" y="573" on="1"/>
        <pt x="251" y="700" on="1"/>
        <pt x="326" y="700" on="1"/>
        <pt x="299" y="571" on="1"/>
        <pt x="737" y="571" on="1"/>
        <pt x="764" y="700" on="1"/>
        <pt x="838" y="700" on="1"/>
        <pt x="811" y="573" on="1"/>
        <pt x="915" y="573" on="1"/>
        <pt x="916" y="516" on="1"/>
        <pt x="799" y="516" on="1"/>
        <pt x="689" y="0" on="1"/>
        <pt x="615" y="0" on="1"/>
        <pt x="678" y="297" on="1"/>
        <pt x="240" y="297" on="1"/>
        <pt x="177" y="0" on="1"/>
        <pt x="102" y="0" on="1"/>
        <pt x="212" y="516" on="1"/>
      </contour>
      <contour>
        <pt x="254" y="364" on="1"/>
        <pt x="692" y="364" on="1"/>
        <pt x="725" y="518" on="1"/>
        <pt x="287" y="518" on="1"/>
      </contour>
    </TTGlyph>
    <TTGlyph name="Hbar.sc" xMin="84" yMin="0" xMax="822" yMax="575">
      <component glyphName="hbar.sc" x="0" y="0" flags="0x204"/>
    </TTGlyph>
    <TTGlyph name="I" xMin="74" yMin="0" xMax="298" yMax="700">
      <contour>
        <pt x="149" y="0" on="1"/>
        <pt x="74" y="0" on="1"/>
        <pt x="223" y="700" on="1"/>
        <pt x="298" y="700" on="1"/>
      </contour>
    </TTGlyph>
    <TTGlyph name="I.sc" xMin="69" yMin="0" xMax="263" yMax="575">
      <component glyphName="i.sc" x="0" y="0" flags="0x204"/>
    </TTGlyph>
    <TTGlyph name="Iacute" xMin="74" yMin="0" xMax="517" yMax="972">
      <component glyphName="I" x="0" y="0" flags="0x204"/>
      <component glyphName="acute" x="20" y="172" flags="0x4"/>
    </TTGlyph>
    <TTGlyph name="Iacute.sc" xMin="69" yMin="0" xMax="482" yMax="847">
      <component glyphName="iacute.sc" x="0" y="0" flags="0x204"/>
    </TTGlyph>
    <TTGlyph name="Ibreve" xMin="74" yMin="0" xMax="479" yMax="980">
      <component glyphName="I" x="0" y="0" flags="0x204"/>
      <component glyphName="breve" x="-47" y="172" flags="0x4"/>
    </TTGlyph>
    <TTGlyph name="Ibreve.sc" xMin="69" yMin="0" xMax="446" yMax="855">
      <component glyphName="ibreve.sc" x="0" y="0" flags="0x204"/>
    </TTGlyph>
    <TTGlyph name="Icircumflex" xMin="74" yMin="0" xMax="477" yMax="979">
      <component glyphName="I" x="0" y="0" flags="0x204"/>
      <component glyphName="circumflex" x="-47" y="172" flags="0x4"/>
    </TTGlyph>
    <TTGlyph name="Icircumflex.sc" xMin="58" yMin="0" xMax="444" yMax="854">
      <component glyphName="icircumflex.sc" x="0" y="0" flags="0x204"/>
    </TTGlyph>
    <TTGlyph name="Idieresis" xMin="74" yMin="0" xMax="467" yMax="901">
      <component glyphName="I" x="0" y="0" flags="0x204"/>
      <component glyphName="dieresis" x="-47" y="172" flags="0x4"/>
    </TTGlyph>
    <TTGlyph name="Idieresis.sc" xMin="69" yMin="0" xMax="434" yMax="776">
      <component glyphName="idieresis.sc" x="0" y="0" flags="0x204"/>
    </TTGlyph>
    <TTGlyph name="Idotaccent" xMin="74" yMin="0" xMax="346" yMax="904">
      <component glyphName="I" x="0" y="0" flags="0x204"/>
      <component glyphName="dotaccent" x="-47" y="172" flags="0x4"/>
    </TTGlyph>
    <TTGlyph name="Idotaccent.sc" xMin="69" yMin="0" xMax="313" yMax="779">
      <component glyphName="idotaccent.sc" x="0" y="0" flags="0x204"/>
    </TTGlyph>
    <TTGlyph name="Igrave" xMin="74" yMin="0" xMax="315" yMax="972">
      <component glyphName="I" x="0" y="0" flags="0x204"/>
      <component glyphName="grave" x="-115" y="172" flags="0x4"/>
    </TTGlyph>
    <TTGlyph name="Igrave.sc" xMin="69" yMin="0" xMax="281" yMax="847">
      <component glyphName="igrave.sc" x="0" y="0" flags="0x204"/>
    </TTGlyph>
    <TTGlyph name="Imacron" xMin="74" yMin="0" xMax="475" yMax="882">
      <component glyphName="I" x="0" y="0" flags="0x204"/>
      <component glyphName="macron" x="-47" y="172" flags="0x4"/>
    </TTGlyph>
    <TTGlyph name="Imacron.sc" xMin="69" yMin="0" xMax="442" yMax="757">
      <component glyphName="imacron.sc" x="0" y="0" flags="0x204"/>
    </TTGlyph>
    <TTGlyph name="Iogonek" xMin="-85" yMin="-289" xMax="298" yMax="700">
      <contour>
        <pt x="149" y="0" on="1"/>
        <pt x="79" y="-58" on="1"/>
        <pt x="19" y="-108" on="0"/>
        <pt x="-16" y="-163" on="0"/>
        <pt x="-16" y="-185" on="1"/>
        <pt x="-16" y="-207" on="0"/>
        <pt x="18" y="-233" on="0"/>
        <pt x="53" y="-233" on="1"/>
        <pt x="78" y="-233" on="0"/>
        <pt x="125" y="-218" on="0"/>
        <pt x="148" y="-204" on="1"/>
        <pt x="137" y="-261" on="1"/>
        <pt x="114" y="-275" on="0"/>
        <pt x="63" y="-289" on="0"/>
        <pt x="35" y="-289" on="1"/>
        <pt x="-22" y="-289" on="0"/>
        <pt x="-85" y="-239" on="0"/>
        <pt x="-85" y="-199" on="1"/>
        <pt x="-85" y="-159" on="0"/>
        <pt x="-26" y="-80" on="0"/>
        <pt x="40" y="-26" on="1"/>
        <pt x="74" y="1" on="1"/>
        <pt x="223" y="700" on="1"/>
        <pt x="298" y="700" on="1"/>
      </contour>
    </TTGlyph>
    <TTGlyph name="Iogonek.sc" xMin="-93" yMin="-289" xMax="263" yMax="575">
      <component glyphName="iogonek.sc" x="0" y="0" flags="0x204"/>
    </TTGlyph>
    <TTGlyph name="J" xMin="40" yMin="-14" xMax="653" yMax="700">
      <contour>
        <pt x="286" y="-14" on="1"/>
        <pt x="219" y="-14" on="0"/>
        <pt x="90" y="29" on="0"/>
        <pt x="40" y="70" on="1"/>
        <pt x="56" y="144" on="1"/>
        <pt x="57" y="144" on="1"/>
        <pt x="108" y="99" on="0"/>
        <pt x="227" y="55" on="0"/>
        <pt x="284" y="55" on="1"/>
        <pt x="365" y="55" on="0"/>
        <pt x="462" y="147" on="0"/>
        <pt x="484" y="251" on="1"/>
        <pt x="565" y="633" on="1"/>
        <pt x="273" y="633" on="1"/>
        <pt x="295" y="700" on="1"/>
        <pt x="653" y="700" on="1"/>
        <pt x="556" y="236" on="1"/>
        <pt x="528" y="105" on="0"/>
        <pt x="393" y="-14" on="0"/>
      </contour>
    </TTGlyph>
    <TTGlyph name="J.sc" xMin="37" yMin="-13" xMax="573" yMax="575">
      <component glyphName="j.sc" x="0" y="0" flags="0x204"/>
    </TTGlyph>
    <TTGlyph name="K" xMin="68" yMin="0" xMax="797" yMax="700">
      <contour>
        <pt x="68" y="0" on="1"/>
        <pt x="217" y="700" on="1"/>
        <pt x="291" y="700" on="1"/>
        <pt x="225" y="392" on="1"/>
        <pt x="380" y="392" on="1"/>
        <pt x="701" y="700" on="1"/>
        <pt x="797" y="700" on="1"/>
        <pt x="436" y="354" on="1"/>
        <pt x="671" y="0" on="1"/>
        <pt x="587" y="0" on="1"/>
        <pt x="371" y="324" on="1"/>
        <pt x="211" y="324" on="1"/>
        <pt x="142" y="0" on="1"/>
      </contour>
    </TTGlyph>
    <TTGlyph name="K.sc" xMin="68" yMin="0" xMax="700" yMax="575">
      <component glyphName="k.sc" x="0" y="0" flags="0x204"/>
    </TTGlyph>
    <TTGlyph name="L" xMin="68" yMin="0" xMax="582" yMax="700">
      <contour>
        <pt x="68" y="0" on="1"/>
        <pt x="217" y="700" on="1"/>
        <pt x="291" y="700" on="1"/>
        <pt x="157" y="69" on="1"/>
        <pt x="582" y="69" on="1"/>
        <pt x="560" y="0" on="1"/>
      </contour>
    </TTGlyph>
    <TTGlyph name="L.sc" xMin="68" yMin="0" xMax="509" yMax="575">
      <component glyphName="l.sc" x="0" y="0" flags="0x204"/>
    </TTGlyph>
    <TTGlyph name="Lacute" xMin="68" yMin="0" xMax="582" yMax="972">
      <component glyphName="L" x="0" y="0" flags="0x204"/>
      <component glyphName="acute" x="12" y="172" flags="0x4"/>
    </TTGlyph>
    <TTGlyph name="Lacute.sc" xMin="68" yMin="0" xMax="509" yMax="847">
      <component glyphName="lacute.sc" x="0" y="0" flags="0x204"/>
    </TTGlyph>
    <TTGlyph name="Lcaron" xMin="68" yMin="0" xMax="582" yMax="724">
      <component glyphName="L" x="0" y="0" flags="0x204"/>
      <component glyphName="caron.alt" x="113" y="-57" flags="0x4"/>
    </TTGlyph>
    <TTGlyph name="Lcaron.sc" xMin="68" yMin="0" xMax="509" yMax="575">
      <component glyphName="lcaron.sc" x="0" y="0" flags="0x204"/>
    </TTGlyph>
    <TTGlyph name="Ldot" xMin="68" yMin="0" xMax="582" yMax="700">
      <contour>
        <pt x="68" y="0" on="1"/>
        <pt x="217" y="700" on="1"/>
        <pt x="291" y="700" on="1"/>
        <pt x="157" y="69" on="1"/>
        <pt x="582" y="69" on="1"/>
        <pt x="560" y="0" on="1"/>
      </contour>
      <contour>
        <pt x="471" y="415" on="1"/>
        <pt x="471" y="434" on="0"/>
        <pt x="500" y="465" on="0"/>
        <pt x="526" y="465" on="1"/>
        <pt x="551" y="465" on="0"/>
        <pt x="577" y="439" on="0"/>
        <pt x="577" y="421" on="1"/>
        <pt x="577" y="401" on="0"/>
        <pt x="546" y="370" on="0"/>
        <pt x="520" y="370" on="1"/>
        <pt x="496" y="370" on="0"/>
        <pt x="471" y="396" on="0"/>
      </contour>
    </TTGlyph>
    <TTGlyph name="Ldot.sc" xMin="68" yMin="0" xMax="540" yMax="575">
      <component glyphName="ldot.sc" x="0" y="0" flags="0x204"/>
    </TTGlyph>
    <TTGlyph name="Lslash" xMin="13" yMin="0" xMax="615" yMax="700">
      <contour>
        <pt x="101" y="0" on="1"/>
        <pt x="158" y="269" on="1"/>
        <pt x="13" y="196" on="1"/>
        <pt x="29" y="270" on="1"/>
        <pt x="174" y="342" on="1"/>
        <pt x="250" y="700" on="1"/>
        <pt x="324" y="700" on="1"/>
        <pt x="257" y="383" on="1"/>
        <pt x="523" y="517" on="1"/>
        <pt x="507" y="444" on="1"/>
        <pt x="241" y="310" on="1"/>
        <pt x="190" y="69" on="1"/>
        <pt x="615" y="69" on="1"/>
        <pt x="593" y="0" on="1"/>
      </contour>
    </TTGlyph>
    <TTGlyph name="Lslash.sc" xMin="32" yMin="0" xMax="546" yMax="575">
      <component glyphName="lslash.sc" x="0" y="0" flags="0x204"/>
    </TTGlyph>
    <TTGlyph name="M" xMin="68" yMin="0" xMax="949" yMax="700">
      <contour>
        <pt x="68" y="0" on="1"/>
        <pt x="217" y="700" on="1"/>
        <pt x="316" y="700" on="1"/>
        <pt x="474" y="199" on="1"/>
        <pt x="839" y="700" on="1"/>
        <pt x="949" y="700" on="1"/>
        <pt x="801" y="0" on="1"/>
        <pt x="727" y="0" on="1"/>
        <pt x="854" y="599" on="1"/>
        <pt x="843" y="599" on="1"/>
        <pt x="454" y="66" on="1"/>
        <pt x="447" y="66" on="1"/>
        <pt x="278" y="596" on="1"/>
        <pt x="268" y="596" on="1"/>
        <pt x="141" y="0" on="1"/>
      </contour>
    </TTGlyph>
    <TTGlyph name="M.sc" xMin="68" yMin="0" xMax="823" yMax="575">
      <component glyphName="m.sc" x="0" y="0" flags="0x204"/>
    </TTGlyph>
    <TTGlyph name="N" xMin="68" yMin="0" xMax="806" yMax="700">
      <contour>
        <pt x="68" y="0" on="1"/>
        <pt x="217" y="700" on="1"/>
        <pt x="316" y="700" on="1"/>
        <pt x="592" y="103" on="1"/>
        <pt x="606" y="103" on="1"/>
        <pt x="733" y="700" on="1"/>
        <pt x="806" y="700" on="1"/>
        <pt x="658" y="0" on="1"/>
        <pt x="563" y="0" on="1"/>
        <pt x="283" y="603" on="1"/>
        <pt x="270" y="603" on="1"/>
        <pt x="142" y="0" on="1"/>
      </contour>
    </TTGlyph>
    <TTGlyph name="N.sc" xMin="68" yMin="0" xMax="716" yMax="575">
      <component glyphName="n.sc" x="0" y="0" flags="0x204"/>
    </TTGlyph>
    <TTGlyph name="Nacute" xMin="68" yMin="0" xMax="806" yMax="947">
      <component glyphName="N" x="0" y="0" flags="0x204"/>
      <component glyphName="acute" x="266" y="147" flags="0x4"/>
    </TTGlyph>
    <TTGlyph name="Nacute.sc" xMin="68" yMin="0" xMax="716" yMax="823">
      <component glyphName="nacute.sc" x="0" y="0" flags="0x204"/>
    </TTGlyph>
    <TTGlyph name="Ncaron" xMin="68" yMin="0" xMax="806" yMax="954">
      <component glyphName="N" x="0" y="0" flags="0x204"/>
      <component glyphName="caron" x="214" y="147" flags="0x4"/>
    </TTGlyph>
    <TTGlyph name="Ncaron.sc" xMin="68" yMin="0" xMax="716" yMax="830">
      <component glyphName="ncaron.sc" x="0" y="0" flags="0x204"/>
    </TTGlyph>
    <TTGlyph name="Ntilde" xMin="68" yMin="0" xMax="806" yMax="932">
      <component glyphName="N" x="0" y="0" flags="0x204"/>
      <component glyphName="tilde" x="218" y="172" flags="0x4"/>
    </TTGlyph>
    <TTGlyph name="Ntilde.sc" xMin="68" yMin="0" xMax="716" yMax="807">
      <component glyphName="ntilde.sc" x="0" y="0" flags="0x204"/>
    </TTGlyph>
    <TTGlyph name="O" xMin="88" yMin="-18" xMax="800" yMax="718">
      <contour>
        <pt x="401" y="-18" on="1"/>
        <pt x="330" y="-18" on="0"/>
        <pt x="214" y="26" on="0"/>
        <pt x="133" y="106" on="0"/>
        <pt x="88" y="222" on="0"/>
        <pt x="88" y="293" on="1"/>
        <pt x="88" y="372" on="0"/>
        <pt x="140" y="525" on="0"/>
        <pt x="241" y="645" on="0"/>
        <pt x="391" y="718" on="0"/>
        <pt x="487" y="718" on="1"/>
        <pt x="558" y="718" on="0"/>
        <pt x="674" y="674" on="0"/>
        <pt x="755" y="593" on="0"/>
        <pt x="800" y="478" on="0"/>
        <pt x="800" y="407" on="1"/>
        <pt x="800" y="328" on="0"/>
        <pt x="748" y="175" on="0"/>
        <pt x="647" y="55" on="0"/>
        <pt x="497" y="-18" on="0"/>
      </contour>
      <contour>
        <pt x="406" y="49" on="1"/>
        <pt x="483" y="49" on="0"/>
        <pt x="602" y="110" on="0"/>
        <pt x="682" y="209" on="0"/>
        <pt x="724" y="337" on="0"/>
        <pt x="724" y="403" on="1"/>
        <pt x="724" y="516" on="0"/>
        <pt x="595" y="650" on="0"/>
        <pt x="482" y="650" on="1"/>
        <pt x="405" y="650" on="0"/>
        <pt x="286" y="590" on="0"/>
        <pt x="206" y="491" on="0"/>
        <pt x="164" y="363" on="0"/>
        <pt x="164" y="297" on="1"/>
        <pt x="164" y="184" on="0"/>
        <pt x="293" y="49" on="0"/>
      </contour>
    </TTGlyph>
    <TTGlyph name="O.sc" xMin="80" yMin="-18" xMax="700" yMax="593">
      <component glyphName="o.sc" x="0" y="0" flags="0x204"/>
    </TTGlyph>
    <TTGlyph name="OE" xMin="88" yMin="0" xMax="1227" yMax="700">
      <contour>
        <pt x="779" y="633" on="1"/>
        <pt x="728" y="396" on="1"/>
        <pt x="1088" y="396" on="1"/>
        <pt x="1074" y="329" on="1"/>
        <pt x="714" y="329" on="1"/>
        <pt x="658" y="67" on="1"/>
        <pt x="1125" y="67" on="1"/>
        <pt x="1103" y="0" on="1"/>
        <pt x="416" y="0" on="1"/>
        <pt x="325" y="0" on="0"/>
        <pt x="199" y="44" on="0"/>
        <pt x="122" y="120" on="0"/>
        <pt x="88" y="223" on="0"/>
        <pt x="88" y="281" on="1"/>
        <pt x="88" y="364" on="0"/>
        <pt x="143" y="517" on="0"/>
        <pt x="253" y="631" on="0"/>
        <pt x="421" y="700" on="0"/>
        <pt x="534" y="700" on="1"/>
        <pt x="1227" y="700" on="1"/>
        <pt x="1225" y="633" on="1"/>
      </contour>
      <contour>
        <pt x="164" y="285" on="1"/>
        <pt x="164" y="242" on="0"/>
        <pt x="188" y="163" on="0"/>
        <pt x="247" y="104" on="0"/>
        <pt x="349" y="68" on="0"/>
        <pt x="426" y="68" on="1"/>
        <pt x="583" y="68" on="1"/>
        <pt x="704" y="632" on="1"/>
        <pt x="526" y="632" on="1"/>
        <pt x="432" y="632" on="0"/>
        <pt x="295" y="574" on="0"/>
        <pt x="206" y="478" on="0"/>
        <pt x="164" y="352" on="0"/>
      </contour>
    </TTGlyph>
    <TTGlyph name="OE.sc" xMin="80" yMin="0" xMax="1052" yMax="575">
      <component glyphName="oe.sc" x="0" y="0" flags="0x204"/>
    </TTGlyph>
    <TTGlyph name="Oacute" xMin="88" yMin="-18" xMax="800" yMax="990">
      <component glyphName="O" x="0" y="0" flags="0x204"/>
      <component glyphName="acute" x="263" y="190" flags="0x4"/>
    </TTGlyph>
    <TTGlyph name="Oacute.sc" xMin="80" yMin="-18" xMax="700" yMax="865">
      <component glyphName="oacute.sc" x="0" y="0" flags="0x204"/>
    </TTGlyph>
    <TTGlyph name="Obreve" xMin="88" yMin="-18" xMax="800" yMax="998">
      <component glyphName="O" x="0" y="0" flags="0x204"/>
      <component glyphName="breve" x="210" y="190" flags="0x4"/>
    </TTGlyph>
    <TTGlyph name="Obreve.sc" xMin="80" yMin="-18" xMax="700" yMax="873">
      <component glyphName="obreve.sc" x="0" y="0" flags="0x204"/>
    </TTGlyph>
    <TTGlyph name="Ocircumflex" xMin="88" yMin="-18" xMax="800" yMax="997">
      <component glyphName="O" x="0" y="0" flags="0x204"/>
      <component glyphName="circumflex" x="210" y="190" flags="0x4"/>
    </TTGlyph>
    <TTGlyph name="Ocircumflex.sc" xMin="80" yMin="-18" xMax="700" yMax="872">
      <component glyphName="ocircumflex.sc" x="0" y="0" flags="0x204"/>
    </TTGlyph>
    <TTGlyph name="Odieresis" xMin="88" yMin="-18" xMax="800" yMax="919">
      <component glyphName="O" x="0" y="0" flags="0x204"/>
      <component glyphName="dieresis" x="210" y="190" flags="0x4"/>
    </TTGlyph>
    <TTGlyph name="Odieresis.sc" xMin="80" yMin="-18" xMax="700" yMax="794">
      <component glyphName="odieresis.sc" x="0" y="0" flags="0x204"/>
    </TTGlyph>
    <TTGlyph name="Ograve" xMin="88" yMin="-18" xMax="800" yMax="990">
      <component glyphName="O" x="0" y="0" flags="0x204"/>
      <component glyphName="grave" x="156" y="190" flags="0x4"/>
    </TTGlyph>
    <TTGlyph name="Ograve.sc" xMin="80" yMin="-18" xMax="700" yMax="865">
      <component glyphName="ograve.sc" x="0" y="0" flags="0x204"/>
    </TTGlyph>
    <TTGlyph name="Ohungarumlaut" xMin="88" yMin="-18" xMax="870" yMax="990">
      <component glyphName="O" x="0" y="0" flags="0x204"/>
      <component glyphName="hungarumlaut" x="277" y="190" flags="0x4"/>
    </TTGlyph>
    <TTGlyph name="Ohungarumlaut.sc" xMin="80" yMin="-18" xMax="796" yMax="865">
      <component glyphName="ohungarumlaut.sc" x="0" y="0" flags="0x204"/>
    </TTGlyph>
    <TTGlyph name="Omacron" xMin="88" yMin="-18" xMax="800" yMax="900">
      <component glyphName="O" x="0" y="0" flags="0x204"/>
      <component glyphName="macron" x="209" y="190" flags="0x4"/>
    </TTGlyph>
    <TTGlyph name="Omacron.sc" xMin="80" yMin="-18" xMax="700" yMax="775">
      <component glyphName="omacron.sc" x="0" y="0" flags="0x204"/>
    </TTGlyph>
    <TTGlyph name="Oslash" xMin="-5" yMin="-61" xMax="893" yMax="761">
      <contour>
        <pt x="-5" y="-61" on="1"/>
        <pt x="148" y="95" on="1"/>
        <pt x="120" y="134" on="0"/>
        <pt x="88" y="234" on="0"/>
        <pt x="88" y="293" on="1"/>
        <pt x="88" y="372" on="0"/>
        <pt x="140" y="525" on="0"/>
        <pt x="241" y="645" on="0"/>
        <pt x="390" y="718" on="0"/>
        <pt x="486" y="718" on="1"/>
        <pt x="549" y="718" on="0"/>
        <pt x="657" y="683" on="0"/>
        <pt x="697" y="649" on="1"/>
        <pt x="807" y="761" on="1"/>
        <pt x="893" y="761" on="1"/>
        <pt x="740" y="605" on="1"/>
        <pt x="768" y="566" on="0"/>
        <pt x="800" y="466" on="0"/>
        <pt x="800" y="407" on="1"/>
        <pt x="800" y="328" on="0"/>
        <pt x="748" y="175" on="0"/>
        <pt x="647" y="55" on="0"/>
        <pt x="498" y="-18" on="0"/>
        <pt x="402" y="-18" on="1"/>
        <pt x="339" y="-18" on="0"/>
        <pt x="231" y="17" on="0"/>
        <pt x="191" y="51" on="1"/>
        <pt x="81" y="-61" on="1"/>
      </contour>
      <contour>
        <pt x="162" y="296" on="1"/>
        <pt x="162" y="252" on="0"/>
        <pt x="183" y="175" on="0"/>
        <pt x="203" y="145" on="1"/>
        <pt x="648" y="596" on="1"/>
        <pt x="617" y="623" on="0"/>
        <pt x="533" y="652" on="0"/>
        <pt x="482" y="652" on="1"/>
        <pt x="404" y="652" on="0"/>
        <pt x="284" y="591" on="0"/>
        <pt x="204" y="492" on="0"/>
        <pt x="162" y="363" on="0"/>
      </contour>
      <contour>
        <pt x="406" y="48" on="1"/>
        <pt x="484" y="48" on="0"/>
        <pt x="604" y="109" on="0"/>
        <pt x="684" y="208" on="0"/>
        <pt x="726" y="337" on="0"/>
        <pt x="726" y="404" on="1"/>
        <pt x="726" y="448" on="0"/>
        <pt x="705" y="525" on="0"/>
        <pt x="685" y="555" on="1"/>
        <pt x="240" y="104" on="1"/>
        <pt x="271" y="77" on="0"/>
        <pt x="355" y="48" on="0"/>
      </contour>
    </TTGlyph>
    <TTGlyph name="Oslash.sc" xMin="8" yMin="-54" xMax="772" yMax="628">
      <component glyphName="oslash.sc" x="0" y="0" flags="0x204"/>
    </TTGlyph>
    <TTGlyph name="Oslashacute" xMin="-5" yMin="-61" xMax="893" yMax="988">
      <component glyphName="Oslash" x="0" y="0" flags="0x204"/>
      <component glyphName="acute" x="262" y="188" flags="0x4"/>
    </TTGlyph>
    <TTGlyph name="Oslashacute.sc" xMin="8" yMin="-54" xMax="772" yMax="861">
      <component glyphName="oslashacute.sc" x="0" y="0" flags="0x204"/>
    </TTGlyph>
    <TTGlyph name="Otilde" xMin="88" yMin="-18" xMax="800" yMax="950">
      <component glyphName="O" x="0" y="0" flags="0x204"/>
      <component glyphName="tilde" x="210" y="190" flags="0x4"/>
    </TTGlyph>
    <TTGlyph name="Otilde.sc" xMin="80" yMin="-18" xMax="700" yMax="825">
      <component glyphName="otilde.sc" x="0" y="0" flags="0x204"/>
    </TTGlyph>
    <TTGlyph name="P" xMin="68" yMin="0" xMax="734" yMax="700">
      <contour>
        <pt x="431" y="224" on="1"/>
        <pt x="190" y="224" on="1"/>
        <pt x="142" y="0" on="1"/>
        <pt x="68" y="0" on="1"/>
        <pt x="217" y="700" on="1"/>
        <pt x="503" y="700" on="1"/>
        <pt x="620" y="700" on="0"/>
        <pt x="734" y="589" on="0"/>
        <pt x="734" y="499" on="1"/>
        <pt x="734" y="439" on="0"/>
        <pt x="695" y="338" on="0"/>
        <pt x="619" y="265" on="0"/>
        <pt x="505" y="224" on="0"/>
      </contour>
      <contour>
        <pt x="430" y="293" on="1"/>
        <pt x="543" y="293" on="0"/>
        <pt x="658" y="406" on="0"/>
        <pt x="658" y="494" on="1"/>
        <pt x="658" y="558" on="0"/>
        <pt x="580" y="632" on="0"/>
        <pt x="499" y="632" on="1"/>
        <pt x="277" y="632" on="1"/>
        <pt x="205" y="293" on="1"/>
      </contour>
    </TTGlyph>
    <TTGlyph name="P.sc" xMin="68" yMin="0" xMax="636" yMax="575">
      <component glyphName="p.sc" x="0" y="0" flags="0x204"/>
    </TTGlyph>
    <TTGlyph name="Q" xMin="88" yMin="-31" xMax="800" yMax="718">
      <contour>
        <pt x="402" y="-18" on="1"/>
        <pt x="331" y="-18" on="0"/>
        <pt x="215" y="26" on="0"/>
        <pt x="133" y="107" on="0"/>
        <pt x="88" y="222" on="0"/>
        <pt x="88" y="293" on="1"/>
        <pt x="88" y="372" on="0"/>
        <pt x="140" y="525" on="0"/>
        <pt x="241" y="645" on="0"/>
        <pt x="391" y="718" on="0"/>
        <pt x="487" y="718" on="1"/>
        <pt x="558" y="718" on="0"/>
        <pt x="674" y="674" on="0"/>
        <pt x="755" y="593" on="0"/>
        <pt x="800" y="478" on="0"/>
        <pt x="800" y="407" on="1"/>
        <pt x="800" y="326" on="0"/>
        <pt x="744" y="168" on="0"/>
        <pt x="691" y="108" on="1"/>
        <pt x="753" y="43" on="1"/>
        <pt x="736" y="-31" on="1"/>
        <pt x="643" y="62" on="1"/>
        <pt x="596" y="25" on="0"/>
        <pt x="474" y="-18" on="0"/>
      </contour>
      <contour>
        <pt x="407" y="48" on="1"/>
        <pt x="464" y="48" on="0"/>
        <pt x="560" y="81" on="0"/>
        <pt x="597" y="110" on="1"/>
        <pt x="432" y="282" on="1"/>
        <pt x="474" y="330" on="1"/>
        <pt x="642" y="154" on="1"/>
        <pt x="683" y="203" on="0"/>
        <pt x="725" y="334" on="0"/>
        <pt x="725" y="403" on="1"/>
        <pt x="725" y="516" on="0"/>
        <pt x="595" y="650" on="0"/>
        <pt x="482" y="650" on="1"/>
        <pt x="405" y="650" on="0"/>
        <pt x="286" y="590" on="0"/>
        <pt x="206" y="491" on="0"/>
        <pt x="164" y="363" on="0"/>
        <pt x="164" y="297" on="1"/>
        <pt x="164" y="184" on="0"/>
        <pt x="294" y="48" on="0"/>
      </contour>
    </TTGlyph>
    <TTGlyph name="Q.sc" xMin="80" yMin="-31" xMax="700" yMax="593">
      <component glyphName="q.sc" x="0" y="0" flags="0x204"/>
    </TTGlyph>
    <TTGlyph name="R" xMin="68" yMin="0" xMax="735" yMax="700">
      <contour>
        <pt x="644" y="0" on="1"/>
        <pt x="560" y="0" on="1"/>
        <pt x="426" y="252" on="1"/>
        <pt x="196" y="252" on="1"/>
        <pt x="142" y="0" on="1"/>
        <pt x="68" y="0" on="1"/>
        <pt x="217" y="700" on="1"/>
        <pt x="505" y="700" on="1"/>
        <pt x="620" y="700" on="0"/>
        <pt x="735" y="594" on="0"/>
        <pt x="735" y="507" on="1"/>
        <pt x="735" y="411" on="0"/>
        <pt x="616" y="277" on="0"/>
        <pt x="503" y="258" on="1"/>
      </contour>
      <contour>
        <pt x="437" y="318" on="1"/>
        <pt x="544" y="318" on="0"/>
        <pt x="659" y="421" on="0"/>
        <pt x="659" y="502" on="1"/>
        <pt x="659" y="562" on="0"/>
        <pt x="580" y="632" on="0"/>
        <pt x="500" y="632" on="1"/>
        <pt x="277" y="632" on="1"/>
        <pt x="210" y="318" on="1"/>
      </contour>
    </TTGlyph>
    <TTGlyph name="R.sc" xMin="68" yMin="0" xMax="647" yMax="575">
      <component glyphName="r.sc" x="0" y="0" flags="0x204"/>
    </TTGlyph>
    <TTGlyph name="R_p" xMin="98" yMin="-186" xMax="1342" yMax="700">
      <contour>
        <pt x="223" y="249" on="1"/>
        <pt x="170" y="0" on="1"/>
        <pt x="98" y="0" on="1"/>
        <pt x="247" y="700" on="1"/>
        <pt x="522" y="700" on="1"/>
        <pt x="636" y="700" on="0"/>
        <pt x="754" y="593" on="0"/>
        <pt x="754" y="505" on="1"/>
        <pt x="754" y="409" on="0"/>
        <pt x="636" y="274" on="0"/>
        <pt x="523" y="256" on="1"/>
        <pt x="663" y="0" on="1"/>
        <pt x="579" y="0" on="1"/>
        <pt x="446" y="249" on="1"/>
      </contour>
      <contour>
        <pt x="457" y="314" on="1"/>
        <pt x="564" y="314" on="0"/>
        <pt x="680" y="418" on="0"/>
        <pt x="680" y="500" on="1"/>
        <pt x="680" y="563" on="0"/>
        <pt x="599" y="635" on="0"/>
        <pt x="519" y="635" on="1"/>
        <pt x="305" y="635" on="1"/>
        <pt x="237" y="314" on="1"/>
      </contour>
      <contour>
        <pt x="1158" y="540" on="1"/>
        <pt x="1236" y="540" on="0"/>
        <pt x="1342" y="438" on="0"/>
        <pt x="1342" y="336" on="1"/>
        <pt x="1342" y="266" on="0"/>
        <pt x="1299" y="139" on="0"/>
        <pt x="1222" y="43" on="0"/>
        <pt x="1114" y="-14" on="0"/>
        <pt x="1050" y="-14" on="1"/>
        <pt x="994" y="-14" on="0"/>
        <pt x="912" y="24" on="0"/>
        <pt x="884" y="55" on="1"/>
        <pt x="833" y="-186" on="1"/>
        <pt x="761" y="-186" on="1"/>
        <pt x="912" y="528" on="1"/>
        <pt x="984" y="528" on="1"/>
        <pt x="965" y="442" on="1"/>
        <pt x="1004" y="485" on="0"/>
        <pt x="1100" y="540" on="0"/>
      </contour>
      <contour>
        <pt x="1136" y="480" on="1"/>
        <pt x="1085" y="480" on="0"/>
        <pt x="993" y="428" on="0"/>
        <pt x="953" y="383" on="1"/>
        <pt x="899" y="125" on="1"/>
        <pt x="921" y="91" on="0"/>
        <pt x="997" y="47" on="0"/>
        <pt x="1048" y="47" on="1"/>
        <pt x="1099" y="47" on="0"/>
        <pt x="1182" y="95" on="0"/>
        <pt x="1239" y="172" on="0"/>
        <pt x="1270" y="274" on="0"/>
        <pt x="1270" y="328" on="1"/>
        <pt x="1270" y="405" on="0"/>
        <pt x="1195" y="480" on="0"/>
      </contour>
    </TTGlyph>
    <TTGlyph name="Racute" xMin="68" yMin="0" xMax="735" yMax="972">
      <component glyphName="R" x="0" y="0" flags="0x204"/>
      <component glyphName="acute" x="212" y="172" flags="0x4"/>
    </TTGlyph>
    <TTGlyph name="Racute.sc" xMin="68" yMin="0" xMax="647" yMax="847">
      <component glyphName="racute.sc" x="0" y="0" flags="0x204"/>
    </TTGlyph>
    <TTGlyph name="Rcaron" xMin="68" yMin="0" xMax="735" yMax="979">
      <component glyphName="R" x="0" y="0" flags="0x204"/>
      <component glyphName="caron" x="160" y="172" flags="0x4"/>
    </TTGlyph>
    <TTGlyph name="Rcaron.sc" xMin="68" yMin="0" xMax="647" yMax="854">
      <component glyphName="rcaron.sc" x="0" y="0" flags="0x204"/>
    </TTGlyph>
    <TTGlyph name="S" xMin="47" yMin="-16" xMax="692" yMax="716">
      <contour>
        <pt x="63" y="153" on="1"/>
        <pt x="120" y="110" on="0"/>
        <pt x="282" y="51" on="0"/>
        <pt x="366" y="51" on="1"/>
        <pt x="464" y="51" on="0"/>
        <pt x="559" y="127" on="0"/>
        <pt x="559" y="183" on="1"/>
        <pt x="559" y="212" on="0"/>
        <pt x="535" y="252" on="0"/>
        <pt x="487" y="282" on="0"/>
        <pt x="413" y="309" on="0"/>
        <pt x="363" y="325" on="1"/>
        <pt x="319" y="339" on="0"/>
        <pt x="239" y="369" on="0"/>
        <pt x="179" y="410" on="0"/>
        <pt x="143" y="469" on="0"/>
        <pt x="143" y="512" on="1"/>
        <pt x="143" y="554" on="0"/>
        <pt x="177" y="629" on="0"/>
        <pt x="244" y="684" on="0"/>
        <pt x="346" y="716" on="0"/>
        <pt x="414" y="716" on="1"/>
        <pt x="500" y="716" on="0"/>
        <pt x="641" y="668" on="0"/>
        <pt x="692" y="635" on="1"/>
        <pt x="677" y="563" on="1"/>
        <pt x="676" y="563" on="1"/>
        <pt x="621" y="603" on="0"/>
        <pt x="482" y="649" on="0"/>
        <pt x="410" y="649" on="1"/>
        <pt x="311" y="649" on="0"/>
        <pt x="218" y="573" on="0"/>
        <pt x="218" y="519" on="1"/>
        <pt x="218" y="463" on="0"/>
        <pt x="314" y="414" on="0"/>
        <pt x="400" y="387" on="1"/>
        <pt x="452" y="370" on="0"/>
        <pt x="539" y="337" on="0"/>
        <pt x="599" y="293" on="0"/>
        <pt x="633" y="232" on="0"/>
        <pt x="633" y="188" on="1"/>
        <pt x="633" y="146" on="0"/>
        <pt x="600" y="72" on="0"/>
        <pt x="533" y="16" on="0"/>
        <pt x="432" y="-16" on="0"/>
        <pt x="365" y="-16" on="1"/>
        <pt x="267" y="-16" on="0"/>
        <pt x="105" y="39" on="0"/>
        <pt x="47" y="80" on="1"/>
        <pt x="62" y="153" on="1"/>
      </contour>
    </TTGlyph>
    <TTGlyph name="S.sc" xMin="44" yMin="-16" xMax="598" yMax="590">
      <component glyphName="s.sc" x="0" y="0" flags="0x204"/>
    </TTGlyph>
    <TTGlyph name="Sacute" xMin="47" yMin="-16" xMax="706" yMax="987">
      <component glyphName="S" x="0" y="0" flags="0x204"/>
      <component glyphName="acute" x="209" y="187" flags="0x4"/>
    </TTGlyph>
    <TTGlyph name="Sacute.sc" xMin="44" yMin="-16" xMax="630" yMax="862">
      <component glyphName="sacute.sc" x="0" y="0" flags="0x204"/>
    </TTGlyph>
    <TTGlyph name="Scaron" xMin="47" yMin="-16" xMax="716" yMax="994">
      <component glyphName="S" x="0" y="0" flags="0x204"/>
      <component glyphName="caron" x="157" y="187" flags="0x4"/>
    </TTGlyph>
    <TTGlyph name="Scaron.sc" xMin="44" yMin="-16" xMax="639" yMax="869">
      <component glyphName="scaron.sc" x="0" y="0" flags="0x204"/>
    </TTGlyph>
    <TTGlyph name="Scedilla" xMin="47" yMin="-191" xMax="692" yMax="716">
      <contour>
        <pt x="63" y="153" on="1"/>
        <pt x="120" y="110" on="0"/>
        <pt x="282" y="51" on="0"/>
        <pt x="366" y="51" on="1"/>
        <pt x="464" y="51" on="0"/>
        <pt x="559" y="127" on="0"/>
        <pt x="559" y="183" on="1"/>
        <pt x="559" y="212" on="0"/>
        <pt x="535" y="252" on="0"/>
        <pt x="487" y="282" on="0"/>
        <pt x="413" y="309" on="0"/>
        <pt x="363" y="325" on="1"/>
        <pt x="319" y="339" on="0"/>
        <pt x="239" y="369" on="0"/>
        <pt x="179" y="410" on="0"/>
        <pt x="143" y="469" on="0"/>
        <pt x="143" y="512" on="1"/>
        <pt x="143" y="554" on="0"/>
        <pt x="177" y="629" on="0"/>
        <pt x="244" y="684" on="0"/>
        <pt x="346" y="716" on="0"/>
        <pt x="414" y="716" on="1"/>
        <pt x="500" y="716" on="0"/>
        <pt x="641" y="668" on="0"/>
        <pt x="692" y="635" on="1"/>
        <pt x="677" y="563" on="1"/>
        <pt x="676" y="563" on="1"/>
        <pt x="621" y="603" on="0"/>
        <pt x="482" y="649" on="0"/>
        <pt x="410" y="649" on="1"/>
        <pt x="311" y="649" on="0"/>
        <pt x="218" y="573" on="0"/>
        <pt x="218" y="519" on="1"/>
        <pt x="218" y="463" on="0"/>
        <pt x="314" y="414" on="0"/>
        <pt x="400" y="387" on="1"/>
        <pt x="452" y="370" on="0"/>
        <pt x="539" y="337" on="0"/>
        <pt x="599" y="293" on="0"/>
        <pt x="633" y="232" on="0"/>
        <pt x="633" y="188" on="1"/>
        <pt x="633" y="147" on="0"/>
        <pt x="602" y="74" on="0"/>
        <pt x="539" y="20" on="0"/>
        <pt x="444" y="-14" on="0"/>
        <pt x="381" y="-16" on="1"/>
        <pt x="231" y="-191" on="1"/>
        <pt x="137" y="-191" on="1"/>
        <pt x="138" y="-188" on="1"/>
        <pt x="318" y="-14" on="1"/>
        <pt x="236" y="-8" on="0"/>
        <pt x="98" y="44" on="0"/>
        <pt x="47" y="80" on="1"/>
        <pt x="62" y="153" on="1"/>
      </contour>
    </TTGlyph>
    <TTGlyph name="Scedilla.sc" xMin="44" yMin="-192" xMax="598" yMax="590">
      <component glyphName="scedilla.sc" x="0" y="0" flags="0x204"/>
    </TTGlyph>
    <TTGlyph name="T" xMin="118" yMin="0" xMax="746" yMax="700">
      <contour>
        <pt x="745" y="631" on="1"/>
        <pt x="472" y="631" on="1"/>
        <pt x="338" y="0" on="1"/>
        <pt x="263" y="0" on="1"/>
        <pt x="397" y="631" on="1"/>
        <pt x="118" y="631" on="1"/>
        <pt x="140" y="700" on="1"/>
        <pt x="746" y="700" on="1"/>
      </contour>
    </TTGlyph>
    <TTGlyph name="T.sc" xMin="96" yMin="0" xMax="657" yMax="575">
      <component glyphName="t.sc" x="0" y="0" flags="0x204"/>
    </TTGlyph>
    <TTGlyph name="Tcaron" xMin="118" yMin="0" xMax="746" yMax="979">
      <component glyphName="T" x="0" y="0" flags="0x204"/>
      <component glyphName="caron" x="142" y="172" flags="0x4"/>
    </TTGlyph>
    <TTGlyph name="Tcaron.sc" xMin="96" yMin="0" xMax="676" yMax="854">
      <component glyphName="tcaron.sc" x="0" y="0" flags="0x204"/>
    </TTGlyph>
    <TTGlyph name="Thorn" xMin="68" yMin="0" xMax="717" yMax="700">
      <contour>
        <pt x="217" y="700" on="1"/>
        <pt x="291" y="700" on="1"/>
        <pt x="267" y="585" on="1"/>
        <pt x="483" y="585" on="1"/>
        <pt x="602" y="585" on="0"/>
        <pt x="717" y="477" on="0"/>
        <pt x="717" y="388" on="1"/>
        <pt x="717" y="329" on="0"/>
        <pt x="678" y="230" on="0"/>
        <pt x="602" y="159" on="0"/>
        <pt x="489" y="120" on="0"/>
        <pt x="415" y="120" on="1"/>
        <pt x="168" y="120" on="1"/>
        <pt x="142" y="0" on="1"/>
        <pt x="68" y="0" on="1"/>
      </contour>
      <contour>
        <pt x="253" y="516" on="1"/>
        <pt x="182" y="188" on="1"/>
        <pt x="414" y="188" on="1"/>
        <pt x="527" y="188" on="0"/>
        <pt x="641" y="296" on="0"/>
        <pt x="641" y="383" on="1"/>
        <pt x="641" y="446" on="0"/>
        <pt x="562" y="516" on="0"/>
        <pt x="480" y="516" on="1"/>
      </contour>
    </TTGlyph>
    <TTGlyph name="Thorn.sc" xMin="68" yMin="0" xMax="624" yMax="575">
      <component glyphName="thorn.sc" x="0" y="0" flags="0x204"/>
    </TTGlyph>
    <TTGlyph name="U" xMin="106" yMin="-16" xMax="796" yMax="700">
      <contour>
        <pt x="373" y="-16" on="1"/>
        <pt x="252" y="-16" on="0"/>
        <pt x="106" y="88" on="0"/>
        <pt x="106" y="195" on="1"/>
        <pt x="106" y="220" on="0"/>
        <pt x="112" y="270" on="0"/>
        <pt x="119" y="301" on="1"/>
        <pt x="204" y="700" on="1"/>
        <pt x="279" y="700" on="1"/>
        <pt x="193" y="293" on="1"/>
        <pt x="187" y="268" on="0"/>
        <pt x="181" y="226" on="0"/>
        <pt x="181" y="204" on="1"/>
        <pt x="181" y="126" on="0"/>
        <pt x="288" y="53" on="0"/>
        <pt x="376" y="53" on="1"/>
        <pt x="480" y="53" on="0"/>
        <pt x="605" y="154" on="0"/>
        <pt x="628" y="260" on="1"/>
        <pt x="721" y="700" on="1"/>
        <pt x="796" y="700" on="1"/>
        <pt x="700" y="247" on="1"/>
        <pt x="672" y="114" on="0"/>
        <pt x="507" y="-16" on="0"/>
      </contour>
    </TTGlyph>
    <TTGlyph name="U.sc" xMin="96" yMin="-16" xMax="689" yMax="575">
      <component glyphName="u.sc" x="0" y="0" flags="0x204"/>
    </TTGlyph>
    <TTGlyph name="Uacute" xMin="106" yMin="-16" xMax="796" yMax="948">
      <component glyphName="U" x="0" y="0" flags="0x204"/>
      <component glyphName="acute" x="238" y="148" flags="0x4"/>
    </TTGlyph>
    <TTGlyph name="Uacute.sc" xMin="96" yMin="-16" xMax="689" yMax="823">
      <component glyphName="uacute.sc" x="0" y="0" flags="0x204"/>
    </TTGlyph>
    <TTGlyph name="Ubreve" xMin="106" yMin="-16" xMax="796" yMax="956">
      <component glyphName="U" x="0" y="0" flags="0x204"/>
      <component glyphName="breve" x="185" y="148" flags="0x4"/>
    </TTGlyph>
    <TTGlyph name="Ubreve.sc" xMin="96" yMin="-16" xMax="689" yMax="831">
      <component glyphName="ubreve.sc" x="0" y="0" flags="0x204"/>
    </TTGlyph>
    <TTGlyph name="Ucircumflex" xMin="106" yMin="-16" xMax="796" yMax="979">
      <component glyphName="U" x="0" y="0" flags="0x204"/>
      <component glyphName="circumflex" x="190" y="172" flags="0x4"/>
    </TTGlyph>
    <TTGlyph name="Ucircumflex.sc" xMin="96" yMin="-16" xMax="689" yMax="854">
      <component glyphName="ucircumflex.sc" x="0" y="0" flags="0x204"/>
    </TTGlyph>
    <TTGlyph name="Udieresis" xMin="106" yMin="-16" xMax="796" yMax="901">
      <component glyphName="U" x="0" y="0" flags="0x204"/>
      <component glyphName="dieresis" x="190" y="172" flags="0x4"/>
    </TTGlyph>
    <TTGlyph name="Udieresis.sc" xMin="96" yMin="-16" xMax="689" yMax="776">
      <component glyphName="udieresis.sc" x="0" y="0" flags="0x204"/>
    </TTGlyph>
    <TTGlyph name="Ugrave" xMin="106" yMin="-16" xMax="796" yMax="948">
      <component glyphName="U" x="0" y="0" flags="0x204"/>
      <component glyphName="grave" x="132" y="148" flags="0x4"/>
    </TTGlyph>
    <TTGlyph name="Ugrave.sc" xMin="96" yMin="-16" xMax="689" yMax="823">
      <component glyphName="ugrave.sc" x="0" y="0" flags="0x204"/>
    </TTGlyph>
    <TTGlyph name="Uhungarumlaut" xMin="106" yMin="-16" xMax="845" yMax="972">
      <component glyphName="U" x="0" y="0" flags="0x204"/>
      <component glyphName="hungarumlaut" x="252" y="172" flags="0x4"/>
    </TTGlyph>
    <TTGlyph name="Uhungarumlaut.sc" xMin="96" yMin="-16" xMax="742" yMax="847">
      <component glyphName="uhungarumlaut.sc" x="0" y="0" flags="0x204"/>
    </TTGlyph>
    <TTGlyph name="Umacron" xMin="106" yMin="-16" xMax="796" yMax="882">
      <component glyphName="U" x="0" y="0" flags="0x204"/>
      <component glyphName="macron" x="190" y="172" flags="0x4"/>
    </TTGlyph>
    <TTGlyph name="Umacron.sc" xMin="96" yMin="-16" xMax="689" yMax="757">
      <component glyphName="umacron.sc" x="0" y="0" flags="0x204"/>
    </TTGlyph>
    <TTGlyph name="Uogonek" xMin="106" yMin="-297" xMax="796" yMax="700">
      <contour>
        <pt x="426" y="-269" on="1"/>
        <pt x="402" y="-283" on="0"/>
        <pt x="350" y="-297" on="0"/>
        <pt x="322" y="-297" on="1"/>
        <pt x="267" y="-297" on="0"/>
        <pt x="205" y="-246" on="0"/>
        <pt x="205" y="-206" on="1"/>
        <pt x="205" y="-163" on="0"/>
        <pt x="268" y="-84" on="0"/>
        <pt x="330" y="-33" on="1"/>
        <pt x="352" y="-16" on="1"/>
        <pt x="240" y="-12" on="0"/>
        <pt x="106" y="93" on="0"/>
        <pt x="106" y="195" on="1"/>
        <pt x="106" y="220" on="0"/>
        <pt x="112" y="270" on="0"/>
        <pt x="119" y="301" on="1"/>
        <pt x="204" y="700" on="1"/>
        <pt x="279" y="700" on="1"/>
        <pt x="193" y="293" on="1"/>
        <pt x="187" y="268" on="0"/>
        <pt x="181" y="226" on="0"/>
        <pt x="181" y="204" on="1"/>
        <pt x="181" y="126" on="0"/>
        <pt x="288" y="53" on="0"/>
        <pt x="376" y="53" on="1"/>
        <pt x="480" y="53" on="0"/>
        <pt x="605" y="154" on="0"/>
        <pt x="628" y="260" on="1"/>
        <pt x="721" y="700" on="1"/>
        <pt x="796" y="700" on="1"/>
        <pt x="700" y="247" on="1"/>
        <pt x="675" y="130" on="0"/>
        <pt x="541" y="1" on="0"/>
        <pt x="434" y="-12" on="1"/>
        <pt x="369" y="-65" on="1"/>
        <pt x="316" y="-110" on="0"/>
        <pt x="273" y="-167" on="0"/>
        <pt x="273" y="-193" on="1"/>
        <pt x="273" y="-215" on="0"/>
        <pt x="306" y="-241" on="0"/>
        <pt x="338" y="-241" on="1"/>
        <pt x="363" y="-241" on="0"/>
        <pt x="413" y="-225" on="0"/>
        <pt x="438" y="-211" on="1"/>
      </contour>
    </TTGlyph>
    <TTGlyph name="Uogonek.sc" xMin="96" yMin="-291" xMax="689" yMax="575">
      <component glyphName="uogonek.sc" x="0" y="0" flags="0x204"/>
    </TTGlyph>
    <TTGlyph name="Uring" xMin="106" yMin="-16" xMax="796" yMax="1040">
      <component glyphName="U" x="0" y="0" flags="0x204"/>
      <component glyphName="ring" x="130" y="148" flags="0x4"/>
    </TTGlyph>
    <TTGlyph name="Uring.sc" xMin="96" yMin="-16" xMax="689" yMax="915">
      <component glyphName="uring.sc" x="0" y="0" flags="0x204"/>
    </TTGlyph>
    <TTGlyph name="V" xMin="147" yMin="0" xMax="814" yMax="700">
      <contour>
        <pt x="255" y="0" on="1"/>
        <pt x="147" y="700" on="1"/>
        <pt x="225" y="700" on="1"/>
        <pt x="322" y="71" on="1"/>
        <pt x="365" y="71" on="1"/>
        <pt x="729" y="700" on="1"/>
        <pt x="814" y="700" on="1"/>
        <pt x="407" y="0" on="1"/>
      </contour>
    </TTGlyph>
    <TTGlyph name="V.sc" xMin="124" yMin="0" xMax="697" yMax="575">
      <component glyphName="v.sc" x="0" y="0" flags="0x204"/>
    </TTGlyph>
    <TTGlyph name="W" xMin="164" yMin="0" xMax="1203" yMax="700">
      <contour>
        <pt x="208" y="0" on="1"/>
        <pt x="164" y="700" on="1"/>
        <pt x="239" y="700" on="1"/>
        <pt x="277" y="76" on="1"/>
        <pt x="312" y="76" on="1"/>
        <pt x="635" y="700" on="1"/>
        <pt x="725" y="700" on="1"/>
        <pt x="785" y="76" on="1"/>
        <pt x="820" y="76" on="1"/>
        <pt x="1122" y="700" on="1"/>
        <pt x="1203" y="700" on="1"/>
        <pt x="858" y="0" on="1"/>
        <pt x="723" y="0" on="1"/>
        <pt x="668" y="598" on="1"/>
        <pt x="654" y="598" on="1"/>
        <pt x="345" y="0" on="1"/>
      </contour>
    </TTGlyph>
    <TTGlyph name="W.sc" xMin="124" yMin="0" xMax="1037" yMax="575">
      <component glyphName="w.sc" x="0" y="0" flags="0x204"/>
    </TTGlyph>
    <TTGlyph name="Wacute" xMin="164" yMin="0" xMax="1203" yMax="972">
      <component glyphName="W" x="0" y="0" flags="0x204"/>
      <component glyphName="acute" x="435" y="172" flags="0x4"/>
    </TTGlyph>
    <TTGlyph name="Wacute.sc" xMin="124" yMin="0" xMax="1037" yMax="847">
      <component glyphName="wacute.sc" x="0" y="0" flags="0x204"/>
    </TTGlyph>
    <TTGlyph name="Wcircumflex" xMin="164" yMin="0" xMax="1203" yMax="979">
      <component glyphName="W" x="0" y="0" flags="0x204"/>
      <component glyphName="circumflex" x="366" y="172" flags="0x4"/>
    </TTGlyph>
    <TTGlyph name="Wcircumflex.sc" xMin="124" yMin="0" xMax="1037" yMax="854">
      <component glyphName="wcircumflex.sc" x="0" y="0" flags="0x204"/>
    </TTGlyph>
    <TTGlyph name="Wdieresis" xMin="164" yMin="0" xMax="1203" yMax="901">
      <component glyphName="W" x="0" y="0" flags="0x204"/>
      <component glyphName="dieresis" x="366" y="172" flags="0x4"/>
    </TTGlyph>
    <TTGlyph name="Wdieresis.sc" xMin="124" yMin="0" xMax="1037" yMax="776">
      <component glyphName="wdieresis.sc" x="0" y="0" flags="0x204"/>
    </TTGlyph>
    <TTGlyph name="Wgrave" xMin="164" yMin="0" xMax="1203" yMax="972">
      <component glyphName="W" x="0" y="0" flags="0x204"/>
      <component glyphName="grave" x="301" y="172" flags="0x4"/>
    </TTGlyph>
    <TTGlyph name="Wgrave.sc" xMin="124" yMin="0" xMax="1037" yMax="847">
      <component glyphName="wgrave.sc" x="0" y="0" flags="0x204"/>
    </TTGlyph>
    <TTGlyph name="X" xMin="8" yMin="0" xMax="791" yMax="700">
      <contour>
        <pt x="8" y="1" on="1"/>
        <pt x="366" y="370" on="1"/>
        <pt x="176" y="699" on="1"/>
        <pt x="176" y="700" on="1"/>
        <pt x="257" y="700" on="1"/>
        <pt x="422" y="413" on="1"/>
        <pt x="699" y="700" on="1"/>
        <pt x="791" y="700" on="1"/>
        <pt x="791" y="699" on="1"/>
        <pt x="458" y="355" on="1"/>
        <pt x="662" y="1" on="1"/>
        <pt x="662" y="0" on="1"/>
        <pt x="581" y="0" on="1"/>
        <pt x="402" y="314" on="1"/>
        <pt x="100" y="0" on="1"/>
        <pt x="8" y="0" on="1"/>
      </contour>
    </TTGlyph>
    <TTGlyph name="X.sc" xMin="4" yMin="0" xMax="668" yMax="575">
      <component glyphName="x.sc" x="0" y="0" flags="0x204"/>
    </TTGlyph>
    <TTGlyph name="Y" xMin="129" yMin="0" xMax="814" yMax="700">
      <contour>
        <pt x="722" y="700" on="1"/>
        <pt x="814" y="700" on="1"/>
        <pt x="408" y="231" on="1"/>
        <pt x="359" y="0" on="1"/>
        <pt x="284" y="0" on="1"/>
        <pt x="334" y="232" on="1"/>
        <pt x="129" y="700" on="1"/>
        <pt x="207" y="700" on="1"/>
        <pt x="380" y="304" on="1"/>
        <pt x="381" y="304" on="1"/>
      </contour>
    </TTGlyph>
    <TTGlyph name="Y.sc" xMin="100" yMin="0" xMax="694" yMax="575">
      <component glyphName="y.sc" x="0" y="0" flags="0x204"/>
    </TTGlyph>
    <TTGlyph name="Yacute" xMin="129" yMin="0" xMax="814" yMax="948">
      <component glyphName="Y" x="0" y="0" flags="0x204"/>
      <component glyphName="acute" x="205" y="148" flags="0x4"/>
    </TTGlyph>
    <TTGlyph name="Yacute.sc" xMin="100" yMin="0" xMax="694" yMax="823">
      <component glyphName="yacute.sc" x="0" y="0" flags="0x204"/>
    </TTGlyph>
    <TTGlyph name="Ycircumflex" xMin="129" yMin="0" xMax="814" yMax="979">
      <component glyphName="Y" x="0" y="0" flags="0x204"/>
      <component glyphName="circumflex" x="157" y="172" flags="0x4"/>
    </TTGlyph>
    <TTGlyph name="Ycircumflex.sc" xMin="100" yMin="0" xMax="694" yMax="854">
      <component glyphName="ycircumflex.sc" x="0" y="0" flags="0x204"/>
    </TTGlyph>
    <TTGlyph name="Ydieresis" xMin="129" yMin="0" xMax="814" yMax="901">
      <component glyphName="Y" x="0" y="0" flags="0x204"/>
      <component glyphName="dieresis" x="157" y="172" flags="0x4"/>
    </TTGlyph>
    <TTGlyph name="Ydieresis.sc" xMin="100" yMin="0" xMax="694" yMax="776">
      <component glyphName="ydieresis.sc" x="0" y="0" flags="0x204"/>
    </TTGlyph>
    <TTGlyph name="Ygrave" xMin="129" yMin="0" xMax="814" yMax="948">
      <component glyphName="Y" x="0" y="0" flags="0x204"/>
      <component glyphName="grave" x="99" y="148" flags="0x4"/>
    </TTGlyph>
    <TTGlyph name="Ygrave.sc" xMin="100" yMin="0" xMax="694" yMax="823">
      <component glyphName="ygrave.sc" x="0" y="0" flags="0x204"/>
    </TTGlyph>
    <TTGlyph name="Z" xMin="22" yMin="0" xMax="760" yMax="700">
      <contour>
        <pt x="22" y="0" on="1"/>
        <pt x="37" y="71" on="1"/>
        <pt x="644" y="633" on="1"/>
        <pt x="167" y="633" on="1"/>
        <pt x="189" y="700" on="1"/>
        <pt x="760" y="700" on="1"/>
        <pt x="746" y="635" on="1"/>
        <pt x="133" y="67" on="1"/>
        <pt x="629" y="67" on="1"/>
        <pt x="615" y="0" on="1"/>
      </contour>
    </TTGlyph>
    <TTGlyph name="Z.sc" xMin="32" yMin="0" xMax="653" yMax="575">
      <component glyphName="z.sc" x="0" y="0" flags="0x204"/>
    </TTGlyph>
    <TTGlyph name="Zacute" xMin="22" yMin="0" xMax="760" yMax="972">
      <component glyphName="Z" x="0" y="0" flags="0x204"/>
      <component glyphName="acute" x="212" y="172" flags="0x4"/>
    </TTGlyph>
    <TTGlyph name="Zacute.sc" xMin="32" yMin="0" xMax="653" yMax="847">
      <component glyphName="zacute.sc" x="0" y="0" flags="0x204"/>
    </TTGlyph>
    <TTGlyph name="Zcaron" xMin="22" yMin="0" xMax="760" yMax="979">
      <component glyphName="Z" x="0" y="0" flags="0x204"/>
      <component glyphName="caron" x="160" y="172" flags="0x4"/>
    </TTGlyph>
    <TTGlyph name="Zcaron.sc" xMin="32" yMin="0" xMax="653" yMax="854">
      <component glyphName="zcaron.sc" x="0" y="0" flags="0x204"/>
    </TTGlyph>
    <TTGlyph name="Zdotaccent" xMin="22" yMin="0" xMax="760" yMax="904">
      <component glyphName="Z" x="0" y="0" flags="0x204"/>
      <component glyphName="dotaccent" x="159" y="172" flags="0x4"/>
    </TTGlyph>
    <TTGlyph name="Zdotaccent.sc" xMin="32" yMin="0" xMax="653" yMax="779">
      <component glyphName="zdotaccent.sc" x="0" y="0" flags="0x204"/>
    </TTGlyph>
    <TTGlyph name="a" xMin="43" yMin="-13" xMax="527" yMax="542">
      <contour>
        <pt x="324" y="480" on="1"/>
        <pt x="276" y="480" on="0"/>
        <pt x="174" y="449" on="0"/>
        <pt x="129" y="420" on="1"/>
        <pt x="128" y="420" on="1"/>
        <pt x="142" y="490" on="1"/>
        <pt x="185" y="515" on="0"/>
        <pt x="284" y="542" on="0"/>
        <pt x="338" y="542" on="1"/>
        <pt x="432" y="542" on="0"/>
        <pt x="527" y="459" on="0"/>
        <pt x="527" y="388" on="1"/>
        <pt x="527" y="372" on="0"/>
        <pt x="521" y="334" on="0"/>
        <pt x="517" y="312" on="1"/>
        <pt x="451" y="0" on="1"/>
        <pt x="386" y="0" on="1"/>
        <pt x="402" y="86" on="1"/>
        <pt x="360" y="43" on="0"/>
        <pt x="255" y="-13" on="0"/>
        <pt x="193" y="-13" on="1"/>
        <pt x="123" y="-13" on="0"/>
        <pt x="43" y="58" on="0"/>
        <pt x="43" y="117" on="1"/>
        <pt x="43" y="145" on="0"/>
        <pt x="63" y="203" on="0"/>
        <pt x="88" y="229" on="1"/>
        <pt x="131" y="272" on="0"/>
        <pt x="293" y="310" on="0"/>
        <pt x="420" y="310" on="1"/>
        <pt x="446" y="310" on="1"/>
        <pt x="448" y="321" on="1"/>
        <pt x="452" y="341" on="0"/>
        <pt x="456" y="367" on="0"/>
        <pt x="456" y="381" on="1"/>
        <pt x="456" y="424" on="0"/>
        <pt x="392" y="480" on="0"/>
      </contour>
      <contour>
        <pt x="114" y="125" on="1"/>
        <pt x="114" y="88" on="0"/>
        <pt x="164" y="43" on="0"/>
        <pt x="212" y="43" on="1"/>
        <pt x="268" y="43" on="0"/>
        <pt x="368" y="101" on="0"/>
        <pt x="410" y="140" on="1"/>
        <pt x="435" y="261" on="1"/>
        <pt x="325" y="262" on="0"/>
        <pt x="179" y="234" on="0"/>
        <pt x="145" y="200" on="1"/>
        <pt x="128" y="183" on="0"/>
        <pt x="114" y="144" on="0"/>
      </contour>
    </TTGlyph>
    <TTGlyph name="a.sc" xMin="12" yMin="0" xMax="610" yMax="575">
      <contour>
        <pt x="538" y="0" on="1"/>
        <pt x="513" y="149" on="1"/>
        <pt x="181" y="149" on="1"/>
        <pt x="92" y="0" on="1"/>
        <pt x="12" y="0" on="1"/>
        <pt x="359" y="575" on="1"/>
        <pt x="507" y="575" on="1"/>
        <pt x="610" y="0" on="1"/>
      </contour>
      <contour>
        <pt x="400" y="511" on="1"/>
        <pt x="218" y="210" on="1"/>
        <pt x="502" y="210" on="1"/>
        <pt x="450" y="511" on="1"/>
      </contour>
    </TTGlyph>
    <TTGlyph name="aacute" xMin="43" yMin="-13" xMax="588" yMax="814">
      <component glyphName="a" x="0" y="0" flags="0x204"/>
      <component glyphName="acute" x="91" y="14" flags="0x4"/>
    </TTGlyph>
    <TTGlyph name="aacute.sc" xMin="12" yMin="0" xMax="679" yMax="847">
      <component glyphName="a.sc" x="0" y="0" flags="0x204"/>
      <component glyphName="acute" x="182" y="47" flags="0x4"/>
    </TTGlyph>
    <TTGlyph name="abreve" xMin="43" yMin="-13" xMax="564" yMax="822">
      <component glyphName="a" x="0" y="0" flags="0x204"/>
      <component glyphName="breve" x="38" y="14" flags="0x4"/>
    </TTGlyph>
    <TTGlyph name="abreve.sc" xMin="12" yMin="0" xMax="655" yMax="855">
      <component glyphName="a.sc" x="0" y="0" flags="0x204"/>
      <component glyphName="breve" x="129" y="47" flags="0x4"/>
    </TTGlyph>
    <TTGlyph name="acircumflex" xMin="43" yMin="-13" xMax="562" yMax="821">
      <component glyphName="a" x="0" y="0" flags="0x204"/>
      <component glyphName="circumflex" x="38" y="14" flags="0x4"/>
    </TTGlyph>
    <TTGlyph name="acircumflex.sc" xMin="12" yMin="0" xMax="653" yMax="854">
      <component glyphName="a.sc" x="0" y="0" flags="0x204"/>
      <component glyphName="circumflex" x="129" y="47" flags="0x4"/>
    </TTGlyph>
    <TTGlyph name="acute" xMin="229" yMin="636" xMax="497" yMax="800">
      <contour>
        <pt x="300" y="636" on="1"/>
        <pt x="229" y="636" on="1"/>
        <pt x="396" y="800" on="1"/>
        <pt x="497" y="800" on="1"/>
        <pt x="496" y="797" on="1"/>
      </contour>
    </TTGlyph>
    <TTGlyph name="adieresis" xMin="43" yMin="-13" xMax="552" yMax="743">
      <component glyphName="a" x="0" y="0" flags="0x204"/>
      <component glyphName="dieresis" x="38" y="14" flags="0x4"/>
    </TTGlyph>
    <TTGlyph name="adieresis.sc" xMin="12" yMin="0" xMax="643" yMax="776">
      <component glyphName="a.sc" x="0" y="0" flags="0x204"/>
      <component glyphName="dieresis" x="129" y="47" flags="0x4"/>
    </TTGlyph>
    <TTGlyph name="ae" xMin="42" yMin="-13" xMax="915" yMax="542">
      <contour>
        <pt x="722" y="542" on="1"/>
        <pt x="812" y="542" on="0"/>
        <pt x="915" y="436" on="0"/>
        <pt x="915" y="348" on="1"/>
        <pt x="915" y="325" on="0"/>
        <pt x="908" y="280" on="0"/>
        <pt x="901" y="257" on="1"/>
        <pt x="505" y="257" on="1"/>
        <pt x="504" y="250" on="0"/>
        <pt x="503" y="234" on="0"/>
        <pt x="503" y="226" on="1"/>
        <pt x="502" y="215" on="1"/>
        <pt x="502" y="128" on="0"/>
        <pt x="601" y="47" on="0"/>
        <pt x="679" y="47" on="1"/>
        <pt x="730" y="47" on="0"/>
        <pt x="825" y="80" on="0"/>
        <pt x="867" y="108" on="1"/>
        <pt x="868" y="108" on="1"/>
        <pt x="853" y="38" on="1"/>
        <pt x="816" y="16" on="0"/>
        <pt x="724" y="-13" on="0"/>
        <pt x="670" y="-13" on="1"/>
        <pt x="590" y="-13" on="0"/>
        <pt x="476" y="52" on="0"/>
        <pt x="451" y="113" on="1"/>
        <pt x="398" y="61" on="0"/>
        <pt x="274" y="-13" on="0"/>
        <pt x="195" y="-13" on="1"/>
        <pt x="122" y="-13" on="0"/>
        <pt x="42" y="59" on="0"/>
        <pt x="42" y="117" on="1"/>
        <pt x="42" y="145" on="0"/>
        <pt x="61" y="200" on="0"/>
        <pt x="86" y="225" on="1"/>
        <pt x="129" y="268" on="0"/>
        <pt x="293" y="308" on="0"/>
        <pt x="421" y="308" on="1"/>
        <pt x="444" y="308" on="1"/>
        <pt x="451" y="335" on="0"/>
        <pt x="455" y="364" on="0"/>
        <pt x="455" y="381" on="1"/>
        <pt x="455" y="424" on="0"/>
        <pt x="391" y="480" on="0"/>
        <pt x="323" y="480" on="1"/>
        <pt x="275" y="480" on="0"/>
        <pt x="173" y="449" on="0"/>
        <pt x="128" y="420" on="1"/>
        <pt x="127" y="420" on="1"/>
        <pt x="141" y="490" on="1"/>
        <pt x="184" y="515" on="0"/>
        <pt x="283" y="542" on="0"/>
        <pt x="337" y="542" on="1"/>
        <pt x="421" y="542" on="0"/>
        <pt x="499" y="476" on="0"/>
        <pt x="512" y="436" on="1"/>
        <pt x="551" y="485" on="0"/>
        <pt x="660" y="542" on="0"/>
      </contour>
      <contour>
        <pt x="716" y="483" on="1"/>
        <pt x="645" y="482" on="0"/>
        <pt x="535" y="385" on="0"/>
        <pt x="514" y="306" on="1"/>
        <pt x="844" y="306" on="1"/>
        <pt x="846" y="316" on="0"/>
        <pt x="848" y="338" on="0"/>
        <pt x="848" y="350" on="1"/>
        <pt x="848" y="410" on="0"/>
        <pt x="782" y="484" on="0"/>
      </contour>
      <contour>
        <pt x="113" y="126" on="1"/>
        <pt x="113" y="88" on="0"/>
        <pt x="164" y="43" on="0"/>
        <pt x="212" y="43" on="1"/>
        <pt x="280" y="43" on="0"/>
        <pt x="388" y="113" on="0"/>
        <pt x="437" y="161" on="1"/>
        <pt x="435" y="173" on="0"/>
        <pt x="433" y="199" on="0"/>
        <pt x="433" y="212" on="1"/>
        <pt x="433" y="225" on="0"/>
        <pt x="434" y="248" on="0"/>
        <pt x="435" y="259" on="1"/>
        <pt x="323" y="259" on="0"/>
        <pt x="177" y="230" on="0"/>
        <pt x="143" y="196" on="1"/>
        <pt x="127" y="180" on="0"/>
        <pt x="113" y="144" on="0"/>
      </contour>
    </TTGlyph>
    <TTGlyph name="ae.sc" xMin="-16" yMin="0" xMax="1038" yMax="575">
      <contour>
        <pt x="960" y="62" on="1"/>
        <pt x="938" y="0" on="1"/>
        <pt x="476" y="0" on="1"/>
        <pt x="508" y="153" on="1"/>
        <pt x="200" y="153" on="1"/>
        <pt x="71" y="0" on="1"/>
        <pt x="-16" y="0" on="1"/>
        <pt x="470" y="575" on="1"/>
        <pt x="1038" y="575" on="1"/>
        <pt x="1037" y="513" on="1"/>
        <pt x="656" y="513" on="1"/>
        <pt x="616" y="325" on="1"/>
        <pt x="925" y="325" on="1"/>
        <pt x="912" y="264" on="1"/>
        <pt x="603" y="264" on="1"/>
        <pt x="560" y="62" on="1"/>
      </contour>
      <contour>
        <pt x="502" y="512" on="1"/>
        <pt x="251" y="214" on="1"/>
        <pt x="521" y="214" on="1"/>
        <pt x="585" y="512" on="1"/>
      </contour>
    </TTGlyph>
    <TTGlyph name="aeacute" xMin="42" yMin="-13" xMax="915" yMax="799">
      <component glyphName="ae" x="0" y="0" flags="0x204"/>
      <component glyphName="acute" x="294" y="-1" flags="0x4"/>
    </TTGlyph>
    <TTGlyph name="aeacute.sc" xMin="-16" yMin="0" xMax="1038" yMax="847">
      <component glyphName="ae.sc" x="0" y="0" flags="0x204"/>
      <component glyphName="acute" x="409" y="47" flags="0x4"/>
    </TTGlyph>
    <TTGlyph name="agrave" xMin="43" yMin="-13" xMax="527" yMax="814">
      <component glyphName="a" x="0" y="0" flags="0x204"/>
      <component glyphName="grave" x="-16" y="14" flags="0x4"/>
    </TTGlyph>
    <TTGlyph name="agrave.sc" xMin="12" yMin="0" xMax="610" yMax="847">
      <component glyphName="a.sc" x="0" y="0" flags="0x204"/>
      <component glyphName="grave" x="76" y="47" flags="0x4"/>
    </TTGlyph>
    <TTGlyph name="amacron" xMin="43" yMin="-13" xMax="560" yMax="724">
      <component glyphName="a" x="0" y="0" flags="0x204"/>
      <component glyphName="macron" x="38" y="14" flags="0x4"/>
    </TTGlyph>
    <TTGlyph name="amacron.sc" xMin="12" yMin="0" xMax="651" yMax="757">
      <component glyphName="a.sc" x="0" y="0" flags="0x204"/>
      <component glyphName="macron" x="129" y="47" flags="0x4"/>
    </TTGlyph>
    <TTGlyph name="ampersand" xMin="49" yMin="-16" xMax="798" yMax="700">
      <contour>
        <pt x="238" y="-16" on="1"/>
        <pt x="155" y="-16" on="0"/>
        <pt x="49" y="66" on="0"/>
        <pt x="49" y="144" on="1"/>
        <pt x="49" y="228" on="0"/>
        <pt x="182" y="353" on="0"/>
        <pt x="304" y="422" on="1"/>
        <pt x="347" y="446" on="1"/>
        <pt x="212" y="633" on="1"/>
        <pt x="226" y="700" on="1"/>
        <pt x="720" y="700" on="1"/>
        <pt x="720" y="637" on="1"/>
        <pt x="294" y="637" on="1"/>
        <pt x="586" y="227" on="1"/>
        <pt x="607" y="243" on="0"/>
        <pt x="669" y="290" on="0"/>
        <pt x="731" y="339" on="0"/>
        <pt x="784" y="382" on="0"/>
        <pt x="797" y="392" on="1"/>
        <pt x="798" y="392" on="1"/>
        <pt x="778" y="299" on="1"/>
        <pt x="772" y="294" on="0"/>
        <pt x="734" y="264" on="0"/>
        <pt x="687" y="228" on="0"/>
        <pt x="639" y="190" on="0"/>
        <pt x="621" y="177" on="1"/>
        <pt x="746" y="0" on="1"/>
        <pt x="666" y="0" on="1"/>
        <pt x="569" y="136" on="1"/>
        <pt x="473" y="61" on="0"/>
        <pt x="321" y="-16" on="0"/>
      </contour>
      <contour>
        <pt x="122" y="151" on="1"/>
        <pt x="122" y="99" on="0"/>
        <pt x="194" y="48" on="0"/>
        <pt x="244" y="48" on="1"/>
        <pt x="310" y="48" on="0"/>
        <pt x="440" y="117" on="0"/>
        <pt x="533" y="186" on="1"/>
        <pt x="383" y="396" on="1"/>
        <pt x="331" y="367" on="1"/>
        <pt x="226" y="308" on="0"/>
        <pt x="122" y="208" on="0"/>
      </contour>
    </TTGlyph>
    <TTGlyph name="ampersand.sc" xMin="40" yMin="-16" xMax="705" yMax="575">
      <contour>
        <pt x="623" y="575" on="1"/>
        <pt x="624" y="517" on="1"/>
        <pt x="266" y="517" on="1"/>
        <pt x="506" y="184" on="1"/>
        <pt x="524" y="197" on="0"/>
        <pt x="583" y="237" on="0"/>
        <pt x="642" y="278" on="0"/>
        <pt x="693" y="314" on="0"/>
        <pt x="704" y="323" on="1"/>
        <pt x="705" y="323" on="1"/>
        <pt x="686" y="237" on="1"/>
        <pt x="682" y="234" on="0"/>
        <pt x="647" y="209" on="0"/>
        <pt x="603" y="178" on="0"/>
        <pt x="556" y="146" on="0"/>
        <pt x="540" y="135" on="1"/>
        <pt x="641" y="0" on="1"/>
        <pt x="563" y="0" on="1"/>
        <pt x="488" y="100" on="1"/>
        <pt x="404" y="44" on="0"/>
        <pt x="268" y="-16" on="0"/>
        <pt x="203" y="-16" on="1"/>
        <pt x="127" y="-16" on="0"/>
        <pt x="40" y="55" on="0"/>
        <pt x="40" y="115" on="1"/>
        <pt x="40" y="181" on="0"/>
        <pt x="149" y="285" on="0"/>
        <pt x="253" y="339" on="1"/>
        <pt x="298" y="362" on="1"/>
        <pt x="187" y="515" on="1"/>
        <pt x="200" y="575" on="1"/>
      </contour>
      <contour>
        <pt x="111" y="122" on="1"/>
        <pt x="111" y="85" on="0"/>
        <pt x="162" y="45" on="0"/>
        <pt x="208" y="45" on="1"/>
        <pt x="259" y="45" on="0"/>
        <pt x="377" y="98" on="0"/>
        <pt x="454" y="149" on="1"/>
        <pt x="332" y="316" on="1"/>
        <pt x="292" y="295" on="1"/>
        <pt x="204" y="248" on="0"/>
        <pt x="111" y="168" on="0"/>
      </contour>
    </TTGlyph>
    <TTGlyph name="aogonek" xMin="43" yMin="-289" xMax="527" yMax="542">
      <contour>
        <pt x="324" y="480" on="1"/>
        <pt x="276" y="480" on="0"/>
        <pt x="174" y="449" on="0"/>
        <pt x="129" y="420" on="1"/>
        <pt x="128" y="420" on="1"/>
        <pt x="142" y="490" on="1"/>
        <pt x="185" y="515" on="0"/>
        <pt x="284" y="542" on="0"/>
        <pt x="338" y="542" on="1"/>
        <pt x="432" y="542" on="0"/>
        <pt x="527" y="459" on="0"/>
        <pt x="527" y="388" on="1"/>
        <pt x="527" y="372" on="0"/>
        <pt x="521" y="334" on="0"/>
        <pt x="517" y="312" on="1"/>
        <pt x="451" y="0" on="1"/>
        <pt x="381" y="-57" on="1"/>
        <pt x="328" y="-102" on="0"/>
        <pt x="285" y="-159" on="0"/>
        <pt x="285" y="-185" on="1"/>
        <pt x="285" y="-207" on="0"/>
        <pt x="318" y="-233" on="0"/>
        <pt x="350" y="-233" on="1"/>
        <pt x="375" y="-233" on="0"/>
        <pt x="425" y="-217" on="0"/>
        <pt x="450" y="-203" on="1"/>
        <pt x="438" y="-261" on="1"/>
        <pt x="414" y="-275" on="0"/>
        <pt x="362" y="-289" on="0"/>
        <pt x="334" y="-289" on="1"/>
        <pt x="279" y="-289" on="0"/>
        <pt x="217" y="-238" on="0"/>
        <pt x="217" y="-198" on="1"/>
        <pt x="217" y="-155" on="0"/>
        <pt x="280" y="-76" on="0"/>
        <pt x="342" y="-25" on="1"/>
        <pt x="389" y="13" on="1"/>
        <pt x="403" y="86" on="1"/>
        <pt x="360" y="43" on="0"/>
        <pt x="255" y="-13" on="0"/>
        <pt x="193" y="-13" on="1"/>
        <pt x="123" y="-13" on="0"/>
        <pt x="43" y="58" on="0"/>
        <pt x="43" y="117" on="1"/>
        <pt x="43" y="145" on="0"/>
        <pt x="63" y="203" on="0"/>
        <pt x="88" y="229" on="1"/>
        <pt x="131" y="272" on="0"/>
        <pt x="293" y="310" on="0"/>
        <pt x="420" y="310" on="1"/>
        <pt x="446" y="310" on="1"/>
        <pt x="448" y="321" on="1"/>
        <pt x="452" y="341" on="0"/>
        <pt x="456" y="367" on="0"/>
        <pt x="456" y="381" on="1"/>
        <pt x="456" y="424" on="0"/>
        <pt x="392" y="480" on="0"/>
      </contour>
      <contour>
        <pt x="114" y="125" on="1"/>
        <pt x="114" y="88" on="0"/>
        <pt x="164" y="43" on="0"/>
        <pt x="212" y="43" on="1"/>
        <pt x="268" y="43" on="0"/>
        <pt x="368" y="101" on="0"/>
        <pt x="410" y="140" on="1"/>
        <pt x="435" y="261" on="1"/>
        <pt x="325" y="262" on="0"/>
        <pt x="179" y="234" on="0"/>
        <pt x="145" y="200" on="1"/>
        <pt x="128" y="183" on="0"/>
        <pt x="114" y="144" on="0"/>
      </contour>
    </TTGlyph>
    <TTGlyph name="aogonek.sc" xMin="12" yMin="-289" xMax="610" yMax="575">
      <contour>
        <pt x="598" y="-261" on="1"/>
        <pt x="576" y="-275" on="0"/>
        <pt x="525" y="-289" on="0"/>
        <pt x="497" y="-289" on="1"/>
        <pt x="440" y="-289" on="0"/>
        <pt x="376" y="-239" on="0"/>
        <pt x="376" y="-199" on="1"/>
        <pt x="376" y="-159" on="0"/>
        <pt x="435" y="-80" on="0"/>
        <pt x="502" y="-26" on="1"/>
        <pt x="537" y="2" on="1"/>
        <pt x="513" y="149" on="1"/>
        <pt x="181" y="149" on="1"/>
        <pt x="92" y="0" on="1"/>
        <pt x="12" y="0" on="1"/>
        <pt x="359" y="575" on="1"/>
        <pt x="507" y="575" on="1"/>
        <pt x="610" y="0" on="1"/>
        <pt x="541" y="-58" on="1"/>
        <pt x="481" y="-108" on="0"/>
        <pt x="445" y="-163" on="0"/>
        <pt x="445" y="-185" on="1"/>
        <pt x="445" y="-207" on="0"/>
        <pt x="479" y="-233" on="0"/>
        <pt x="514" y="-233" on="1"/>
        <pt x="539" y="-233" on="0"/>
        <pt x="586" y="-218" on="0"/>
        <pt x="610" y="-204" on="1"/>
      </contour>
      <contour>
        <pt x="400" y="511" on="1"/>
        <pt x="218" y="210" on="1"/>
        <pt x="502" y="210" on="1"/>
        <pt x="450" y="511" on="1"/>
      </contour>
    </TTGlyph>
    <TTGlyph name="aring" xMin="43" yMin="-13" xMax="545" yMax="906">
      <component glyphName="a" x="0" y="0" flags="0x204"/>
      <component glyphName="ring" x="-18" y="14" flags="0x4"/>
    </TTGlyph>
    <TTGlyph name="aring.sc" xMin="12" yMin="0" xMax="636" yMax="939">
      <component glyphName="a.sc" x="0" y="0" flags="0x204"/>
      <component glyphName="ring" x="73" y="47" flags="0x4"/>
    </TTGlyph>
    <TTGlyph name="aringacute" xMin="43" yMin="-13" xMax="659" yMax="1149">
      <component glyphName="a" x="0" y="0" flags="0x204"/>
      <component glyphName="ring" x="-18" y="14" flags="0x4"/>
      <component glyphName="acute" x="162" y="349" flags="0x4"/>
    </TTGlyph>
    <TTGlyph name="aringacute.sc" xMin="12" yMin="0" xMax="750" yMax="1181">
      <component glyphName="a.sc" x="0" y="0" flags="0x204"/>
      <component glyphName="ring" x="73" y="47" flags="0x4"/>
      <component glyphName="acute" x="253" y="381" flags="0x4"/>
    </TTGlyph>
    <TTGlyph name="asciicircum" xMin="112" yMin="379" xMax="606" yMax="700">
      <contour>
        <pt x="490" y="700" on="1"/>
        <pt x="606" y="379" on="1"/>
        <pt x="533" y="379" on="1"/>
        <pt x="445" y="632" on="1"/>
        <pt x="392" y="632" on="1"/>
        <pt x="197" y="379" on="1"/>
        <pt x="112" y="379" on="1"/>
        <pt x="361" y="700" on="1"/>
      </contour>
    </TTGlyph>
    <TTGlyph name="asciicircum.tab" xMin="140" yMin="379" xMax="634" yMax="700">
      <component glyphName="asciicircum" x="28" y="0" flags="0x4"/>
    </TTGlyph>
    <TTGlyph name="asciitilde" xMin="90" yMin="260" xMax="672" yMax="441">
      <contour>
        <pt x="503" y="263" on="1"/>
        <pt x="470" y="263" on="0"/>
        <pt x="409" y="290" on="0"/>
        <pt x="368" y="318" on="1"/>
        <pt x="326" y="346" on="0"/>
        <pt x="279" y="367" on="0"/>
        <pt x="253" y="367" on="1"/>
        <pt x="212" y="367" on="0"/>
        <pt x="134" y="311" on="0"/>
        <pt x="91" y="260" on="1"/>
        <pt x="90" y="260" on="1"/>
        <pt x="109" y="354" on="1"/>
        <pt x="145" y="396" on="0"/>
        <pt x="219" y="438" on="0"/>
        <pt x="259" y="438" on="1"/>
        <pt x="292" y="438" on="0"/>
        <pt x="351" y="411" on="0"/>
        <pt x="394" y="383" on="1"/>
        <pt x="436" y="356" on="0"/>
        <pt x="484" y="334" on="0"/>
        <pt x="510" y="334" on="1"/>
        <pt x="550" y="334" on="0"/>
        <pt x="628" y="390" on="0"/>
        <pt x="671" y="441" on="1"/>
        <pt x="672" y="441" on="1"/>
        <pt x="653" y="347" on="1"/>
        <pt x="617" y="305" on="0"/>
        <pt x="543" y="263" on="0"/>
      </contour>
    </TTGlyph>
    <TTGlyph name="asciitilde.tab" xMin="91" yMin="260" xMax="673" yMax="441">
      <component glyphName="asciitilde" x="1" y="0" flags="0x4"/>
    </TTGlyph>
    <TTGlyph name="asterisk" xMin="129" yMin="352" xMax="484" yMax="715">
      <contour>
        <pt x="360" y="356" on="1"/>
        <pt x="339" y="352" on="1"/>
        <pt x="296" y="476" on="1"/>
        <pt x="204" y="387" on="1"/>
        <pt x="186" y="400" on="1"/>
        <pt x="255" y="510" on="1"/>
        <pt x="129" y="527" on="1"/>
        <pt x="130" y="549" on="1"/>
        <pt x="260" y="564" on="1"/>
        <pt x="194" y="673" on="1"/>
        <pt x="210" y="685" on="1"/>
        <pt x="303" y="595" on="1"/>
        <pt x="346" y="715" on="1"/>
        <pt x="368" y="709" on="1"/>
        <pt x="356" y="580" on="1"/>
        <pt x="476" y="618" on="1"/>
        <pt x="484" y="599" on="1"/>
        <pt x="374" y="530" on="1"/>
        <pt x="480" y="461" on="1"/>
        <pt x="470" y="442" on="1"/>
        <pt x="348" y="483" on="1"/>
      </contour>
    </TTGlyph>
    <TTGlyph name="at" xMin="111" yMin="-111" xMax="1001" yMax="760">
      <contour>
        <pt x="784" y="123" on="1"/>
        <pt x="730" y="123" on="0"/>
        <pt x="668" y="166" on="0"/>
        <pt x="660" y="203" on="1"/>
        <pt x="625" y="167" on="0"/>
        <pt x="543" y="125" on="0"/>
        <pt x="494" y="125" on="1"/>
        <pt x="437" y="125" on="0"/>
        <pt x="377" y="180" on="0"/>
        <pt x="377" y="223" on="1"/>
        <pt x="377" y="245" on="0"/>
        <pt x="393" y="289" on="0"/>
        <pt x="412" y="308" on="1"/>
        <pt x="441" y="337" on="0"/>
        <pt x="563" y="371" on="0"/>
        <pt x="680" y="372" on="1"/>
        <pt x="682" y="383" on="1"/>
        <pt x="683" y="393" on="0"/>
        <pt x="686" y="409" on="0"/>
        <pt x="686" y="418" on="1"/>
        <pt x="686" y="454" on="0"/>
        <pt x="638" y="490" on="0"/>
        <pt x="593" y="490" on="1"/>
        <pt x="556" y="490" on="0"/>
        <pt x="477" y="469" on="0"/>
        <pt x="442" y="448" on="1"/>
        <pt x="441" y="448" on="1"/>
        <pt x="453" y="507" on="1"/>
        <pt x="488" y="525" on="0"/>
        <pt x="560" y="543" on="0"/>
        <pt x="601" y="543" on="1"/>
        <pt x="671" y="543" on="0"/>
        <pt x="745" y="480" on="0"/>
        <pt x="745" y="423" on="1"/>
        <pt x="745" y="413" on="0"/>
        <pt x="742" y="387" on="0"/>
        <pt x="740" y="375" on="1"/>
        <pt x="719" y="271" on="1"/>
        <pt x="717" y="262" on="0"/>
        <pt x="715" y="245" on="0"/>
        <pt x="715" y="238" on="1"/>
        <pt x="715" y="205" on="0"/>
        <pt x="752" y="172" on="0"/>
        <pt x="787" y="172" on="1"/>
        <pt x="822" y="172" on="0"/>
        <pt x="880" y="210" on="0"/>
        <pt x="921" y="277" on="0"/>
        <pt x="944" y="370" on="0"/>
        <pt x="944" y="426" on="1"/>
        <pt x="944" y="491" on="0"/>
        <pt x="897" y="596" on="0"/>
        <pt x="812" y="668" on="0"/>
        <pt x="690" y="706" on="0"/>
        <pt x="615" y="706" on="1"/>
        <pt x="505" y="706" on="0"/>
        <pt x="338" y="630" on="0"/>
        <pt x="227" y="503" on="0"/>
        <pt x="171" y="338" on="0"/>
        <pt x="171" y="250" on="1"/>
        <pt x="171" y="99" on="0"/>
        <pt x="362" y="-57" on="0"/>
        <pt x="529" y="-57" on="1"/>
        <pt x="605" y="-57" on="0"/>
        <pt x="737" y="-25" on="0"/>
        <pt x="802" y="3" on="1"/>
        <pt x="789" y="-58" on="1"/>
        <pt x="731" y="-83" on="0"/>
        <pt x="594" y="-111" on="0"/>
        <pt x="527" y="-111" on="1"/>
        <pt x="431" y="-111" on="0"/>
        <pt x="276" y="-64" on="0"/>
        <pt x="169" y="26" on="0"/>
        <pt x="111" y="160" on="0"/>
        <pt x="111" y="246" on="1"/>
        <pt x="111" y="345" on="0"/>
        <pt x="175" y="531" on="0"/>
        <pt x="302" y="673" on="0"/>
        <pt x="493" y="760" on="0"/>
        <pt x="618" y="760" on="1"/>
        <pt x="705" y="760" on="0"/>
        <pt x="847" y="713" on="0"/>
        <pt x="947" y="627" on="0"/>
        <pt x="1001" y="502" on="0"/>
        <pt x="1001" y="424" on="1"/>
        <pt x="1001" y="363" on="0"/>
        <pt x="973" y="253" on="0"/>
        <pt x="918" y="171" on="0"/>
        <pt x="837" y="123" on="0"/>
      </contour>
      <contour>
        <pt x="511" y="173" on="1"/>
        <pt x="552" y="173" on="0"/>
        <pt x="619" y="212" on="0"/>
        <pt x="653" y="244" on="1"/>
        <pt x="670" y="329" on="1"/>
        <pt x="581" y="328" on="0"/>
        <pt x="482" y="304" on="0"/>
        <pt x="460" y="282" on="1"/>
        <pt x="448" y="270" on="0"/>
        <pt x="438" y="242" on="0"/>
        <pt x="438" y="229" on="1"/>
        <pt x="438" y="204" on="0"/>
        <pt x="473" y="173" on="0"/>
      </contour>
    </TTGlyph>
    <TTGlyph name="at.cap" xMin="116" yMin="-86" xMax="1006" yMax="785">
      <component glyphName="at" x="5" y="25" flags="0x4"/>
    </TTGlyph>
    <TTGlyph name="atilde" xMin="43" yMin="-13" xMax="571" yMax="774">
      <component glyphName="a" x="0" y="0" flags="0x204"/>
      <component glyphName="tilde" x="38" y="14" flags="0x4"/>
    </TTGlyph>
    <TTGlyph name="atilde.sc" xMin="12" yMin="0" xMax="662" yMax="807">
      <component glyphName="a.sc" x="0" y="0" flags="0x204"/>
      <component glyphName="tilde" x="129" y="47" flags="0x4"/>
    </TTGlyph>
    <TTGlyph name="b" xMin="57" yMin="-14" xMax="589" yMax="746">
      <contour>
        <pt x="279" y="746" on="1"/>
        <pt x="217" y="451" on="1"/>
        <pt x="254" y="490" on="0"/>
        <pt x="349" y="541" on="0"/>
        <pt x="405" y="541" on="1"/>
        <pt x="443" y="541" on="0"/>
        <pt x="510" y="515" on="0"/>
        <pt x="560" y="464" on="0"/>
        <pt x="589" y="387" on="0"/>
        <pt x="589" y="336" on="1"/>
        <pt x="589" y="267" on="0"/>
        <pt x="545" y="139" on="0"/>
        <pt x="466" y="43" on="0"/>
        <pt x="353" y="-14" on="0"/>
        <pt x="284" y="-14" on="1"/>
        <pt x="240" y="-14" on="0"/>
        <pt x="157" y="11" on="0"/>
        <pt x="117" y="35" on="1"/>
        <pt x="57" y="35" on="1"/>
        <pt x="207" y="746" on="1"/>
      </contour>
      <contour>
        <pt x="286" y="47" on="1"/>
        <pt x="339" y="47" on="0"/>
        <pt x="426" y="95" on="0"/>
        <pt x="486" y="174" on="0"/>
        <pt x="518" y="276" on="0"/>
        <pt x="518" y="329" on="1"/>
        <pt x="518" y="404" on="0"/>
        <pt x="441" y="480" on="0"/>
        <pt x="383" y="480" on="1"/>
        <pt x="333" y="480" on="0"/>
        <pt x="240" y="430" on="0"/>
        <pt x="204" y="390" on="1"/>
        <pt x="141" y="97" on="1"/>
        <pt x="173" y="72" on="0"/>
        <pt x="249" y="47" on="0"/>
      </contour>
    </TTGlyph>
    <TTGlyph name="b.sc" xMin="68" yMin="0" xMax="651" yMax="575">
      <contour>
        <pt x="68" y="0" on="1"/>
        <pt x="190" y="575" on="1"/>
        <pt x="468" y="575" on="1"/>
        <pt x="558" y="575" on="0"/>
        <pt x="651" y="505" on="0"/>
        <pt x="651" y="442" on="1"/>
        <pt x="651" y="385" on="0"/>
        <pt x="575" y="306" on="0"/>
        <pt x="509" y="292" on="1"/>
        <pt x="556" y="280" on="0"/>
        <pt x="613" y="217" on="0"/>
        <pt x="613" y="173" on="1"/>
        <pt x="613" y="92" on="0"/>
        <pt x="490" y="0" on="0"/>
        <pt x="372" y="0" on="1"/>
      </contour>
      <contour>
        <pt x="208" y="324" on="1"/>
        <pt x="437" y="324" on="1"/>
        <pt x="502" y="324" on="0"/>
        <pt x="581" y="381" on="0"/>
        <pt x="581" y="429" on="1"/>
        <pt x="581" y="472" on="0"/>
        <pt x="519" y="513" on="0"/>
        <pt x="462" y="513" on="1"/>
        <pt x="248" y="513" on="1"/>
      </contour>
      <contour>
        <pt x="196" y="267" on="1"/>
        <pt x="152" y="62" on="1"/>
        <pt x="375" y="62" on="1"/>
        <pt x="462" y="62" on="0"/>
        <pt x="541" y="126" on="0"/>
        <pt x="541" y="178" on="1"/>
        <pt x="541" y="218" on="0"/>
        <pt x="478" y="267" on="0"/>
        <pt x="415" y="267" on="1"/>
      </contour>
    </TTGlyph>
    <TTGlyph name="backslash" xMin="163" yMin="-186" xMax="345" yMax="746">
      <contour>
        <pt x="345" y="-186" on="1"/>
        <pt x="280" y="-186" on="1"/>
        <pt x="163" y="746" on="1"/>
        <pt x="228" y="746" on="1"/>
      </contour>
    </TTGlyph>
    <TTGlyph name="backslash.cap" xMin="183" yMin="-116" xMax="365" yMax="816">
      <component glyphName="backslash" x="20" y="70" flags="0x4"/>
    </TTGlyph>
    <TTGlyph name="bar" xMin="125" yMin="-186" xMax="390" yMax="746">
      <contour>
        <pt x="192" y="-186" on="1"/>
        <pt x="125" y="-186" on="1"/>
        <pt x="323" y="746" on="1"/>
        <pt x="390" y="746" on="1"/>
      </contour>
    </TTGlyph>
    <TTGlyph name="bar.cap" xMin="140" yMin="-116" xMax="405" yMax="816">
      <component glyphName="bar" x="15" y="70" flags="0x4"/>
    </TTGlyph>
    <TTGlyph name="bar.tab" xMin="68" yMin="-116" xMax="333" yMax="816">
      <component glyphName="bar.cap" x="-72" y="0" flags="0x4"/>
    </TTGlyph>
    <TTGlyph name="braceleft" xMin="41" yMin="-197" xMax="537" yMax="757">
      <contour>
        <pt x="41" y="290" on="1"/>
        <pt x="45" y="303" on="1"/>
        <pt x="209" y="414" on="1"/>
        <pt x="221" y="544" on="1"/>
        <pt x="230" y="653" on="0"/>
        <pt x="336" y="757" on="0"/>
        <pt x="418" y="757" on="1"/>
        <pt x="453" y="757" on="0"/>
        <pt x="506" y="745" on="0"/>
        <pt x="537" y="732" on="1"/>
        <pt x="524" y="669" on="1"/>
        <pt x="523" y="669" on="1"/>
        <pt x="500" y="681" on="0"/>
        <pt x="450" y="694" on="0"/>
        <pt x="422" y="694" on="1"/>
        <pt x="367" y="694" on="0"/>
        <pt x="297" y="618" on="0"/>
        <pt x="290" y="534" on="1"/>
        <pt x="276" y="383" on="1"/>
        <pt x="128" y="286" on="1"/>
        <pt x="231" y="173" on="1"/>
        <pt x="185" y="49" on="1"/>
        <pt x="175" y="23" on="0"/>
        <pt x="164" y="-25" on="0"/>
        <pt x="164" y="-46" on="1"/>
        <pt x="163" y="-95" on="0"/>
        <pt x="229" y="-134" on="0"/>
        <pt x="274" y="-134" on="1"/>
        <pt x="294" y="-134" on="0"/>
        <pt x="333" y="-128" on="0"/>
        <pt x="359" y="-123" on="1"/>
        <pt x="360" y="-123" on="1"/>
        <pt x="347" y="-185" on="1"/>
        <pt x="323" y="-192" on="0"/>
        <pt x="274" y="-197" on="0"/>
        <pt x="254" y="-197" on="1"/>
        <pt x="187" y="-197" on="0"/>
        <pt x="93" y="-129" on="0"/>
        <pt x="93" y="-58" on="1"/>
        <pt x="93" y="-27" on="0"/>
        <pt x="111" y="36" on="0"/>
        <pt x="124" y="71" on="1"/>
        <pt x="158" y="161" on="1"/>
      </contour>
    </TTGlyph>
    <TTGlyph name="braceleft.cap" xMin="56" yMin="-127" xMax="552" yMax="827">
      <component glyphName="braceleft" x="15" y="70" flags="0x4"/>
    </TTGlyph>
    <TTGlyph name="braceright" xMin="-17" yMin="-197" xMax="479" yMax="757">
      <contour>
        <pt x="479" y="270" on="1"/>
        <pt x="475" y="257" on="1"/>
        <pt x="311" y="146" on="1"/>
        <pt x="299" y="16" on="1"/>
        <pt x="290" y="-93" on="0"/>
        <pt x="184" y="-197" on="0"/>
        <pt x="102" y="-197" on="1"/>
        <pt x="67" y="-197" on="0"/>
        <pt x="14" y="-185" on="0"/>
        <pt x="-17" y="-172" on="1"/>
        <pt x="-4" y="-109" on="1"/>
        <pt x="-3" y="-109" on="1"/>
        <pt x="20" y="-121" on="0"/>
        <pt x="70" y="-134" on="0"/>
        <pt x="98" y="-134" on="1"/>
        <pt x="153" y="-134" on="0"/>
        <pt x="223" y="-58" on="0"/>
        <pt x="230" y="26" on="1"/>
        <pt x="244" y="177" on="1"/>
        <pt x="392" y="274" on="1"/>
        <pt x="289" y="387" on="1"/>
        <pt x="335" y="511" on="1"/>
        <pt x="345" y="537" on="0"/>
        <pt x="356" y="585" on="0"/>
        <pt x="356" y="606" on="1"/>
        <pt x="357" y="655" on="0"/>
        <pt x="291" y="694" on="0"/>
        <pt x="246" y="694" on="1"/>
        <pt x="226" y="694" on="0"/>
        <pt x="187" y="688" on="0"/>
        <pt x="161" y="683" on="1"/>
        <pt x="160" y="683" on="1"/>
        <pt x="173" y="745" on="1"/>
        <pt x="197" y="752" on="0"/>
        <pt x="246" y="757" on="0"/>
        <pt x="266" y="757" on="1"/>
        <pt x="333" y="757" on="0"/>
        <pt x="427" y="689" on="0"/>
        <pt x="427" y="618" on="1"/>
        <pt x="427" y="587" on="0"/>
        <pt x="409" y="524" on="0"/>
        <pt x="396" y="489" on="1"/>
        <pt x="362" y="399" on="1"/>
      </contour>
    </TTGlyph>
    <TTGlyph name="braceright.cap" xMin="-2" yMin="-127" xMax="494" yMax="827">
      <component glyphName="braceright" x="15" y="70" flags="0x4"/>
    </TTGlyph>
    <TTGlyph name="bracketleft" xMin="15" yMin="-186" xMax="469" yMax="746">
      <contour>
        <pt x="15" y="-186" on="1"/>
        <pt x="213" y="746" on="1"/>
        <pt x="469" y="746" on="1"/>
        <pt x="457" y="688" on="1"/>
        <pt x="270" y="688" on="1"/>
        <pt x="96" y="-128" on="1"/>
        <pt x="283" y="-128" on="1"/>
        <pt x="271" y="-186" on="1"/>
      </contour>
    </TTGlyph>
    <TTGlyph name="bracketleft.cap" xMin="30" yMin="-116" xMax="484" yMax="816">
      <component glyphName="bracketleft" x="15" y="70" flags="0x4"/>
    </TTGlyph>
    <TTGlyph name="bracketright" xMin="-26" yMin="-186" xMax="428" yMax="746">
      <contour>
        <pt x="428" y="746" on="1"/>
        <pt x="230" y="-186" on="1"/>
        <pt x="-26" y="-186" on="1"/>
        <pt x="-14" y="-128" on="1"/>
        <pt x="173" y="-128" on="1"/>
        <pt x="347" y="688" on="1"/>
        <pt x="160" y="688" on="1"/>
        <pt x="172" y="746" on="1"/>
      </contour>
    </TTGlyph>
    <TTGlyph name="bracketright.cap" xMin="-11" yMin="-116" xMax="443" yMax="816">
      <component glyphName="bracketright" x="15" y="70" flags="0x4"/>
    </TTGlyph>
    <TTGlyph name="breve" xMin="181" yMin="625" xMax="526" yMax="808">
      <contour>
        <pt x="197" y="808" on="1"/>
        <pt x="254" y="808" on="1"/>
        <pt x="245" y="789" on="0"/>
        <pt x="240" y="760" on="0"/>
        <pt x="240" y="750" on="1"/>
        <pt x="240" y="714" on="0"/>
        <pt x="294" y="679" on="0"/>
        <pt x="336" y="679" on="1"/>
        <pt x="392" y="679" on="0"/>
        <pt x="464" y="740" on="0"/>
        <pt x="465" y="806" on="1"/>
        <pt x="465" y="808" on="1"/>
        <pt x="526" y="808" on="1"/>
        <pt x="526" y="800" on="1"/>
        <pt x="526" y="719" on="0"/>
        <pt x="420" y="625" on="0"/>
        <pt x="333" y="625" on="1"/>
        <pt x="264" y="625" on="0"/>
        <pt x="181" y="685" on="0"/>
        <pt x="181" y="738" on="1"/>
        <pt x="181" y="754" on="0"/>
        <pt x="189" y="789" on="0"/>
      </contour>
    </TTGlyph>
    <TTGlyph name="bullet" xMin="107" yMin="224" xMax="302" yMax="409">
      <contour>
        <pt x="107" y="307" on="1"/>
        <pt x="107" y="347" on="0"/>
        <pt x="163" y="409" on="0"/>
        <pt x="214" y="409" on="1"/>
        <pt x="255" y="409" on="0"/>
        <pt x="302" y="361" on="0"/>
        <pt x="302" y="325" on="1"/>
        <pt x="302" y="283" on="0"/>
        <pt x="246" y="224" on="0"/>
        <pt x="195" y="224" on="1"/>
        <pt x="153" y="224" on="0"/>
        <pt x="107" y="271" on="0"/>
      </contour>
    </TTGlyph>
    <TTGlyph name="bullet.cap" xMin="114" yMin="258" xMax="309" yMax="443">
      <component glyphName="bullet" x="7" y="34" flags="0x4"/>
    </TTGlyph>
    <TTGlyph name="c" xMin="59" yMin="-13" xMax="533" yMax="541">
      <contour>
        <pt x="131" y="217" on="1"/>
        <pt x="131" y="135" on="0"/>
        <pt x="224" y="48" on="0"/>
        <pt x="301" y="48" on="1"/>
        <pt x="338" y="48" on="0"/>
        <pt x="420" y="72" on="0"/>
        <pt x="464" y="100" on="1"/>
        <pt x="465" y="100" on="1"/>
        <pt x="450" y="31" on="1"/>
        <pt x="407" y="6" on="0"/>
        <pt x="327" y="-13" on="0"/>
        <pt x="290" y="-13" on="1"/>
        <pt x="186" y="-13" on="0"/>
        <pt x="59" y="105" on="0"/>
        <pt x="59" y="211" on="1"/>
        <pt x="59" y="278" on="0"/>
        <pt x="102" y="398" on="0"/>
        <pt x="179" y="488" on="0"/>
        <pt x="289" y="541" on="0"/>
        <pt x="355" y="541" on="1"/>
        <pt x="417" y="541" on="0"/>
        <pt x="507" y="500" on="0"/>
        <pt x="533" y="473" on="1"/>
        <pt x="518" y="408" on="1"/>
        <pt x="517" y="408" on="1"/>
        <pt x="489" y="436" on="0"/>
        <pt x="413" y="479" on="0"/>
        <pt x="357" y="479" on="1"/>
        <pt x="307" y="479" on="0"/>
        <pt x="223" y="438" on="0"/>
        <pt x="164" y="367" on="0"/>
        <pt x="131" y="271" on="0"/>
      </contour>
    </TTGlyph>
    <TTGlyph name="c.sc" xMin="79" yMin="-12" xMax="641" yMax="587">
      <contour>
        <pt x="419" y="587" on="1"/>
        <pt x="491" y="587" on="0"/>
        <pt x="605" y="541" on="0"/>
        <pt x="641" y="509" on="1"/>
        <pt x="626" y="441" on="1"/>
        <pt x="625" y="441" on="1"/>
        <pt x="588" y="477" on="0"/>
        <pt x="483" y="523" on="0"/>
        <pt x="421" y="523" on="1"/>
        <pt x="359" y="523" on="0"/>
        <pt x="259" y="479" on="0"/>
        <pt x="190" y="404" on="0"/>
        <pt x="152" y="305" on="0"/>
        <pt x="152" y="250" on="1"/>
        <pt x="152" y="160" on="0"/>
        <pt x="263" y="51" on="0"/>
        <pt x="362" y="51" on="1"/>
        <pt x="420" y="51" on="0"/>
        <pt x="522" y="85" on="0"/>
        <pt x="564" y="107" on="1"/>
        <pt x="565" y="107" on="1"/>
        <pt x="549" y="34" on="1"/>
        <pt x="514" y="17" on="0"/>
        <pt x="414" y="-12" on="0"/>
        <pt x="351" y="-12" on="1"/>
        <pt x="288" y="-12" on="0"/>
        <pt x="186" y="25" on="0"/>
        <pt x="116" y="93" on="0"/>
        <pt x="79" y="188" on="0"/>
        <pt x="79" y="245" on="1"/>
        <pt x="79" y="312" on="0"/>
        <pt x="126" y="436" on="0"/>
        <pt x="213" y="531" on="0"/>
        <pt x="340" y="587" on="0"/>
      </contour>
    </TTGlyph>
    <TTGlyph name="cacute" xMin="59" yMin="-13" xMax="624" yMax="813">
      <component glyphName="c" x="0" y="0" flags="0x204"/>
      <component glyphName="acute" x="127" y="13" flags="0x4"/>
    </TTGlyph>
    <TTGlyph name="cacute.sc" xMin="79" yMin="-12" xMax="685" yMax="859">
      <component glyphName="c.sc" x="0" y="0" flags="0x204"/>
      <component glyphName="acute" x="188" y="59" flags="0x4"/>
    </TTGlyph>
    <TTGlyph name="caron" xMin="173" yMin="636" xMax="559" yMax="807">
      <contour>
        <pt x="559" y="807" on="1"/>
        <pt x="384" y="636" on="1"/>
        <pt x="276" y="636" on="1"/>
        <pt x="173" y="807" on="1"/>
        <pt x="244" y="807" on="1"/>
        <pt x="317" y="687" on="1"/>
        <pt x="355" y="687" on="1"/>
        <pt x="478" y="807" on="1"/>
      </contour>
    </TTGlyph>
    <TTGlyph name="caron.alt" xMin="265" yMin="610" xMax="376" yMax="781">
      <contour>
        <pt x="265" y="610" on="1"/>
        <pt x="301" y="781" on="1"/>
        <pt x="376" y="781" on="1"/>
        <pt x="375" y="775" on="1"/>
        <pt x="306" y="610" on="1"/>
      </contour>
    </TTGlyph>
    <TTGlyph name="ccaron" xMin="59" yMin="-13" xMax="633" yMax="820">
      <component glyphName="c" x="0" y="0" flags="0x204"/>
      <component glyphName="caron" x="74" y="13" flags="0x4"/>
    </TTGlyph>
    <TTGlyph name="ccaron.sc" xMin="79" yMin="-12" xMax="694" yMax="866">
      <component glyphName="c.sc" x="0" y="0" flags="0x204"/>
      <component glyphName="caron" x="135" y="59" flags="0x4"/>
    </TTGlyph>
    <TTGlyph name="ccedilla" xMin="59" yMin="-190" xMax="533" yMax="541">
      <contour>
        <pt x="131" y="217" on="1"/>
        <pt x="131" y="135" on="0"/>
        <pt x="224" y="48" on="0"/>
        <pt x="301" y="48" on="1"/>
        <pt x="338" y="48" on="0"/>
        <pt x="420" y="72" on="0"/>
        <pt x="464" y="100" on="1"/>
        <pt x="465" y="100" on="1"/>
        <pt x="450" y="31" on="1"/>
        <pt x="413" y="10" on="0"/>
        <pt x="344" y="-10" on="0"/>
        <pt x="312" y="-12" on="1"/>
        <pt x="160" y="-190" on="1"/>
        <pt x="66" y="-190" on="1"/>
        <pt x="67" y="-187" on="1"/>
        <pt x="249" y="-10" on="1"/>
        <pt x="162" y="0" on="0"/>
        <pt x="59" y="115" on="0"/>
        <pt x="59" y="211" on="1"/>
        <pt x="59" y="278" on="0"/>
        <pt x="102" y="398" on="0"/>
        <pt x="179" y="488" on="0"/>
        <pt x="289" y="541" on="0"/>
        <pt x="355" y="541" on="1"/>
        <pt x="417" y="541" on="0"/>
        <pt x="507" y="500" on="0"/>
        <pt x="533" y="473" on="1"/>
        <pt x="518" y="408" on="1"/>
        <pt x="517" y="408" on="1"/>
        <pt x="489" y="436" on="0"/>
        <pt x="413" y="479" on="0"/>
        <pt x="357" y="479" on="1"/>
        <pt x="307" y="479" on="0"/>
        <pt x="223" y="438" on="0"/>
        <pt x="164" y="367" on="0"/>
        <pt x="131" y="271" on="0"/>
      </contour>
    </TTGlyph>
    <TTGlyph name="ccedilla.sc" xMin="79" yMin="-190" xMax="641" yMax="587">
      <contour>
        <pt x="419" y="587" on="1"/>
        <pt x="491" y="587" on="0"/>
        <pt x="605" y="541" on="0"/>
        <pt x="641" y="509" on="1"/>
        <pt x="626" y="441" on="1"/>
        <pt x="625" y="441" on="1"/>
        <pt x="588" y="477" on="0"/>
        <pt x="483" y="523" on="0"/>
        <pt x="421" y="523" on="1"/>
        <pt x="359" y="523" on="0"/>
        <pt x="259" y="479" on="0"/>
        <pt x="190" y="404" on="0"/>
        <pt x="152" y="305" on="0"/>
        <pt x="152" y="250" on="1"/>
        <pt x="152" y="160" on="0"/>
        <pt x="263" y="51" on="0"/>
        <pt x="362" y="51" on="1"/>
        <pt x="420" y="51" on="0"/>
        <pt x="522" y="85" on="0"/>
        <pt x="564" y="107" on="1"/>
        <pt x="565" y="107" on="1"/>
        <pt x="549" y="34" on="1"/>
        <pt x="518" y="18" on="0"/>
        <pt x="430" y="-8" on="0"/>
        <pt x="376" y="-11" on="1"/>
        <pt x="223" y="-190" on="1"/>
        <pt x="129" y="-190" on="1"/>
        <pt x="130" y="-187" on="1"/>
        <pt x="313" y="-10" on="1"/>
        <pt x="203" y="0" on="0"/>
        <pt x="79" y="140" on="0"/>
        <pt x="79" y="245" on="1"/>
        <pt x="79" y="312" on="0"/>
        <pt x="126" y="436" on="0"/>
        <pt x="213" y="531" on="0"/>
        <pt x="340" y="587" on="0"/>
      </contour>
    </TTGlyph>
    <TTGlyph name="cdotaccent" xMin="59" yMin="-13" xMax="533" yMax="745">
      <component glyphName="c" x="0" y="0" flags="0x204"/>
      <component glyphName="dotaccent" x="73" y="13" flags="0x4"/>
    </TTGlyph>
    <TTGlyph name="cdotaccent.sc" xMin="79" yMin="-12" xMax="641" yMax="791">
      <component glyphName="c.sc" x="0" y="0" flags="0x204"/>
      <component glyphName="dotaccent" x="134" y="59" flags="0x4"/>
    </TTGlyph>
    <TTGlyph name="cedilla" xMin="6" yMin="-191" xMax="258" yMax="-6">
      <contour>
        <pt x="258" y="-6" on="1"/>
        <pt x="100" y="-191" on="1"/>
        <pt x="6" y="-191" on="1"/>
        <pt x="7" y="-188" on="1"/>
        <pt x="195" y="-6" on="1"/>
      </contour>
    </TTGlyph>
    <TTGlyph name="cent" xMin="85" yMin="-34" xMax="529" yMax="711">
      <contour>
        <pt x="222" y="-34" on="1"/>
        <pt x="253" y="112" on="1"/>
        <pt x="179" y="126" on="0"/>
        <pt x="87" y="230" on="0"/>
        <pt x="86" y="313" on="1"/>
        <pt x="86" y="368" on="0"/>
        <pt x="123" y="469" on="0"/>
        <pt x="192" y="545" on="0"/>
        <pt x="291" y="591" on="0"/>
        <pt x="351" y="593" on="1"/>
        <pt x="376" y="711" on="1"/>
        <pt x="441" y="711" on="1"/>
        <pt x="415" y="588" on="1"/>
        <pt x="451" y="581" on="0"/>
        <pt x="511" y="551" on="0"/>
        <pt x="529" y="534" on="1"/>
        <pt x="516" y="470" on="1"/>
        <pt x="515" y="470" on="1"/>
        <pt x="490" y="495" on="0"/>
        <pt x="407" y="532" on="0"/>
        <pt x="361" y="532" on="1"/>
        <pt x="314" y="532" on="0"/>
        <pt x="238" y="498" on="0"/>
        <pt x="185" y="440" on="0"/>
        <pt x="156" y="362" on="0"/>
        <pt x="156" y="319" on="1"/>
        <pt x="156" y="244" on="0"/>
        <pt x="251" y="168" on="0"/>
        <pt x="317" y="168" on="1"/>
        <pt x="357" y="168" on="0"/>
        <pt x="430" y="189" on="0"/>
        <pt x="470" y="213" on="1"/>
        <pt x="471" y="213" on="1"/>
        <pt x="456" y="145" on="1"/>
        <pt x="422" y="126" on="0"/>
        <pt x="353" y="108" on="0"/>
        <pt x="316" y="107" on="1"/>
        <pt x="288" y="-26" on="1"/>
      </contour>
    </TTGlyph>
    <TTGlyph name="cent.tab" xMin="162" yMin="-34" xMax="619" yMax="711">
      <contour>
        <pt x="305" y="-34" on="1"/>
        <pt x="336" y="112" on="1"/>
        <pt x="260" y="125" on="0"/>
        <pt x="164" y="231" on="0"/>
        <pt x="163" y="315" on="1"/>
        <pt x="163" y="369" on="0"/>
        <pt x="201" y="469" on="0"/>
        <pt x="272" y="545" on="0"/>
        <pt x="373" y="591" on="0"/>
        <pt x="435" y="593" on="1"/>
        <pt x="459" y="711" on="1"/>
        <pt x="525" y="711" on="1"/>
        <pt x="499" y="588" on="1"/>
        <pt x="537" y="581" on="0"/>
        <pt x="600" y="550" on="0"/>
        <pt x="619" y="533" on="1"/>
        <pt x="606" y="470" on="1"/>
        <pt x="605" y="470" on="1"/>
        <pt x="578" y="495" on="0"/>
        <pt x="494" y="532" on="0"/>
        <pt x="445" y="532" on="1"/>
        <pt x="397" y="532" on="0"/>
        <pt x="318" y="498" on="0"/>
        <pt x="263" y="440" on="0"/>
        <pt x="233" y="363" on="0"/>
        <pt x="233" y="320" on="1"/>
        <pt x="233" y="244" on="0"/>
        <pt x="331" y="168" on="0"/>
        <pt x="400" y="168" on="1"/>
        <pt x="441" y="168" on="0"/>
        <pt x="519" y="188" on="0"/>
        <pt x="560" y="212" on="1"/>
        <pt x="561" y="212" on="1"/>
        <pt x="546" y="144" on="1"/>
        <pt x="511" y="125" on="0"/>
        <pt x="439" y="108" on="0"/>
        <pt x="400" y="107" on="1"/>
        <pt x="372" y="-26" on="1"/>
      </contour>
    </TTGlyph>
    <TTGlyph name="circle.checked" xMin="126" yMin="-46" xMax="952" yMax="746">
      <contour>
        <pt x="539" y="-46" on="1"/>
        <pt x="445" y="-46" on="0"/>
        <pt x="291" y="11" on="0"/>
        <pt x="184" y="113" on="0"/>
        <pt x="126" y="260" on="0"/>
        <pt x="126" y="350" on="1"/>
        <pt x="126" y="439" on="0"/>
        <pt x="184" y="586" on="0"/>
        <pt x="291" y="689" on="0"/>
        <pt x="445" y="746" on="0"/>
        <pt x="539" y="746" on="1"/>
        <pt x="634" y="746" on="0"/>
        <pt x="787" y="689" on="0"/>
        <pt x="894" y="587" on="0"/>
        <pt x="952" y="440" on="0"/>
        <pt x="952" y="350" on="1"/>
        <pt x="952" y="261" on="0"/>
        <pt x="894" y="114" on="0"/>
        <pt x="787" y="11" on="0"/>
        <pt x="633" y="-46" on="0"/>
      </contour>
      <contour>
        <pt x="539" y="23" on="1"/>
        <pt x="617" y="23" on="0"/>
        <pt x="741" y="69" on="0"/>
        <pt x="828" y="154" on="0"/>
        <pt x="874" y="276" on="0"/>
        <pt x="874" y="350" on="1"/>
        <pt x="874" y="425" on="0"/>
        <pt x="828" y="546" on="0"/>
        <pt x="741" y="631" on="0"/>
        <pt x="617" y="677" on="0"/>
        <pt x="539" y="677" on="1"/>
        <pt x="461" y="677" on="0"/>
        <pt x="337" y="631" on="0"/>
        <pt x="250" y="546" on="0"/>
        <pt x="204" y="424" on="0"/>
        <pt x="204" y="350" on="1"/>
        <pt x="204" y="275" on="0"/>
        <pt x="250" y="154" on="0"/>
        <pt x="337" y="69" on="0"/>
        <pt x="461" y="23" on="0"/>
      </contour>
      <contour>
        <pt x="539" y="186" on="1"/>
        <pt x="463" y="186" on="0"/>
        <pt x="375" y="275" on="0"/>
        <pt x="375" y="350" on="1"/>
        <pt x="375" y="425" on="0"/>
        <pt x="463" y="514" on="0"/>
        <pt x="539" y="514" on="1"/>
        <pt x="617" y="514" on="0"/>
        <pt x="703" y="425" on="0"/>
        <pt x="703" y="350" on="1"/>
        <pt x="703" y="275" on="0"/>
        <pt x="617" y="186" on="0"/>
      </contour>
    </TTGlyph>
    <TTGlyph name="circle.half" xMin="126" yMin="-46" xMax="952" yMax="746">
      <contour>
        <pt x="539" y="-46" on="1"/>
        <pt x="444" y="-46" on="0"/>
        <pt x="291" y="11" on="0"/>
        <pt x="184" y="113" on="0"/>
        <pt x="126" y="260" on="0"/>
        <pt x="126" y="350" on="1"/>
        <pt x="126" y="439" on="0"/>
        <pt x="184" y="586" on="0"/>
        <pt x="291" y="689" on="0"/>
        <pt x="445" y="746" on="0"/>
        <pt x="539" y="746" on="1"/>
        <pt x="633" y="746" on="0"/>
        <pt x="787" y="689" on="0"/>
        <pt x="894" y="587" on="0"/>
        <pt x="952" y="440" on="0"/>
        <pt x="952" y="350" on="1"/>
        <pt x="952" y="261" on="0"/>
        <pt x="894" y="114" on="0"/>
        <pt x="787" y="11" on="0"/>
        <pt x="633" y="-46" on="0"/>
      </contour>
      <contour>
        <pt x="539" y="23" on="1"/>
        <pt x="617" y="23" on="0"/>
        <pt x="741" y="69" on="0"/>
        <pt x="828" y="154" on="0"/>
        <pt x="874" y="276" on="0"/>
        <pt x="874" y="350" on="1"/>
        <pt x="874" y="425" on="0"/>
        <pt x="828" y="546" on="0"/>
        <pt x="741" y="631" on="0"/>
        <pt x="617" y="677" on="0"/>
        <pt x="539" y="677" on="1"/>
      </contour>
    </TTGlyph>
    <TTGlyph name="circle.open" xMin="126" yMin="-46" xMax="952" yMax="746">
      <contour>
        <pt x="539" y="-46" on="1"/>
        <pt x="445" y="-46" on="0"/>
        <pt x="291" y="11" on="0"/>
        <pt x="184" y="113" on="0"/>
        <pt x="126" y="260" on="0"/>
        <pt x="126" y="350" on="1"/>
        <pt x="126" y="439" on="0"/>
        <pt x="184" y="586" on="0"/>
        <pt x="291" y="689" on="0"/>
        <pt x="445" y="746" on="0"/>
        <pt x="539" y="746" on="1"/>
        <pt x="634" y="746" on="0"/>
        <pt x="787" y="689" on="0"/>
        <pt x="894" y="587" on="0"/>
        <pt x="952" y="440" on="0"/>
        <pt x="952" y="350" on="1"/>
        <pt x="952" y="261" on="0"/>
        <pt x="894" y="114" on="0"/>
        <pt x="787" y="11" on="0"/>
        <pt x="633" y="-46" on="0"/>
      </contour>
      <contour>
        <pt x="539" y="23" on="1"/>
        <pt x="617" y="23" on="0"/>
        <pt x="741" y="69" on="0"/>
        <pt x="828" y="154" on="0"/>
        <pt x="874" y="276" on="0"/>
        <pt x="874" y="350" on="1"/>
        <pt x="874" y="425" on="0"/>
        <pt x="828" y="546" on="0"/>
        <pt x="741" y="631" on="0"/>
        <pt x="617" y="677" on="0"/>
        <pt x="539" y="677" on="1"/>
        <pt x="461" y="677" on="0"/>
        <pt x="337" y="631" on="0"/>
        <pt x="250" y="546" on="0"/>
        <pt x="204" y="424" on="0"/>
        <pt x="204" y="350" on="1"/>
        <pt x="204" y="275" on="0"/>
        <pt x="250" y="154" on="0"/>
        <pt x="337" y="69" on="0"/>
        <pt x="461" y="23" on="0"/>
      </contour>
    </TTGlyph>
    <TTGlyph name="circle.solid" xMin="126" yMin="-46" xMax="952" yMax="746">
      <contour>
        <pt x="539" y="-46" on="1"/>
        <pt x="445" y="-46" on="0"/>
        <pt x="291" y="11" on="0"/>
        <pt x="184" y="113" on="0"/>
        <pt x="126" y="260" on="0"/>
        <pt x="126" y="350" on="1"/>
        <pt x="126" y="439" on="0"/>
        <pt x="184" y="586" on="0"/>
        <pt x="291" y="689" on="0"/>
        <pt x="445" y="746" on="0"/>
        <pt x="539" y="746" on="1"/>
        <pt x="634" y="746" on="0"/>
        <pt x="787" y="689" on="0"/>
        <pt x="894" y="587" on="0"/>
        <pt x="952" y="440" on="0"/>
        <pt x="952" y="350" on="1"/>
        <pt x="952" y="261" on="0"/>
        <pt x="894" y="114" on="0"/>
        <pt x="787" y="11" on="0"/>
        <pt x="633" y="-46" on="0"/>
      </contour>
    </TTGlyph>
    <TTGlyph name="circumflex" xMin="138" yMin="636" xMax="524" yMax="807">
      <contour>
        <pt x="138" y="636" on="1"/>
        <pt x="313" y="807" on="1"/>
        <pt x="422" y="807" on="1"/>
        <pt x="524" y="636" on="1"/>
        <pt x="454" y="636" on="1"/>
        <pt x="380" y="757" on="1"/>
        <pt x="342" y="757" on="1"/>
        <pt x="218" y="636" on="1"/>
      </contour>
    </TTGlyph>
    <TTGlyph name="colon" xMin="62" yMin="-12" xMax="260" yMax="456">
      <component glyphName="period" x="0" y="0" flags="0x204"/>
      <component glyphName="period" x="76" y="358" flags="0x4"/>
    </TTGlyph>
    <TTGlyph name="colon.fig" xMin="89" yMin="116" xMax="287" yMax="584">
      <component glyphName="colon" x="27" y="128" flags="0x4"/>
    </TTGlyph>
    <TTGlyph name="colon.tab" xMin="74" yMin="-12" xMax="272" yMax="456">
      <component glyphName="colon" x="12" y="0" flags="0x4"/>
    </TTGlyph>
    <TTGlyph name="colonmonetary" xMin="103" yMin="-113" xMax="814" yMax="805">
      <contour>
        <pt x="185" y="-111" on="1"/>
        <pt x="126" y="-113" on="1"/>
        <pt x="210" y="64" on="1"/>
        <pt x="159" y="104" on="0"/>
        <pt x="103" y="225" on="0"/>
        <pt x="103" y="301" on="1"/>
        <pt x="103" y="383" on="0"/>
        <pt x="159" y="529" on="0"/>
        <pt x="261" y="638" on="0"/>
        <pt x="405" y="701" on="0"/>
        <pt x="492" y="701" on="1"/>
        <pt x="497" y="701" on="0"/>
        <pt x="507" y="701" on="0"/>
        <pt x="512" y="700" on="1"/>
        <pt x="561" y="805" on="1"/>
        <pt x="621" y="805" on="1"/>
        <pt x="569" y="694" on="1"/>
        <pt x="600" y="688" on="0"/>
        <pt x="658" y="668" on="0"/>
        <pt x="683" y="655" on="1"/>
        <pt x="753" y="805" on="1"/>
        <pt x="814" y="805" on="1"/>
        <pt x="461" y="61" on="1"/>
        <pt x="506" y="64" on="0"/>
        <pt x="586" y="86" on="0"/>
        <pt x="621" y="101" on="1"/>
        <pt x="622" y="101" on="1"/>
        <pt x="608" y="35" on="1"/>
        <pt x="571" y="19" on="0"/>
        <pt x="480" y="0" on="0"/>
        <pt x="432" y="-1" on="1"/>
        <pt x="382" y="-106" on="1"/>
        <pt x="323" y="-108" on="1"/>
        <pt x="375" y="2" on="1"/>
        <pt x="341" y="6" on="0"/>
        <pt x="281" y="22" on="0"/>
        <pt x="256" y="35" on="1"/>
      </contour>
      <contour>
        <pt x="172" y="304" on="1"/>
        <pt x="172" y="247" on="0"/>
        <pt x="208" y="157" on="0"/>
        <pt x="241" y="126" on="1"/>
        <pt x="485" y="639" on="1"/>
        <pt x="415" y="638" on="0"/>
        <pt x="299" y="584" on="0"/>
        <pt x="217" y="494" on="0"/>
        <pt x="172" y="372" on="0"/>
      </contour>
      <contour>
        <pt x="282" y="96" on="1"/>
        <pt x="307" y="81" on="0"/>
        <pt x="370" y="63" on="0"/>
        <pt x="405" y="61" on="1"/>
        <pt x="658" y="594" on="1"/>
        <pt x="634" y="607" on="0"/>
        <pt x="572" y="628" on="0"/>
        <pt x="538" y="633" on="1"/>
      </contour>
    </TTGlyph>
    <TTGlyph name="comma" xMin="-15" yMin="-163" xMax="205" yMax="121">
      <contour>
        <pt x="102" y="121" on="1"/>
        <pt x="205" y="121" on="1"/>
        <pt x="205" y="115" on="1"/>
        <pt x="33" y="-163" on="1"/>
        <pt x="-15" y="-163" on="1"/>
      </contour>
    </TTGlyph>
    <TTGlyph name="comma.tab" xMin="12" yMin="-163" xMax="232" yMax="121">
      <component glyphName="comma" x="27" y="0" flags="0x4"/>
    </TTGlyph>
    <TTGlyph name="copyright" xMin="86" yMin="-45" xMax="930" yMax="745">
      <contour>
        <pt x="508" y="-45" on="1"/>
        <pt x="412" y="-45" on="0"/>
        <pt x="255" y="11" on="0"/>
        <pt x="146" y="114" on="0"/>
        <pt x="86" y="260" on="0"/>
        <pt x="86" y="350" on="1"/>
        <pt x="86" y="440" on="0"/>
        <pt x="146" y="586" on="0"/>
        <pt x="255" y="689" on="0"/>
        <pt x="412" y="745" on="0"/>
        <pt x="508" y="745" on="1"/>
        <pt x="604" y="745" on="0"/>
        <pt x="761" y="689" on="0"/>
        <pt x="870" y="586" on="0"/>
        <pt x="930" y="440" on="0"/>
        <pt x="930" y="350" on="1"/>
        <pt x="930" y="260" on="0"/>
        <pt x="870" y="114" on="0"/>
        <pt x="761" y="11" on="0"/>
        <pt x="604" y="-45" on="0"/>
      </contour>
      <contour>
        <pt x="508" y="7" on="1"/>
        <pt x="591" y="7" on="0"/>
        <pt x="726" y="55" on="0"/>
        <pt x="820" y="144" on="0"/>
        <pt x="871" y="272" on="0"/>
        <pt x="871" y="350" on="1"/>
        <pt x="871" y="428" on="0"/>
        <pt x="820" y="556" on="0"/>
        <pt x="726" y="645" on="0"/>
        <pt x="591" y="693" on="0"/>
        <pt x="508" y="693" on="1"/>
        <pt x="425" y="693" on="0"/>
        <pt x="290" y="645" on="0"/>
        <pt x="196" y="556" on="0"/>
        <pt x="145" y="428" on="0"/>
        <pt x="145" y="350" on="1"/>
        <pt x="145" y="272" on="0"/>
        <pt x="196" y="144" on="0"/>
        <pt x="290" y="55" on="0"/>
        <pt x="425" y="7" on="0"/>
      </contour>
      <contour>
        <pt x="522" y="165" on="1"/>
        <pt x="426" y="165" on="0"/>
        <pt x="323" y="273" on="0"/>
        <pt x="323" y="352" on="1"/>
        <pt x="323" y="392" on="0"/>
        <pt x="351" y="462" on="0"/>
        <pt x="403" y="513" on="0"/>
        <pt x="478" y="542" on="0"/>
        <pt x="524" y="542" on="1"/>
        <pt x="567" y="542" on="0"/>
        <pt x="640" y="517" on="0"/>
        <pt x="666" y="496" on="1"/>
        <pt x="666" y="441" on="1"/>
        <pt x="665" y="441" on="1"/>
        <pt x="635" y="464" on="0"/>
        <pt x="568" y="492" on="0"/>
        <pt x="528" y="492" on="1"/>
        <pt x="462" y="492" on="0"/>
        <pt x="381" y="412" on="0"/>
        <pt x="381" y="352" on="1"/>
        <pt x="381" y="292" on="0"/>
        <pt x="457" y="215" on="0"/>
        <pt x="528" y="215" on="1"/>
        <pt x="572" y="215" on="0"/>
        <pt x="637" y="244" on="0"/>
        <pt x="666" y="267" on="1"/>
        <pt x="667" y="267" on="1"/>
        <pt x="667" y="211" on="1"/>
        <pt x="642" y="192" on="0"/>
        <pt x="570" y="165" on="0"/>
      </contour>
    </TTGlyph>
    <TTGlyph name="d" xMin="56" yMin="-12" xMax="644" yMax="746">
      <contour>
        <pt x="241" y="-12" on="1"/>
        <pt x="203" y="-12" on="0"/>
        <pt x="135" y="13" on="0"/>
        <pt x="85" y="64" on="0"/>
        <pt x="56" y="141" on="0"/>
        <pt x="56" y="192" on="1"/>
        <pt x="56" y="262" on="0"/>
        <pt x="100" y="390" on="0"/>
        <pt x="178" y="485" on="0"/>
        <pt x="286" y="542" on="0"/>
        <pt x="349" y="542" on="1"/>
        <pt x="405" y="542" on="0"/>
        <pt x="488" y="500" on="0"/>
        <pt x="513" y="466" on="1"/>
        <pt x="573" y="746" on="1"/>
        <pt x="644" y="746" on="1"/>
        <pt x="486" y="0" on="1"/>
        <pt x="415" y="0" on="1"/>
        <pt x="435" y="86" on="1"/>
        <pt x="395" y="43" on="0"/>
        <pt x="298" y="-12" on="0"/>
      </contour>
      <contour>
        <pt x="263" y="48" on="1"/>
        <pt x="314" y="48" on="0"/>
        <pt x="406" y="100" on="0"/>
        <pt x="446" y="145" on="1"/>
        <pt x="500" y="403" on="1"/>
        <pt x="477" y="437" on="0"/>
        <pt x="402" y="481" on="0"/>
        <pt x="351" y="481" on="1"/>
        <pt x="300" y="481" on="0"/>
        <pt x="217" y="433" on="0"/>
        <pt x="160" y="356" on="0"/>
        <pt x="128" y="254" on="0"/>
        <pt x="128" y="200" on="1"/>
        <pt x="128" y="123" on="0"/>
        <pt x="204" y="48" on="0"/>
      </contour>
    </TTGlyph>
    <TTGlyph name="d.sc" xMin="68" yMin="0" xMax="673" yMax="575">
      <contour>
        <pt x="68" y="0" on="1"/>
        <pt x="190" y="575" on="1"/>
        <pt x="398" y="575" on="1"/>
        <pt x="469" y="575" on="0"/>
        <pt x="574" y="539" on="0"/>
        <pt x="641" y="475" on="0"/>
        <pt x="673" y="386" on="0"/>
        <pt x="673" y="334" on="1"/>
        <pt x="673" y="268" on="0"/>
        <pt x="628" y="147" on="0"/>
        <pt x="535" y="55" on="0"/>
        <pt x="392" y="0" on="0"/>
        <pt x="295" y="0" on="1"/>
      </contour>
      <contour>
        <pt x="600" y="329" on="1"/>
        <pt x="600" y="412" on="0"/>
        <pt x="500" y="512" on="0"/>
        <pt x="391" y="512" on="1"/>
        <pt x="249" y="512" on="1"/>
        <pt x="153" y="63" on="1"/>
        <pt x="304" y="63" on="1"/>
        <pt x="380" y="63" on="0"/>
        <pt x="493" y="106" on="0"/>
        <pt x="565" y="179" on="0"/>
        <pt x="600" y="276" on="0"/>
      </contour>
    </TTGlyph>
    <TTGlyph name="dagger" xMin="139" yMin="215" xMax="516" yMax="718">
      <contour>
        <pt x="228" y="215" on="1"/>
        <pt x="293" y="520" on="1"/>
        <pt x="139" y="520" on="1"/>
        <pt x="159" y="575" on="1"/>
        <pt x="305" y="575" on="1"/>
        <pt x="335" y="718" on="1"/>
        <pt x="398" y="718" on="1"/>
        <pt x="368" y="575" on="1"/>
        <pt x="516" y="575" on="1"/>
        <pt x="504" y="520" on="1"/>
        <pt x="356" y="520" on="1"/>
        <pt x="291" y="215" on="1"/>
      </contour>
    </TTGlyph>
    <TTGlyph name="daggerdbl" xMin="101" yMin="167" xMax="516" yMax="718">
      <contour>
        <pt x="218" y="167" on="1"/>
        <pt x="248" y="310" on="1"/>
        <pt x="101" y="310" on="1"/>
        <pt x="112" y="365" on="1"/>
        <pt x="260" y="365" on="1"/>
        <pt x="293" y="520" on="1"/>
        <pt x="139" y="520" on="1"/>
        <pt x="159" y="575" on="1"/>
        <pt x="305" y="575" on="1"/>
        <pt x="335" y="718" on="1"/>
        <pt x="398" y="718" on="1"/>
        <pt x="368" y="575" on="1"/>
        <pt x="516" y="575" on="1"/>
        <pt x="504" y="520" on="1"/>
        <pt x="356" y="520" on="1"/>
        <pt x="323" y="365" on="1"/>
        <pt x="477" y="365" on="1"/>
        <pt x="458" y="310" on="1"/>
        <pt x="311" y="310" on="1"/>
        <pt x="281" y="167" on="1"/>
      </contour>
    </TTGlyph>
    <TTGlyph name="dcaron" xMin="56" yMin="-12" xMax="821" yMax="746">
      <component glyphName="d" x="0" y="0" flags="0x204"/>
      <component glyphName="caron.alt" x="445" y="-35" flags="0x4"/>
    </TTGlyph>
    <TTGlyph name="dcaron.sc" xMin="68" yMin="0" xMax="673" yMax="854">
      <component glyphName="d.sc" x="0" y="0" flags="0x204"/>
      <component glyphName="caron" x="93" y="47" flags="0x4"/>
    </TTGlyph>
    <TTGlyph name="dcroat" xMin="54" yMin="-12" xMax="710" yMax="746">
      <contour>
        <pt x="237" y="-12" on="1"/>
        <pt x="199" y="-12" on="0"/>
        <pt x="132" y="13" on="0"/>
        <pt x="83" y="63" on="0"/>
        <pt x="54" y="139" on="0"/>
        <pt x="54" y="189" on="1"/>
        <pt x="54" y="254" on="0"/>
        <pt x="97" y="371" on="0"/>
        <pt x="174" y="459" on="0"/>
        <pt x="282" y="512" on="0"/>
        <pt x="346" y="512" on="1"/>
        <pt x="400" y="512" on="0"/>
        <pt x="480" y="478" on="0"/>
        <pt x="507" y="451" on="1"/>
        <pt x="539" y="601" on="1"/>
        <pt x="344" y="601" on="1"/>
        <pt x="354" y="650" on="1"/>
        <pt x="549" y="650" on="1"/>
        <pt x="570" y="746" on="1"/>
        <pt x="641" y="746" on="1"/>
        <pt x="621" y="650" on="1"/>
        <pt x="708" y="650" on="1"/>
        <pt x="710" y="601" on="1"/>
        <pt x="610" y="601" on="1"/>
        <pt x="483" y="0" on="1"/>
        <pt x="412" y="0" on="1"/>
        <pt x="431" y="86" on="1"/>
        <pt x="391" y="43" on="0"/>
        <pt x="294" y="-12" on="0"/>
      </contour>
      <contour>
        <pt x="260" y="48" on="1"/>
        <pt x="310" y="48" on="0"/>
        <pt x="401" y="100" on="0"/>
        <pt x="442" y="145" on="1"/>
        <pt x="493" y="386" on="1"/>
        <pt x="469" y="415" on="0"/>
        <pt x="395" y="450" on="0"/>
        <pt x="348" y="450" on="1"/>
        <pt x="297" y="450" on="0"/>
        <pt x="214" y="407" on="0"/>
        <pt x="157" y="337" on="0"/>
        <pt x="126" y="246" on="0"/>
        <pt x="126" y="197" on="1"/>
        <pt x="126" y="122" on="0"/>
        <pt x="201" y="48" on="0"/>
      </contour>
    </TTGlyph>
    <TTGlyph name="dcroat.sc" xMin="55" yMin="0" xMax="708" yMax="575">
      <component glyphName="eth.sc" x="0" y="0" flags="0x204"/>
    </TTGlyph>
    <TTGlyph name="degree" xMin="123" yMin="316" xMax="539" yMax="713">
      <contour>
        <pt x="349" y="713" on="1"/>
        <pt x="438" y="713" on="0"/>
        <pt x="539" y="611" on="0"/>
        <pt x="539" y="533" on="1"/>
        <pt x="539" y="489" on="0"/>
        <pt x="508" y="409" on="0"/>
        <pt x="450" y="350" on="0"/>
        <pt x="366" y="316" on="0"/>
        <pt x="314" y="316" on="1"/>
        <pt x="225" y="316" on="0"/>
        <pt x="123" y="417" on="0"/>
        <pt x="123" y="495" on="1"/>
        <pt x="123" y="540" on="0"/>
        <pt x="154" y="620" on="0"/>
        <pt x="213" y="678" on="0"/>
        <pt x="297" y="713" on="0"/>
      </contour>
      <contour>
        <pt x="317" y="373" on="1"/>
        <pt x="388" y="373" on="0"/>
        <pt x="475" y="463" on="0"/>
        <pt x="475" y="530" on="1"/>
        <pt x="475" y="582" on="0"/>
        <pt x="409" y="656" on="0"/>
        <pt x="346" y="656" on="1"/>
        <pt x="275" y="656" on="0"/>
        <pt x="188" y="565" on="0"/>
        <pt x="188" y="499" on="1"/>
        <pt x="188" y="446" on="0"/>
        <pt x="254" y="373" on="0"/>
      </contour>
    </TTGlyph>
    <TTGlyph name="degree.tab" xMin="163" yMin="316" xMax="579" yMax="713">
      <component glyphName="degree" x="40" y="0" flags="0x4"/>
    </TTGlyph>
    <TTGlyph name="dieresis" xMin="166" yMin="637" xMax="514" yMax="729">
      <contour>
        <pt x="268" y="688" on="1"/>
        <pt x="268" y="668" on="0"/>
        <pt x="238" y="637" on="0"/>
        <pt x="212" y="637" on="1"/>
        <pt x="190" y="637" on="0"/>
        <pt x="166" y="661" on="0"/>
        <pt x="166" y="679" on="1"/>
        <pt x="166" y="699" on="0"/>
        <pt x="196" y="729" on="0"/>
        <pt x="221" y="729" on="1"/>
        <pt x="243" y="729" on="0"/>
        <pt x="268" y="706" on="0"/>
      </contour>
      <contour>
        <pt x="514" y="688" on="1"/>
        <pt x="514" y="668" on="0"/>
        <pt x="484" y="637" on="0"/>
        <pt x="459" y="637" on="1"/>
        <pt x="437" y="637" on="0"/>
        <pt x="413" y="661" on="0"/>
        <pt x="413" y="679" on="1"/>
        <pt x="413" y="699" on="0"/>
        <pt x="443" y="729" on="0"/>
        <pt x="468" y="729" on="1"/>
        <pt x="490" y="729" on="0"/>
        <pt x="514" y="706" on="0"/>
      </contour>
    </TTGlyph>
    <TTGlyph name="divide" xMin="117" yMin="80" xMax="683" yMax="622">
      <contour>
        <pt x="450" y="622" on="1"/>
        <pt x="473" y="622" on="0"/>
        <pt x="501" y="595" on="0"/>
        <pt x="501" y="576" on="1"/>
        <pt x="501" y="554" on="0"/>
        <pt x="469" y="521" on="0"/>
        <pt x="442" y="521" on="1"/>
        <pt x="419" y="521" on="0"/>
        <pt x="391" y="547" on="0"/>
        <pt x="391" y="566" on="1"/>
        <pt x="391" y="588" on="0"/>
        <pt x="423" y="622" on="0"/>
      </contour>
      <contour>
        <pt x="683" y="383" on="1"/>
        <pt x="670" y="319" on="1"/>
        <pt x="117" y="319" on="1"/>
        <pt x="131" y="383" on="1"/>
      </contour>
      <contour>
        <pt x="299" y="126" on="1"/>
        <pt x="299" y="148" on="0"/>
        <pt x="331" y="181" on="0"/>
        <pt x="358" y="181" on="1"/>
        <pt x="382" y="181" on="0"/>
        <pt x="410" y="154" on="0"/>
        <pt x="410" y="135" on="1"/>
        <pt x="410" y="113" on="0"/>
        <pt x="378" y="80" on="0"/>
        <pt x="350" y="80" on="1"/>
        <pt x="327" y="80" on="0"/>
        <pt x="299" y="106" on="0"/>
      </contour>
    </TTGlyph>
    <TTGlyph name="divide.tab" xMin="99" yMin="80" xMax="665" yMax="622">
      <component glyphName="divide" x="-18" y="0" flags="0x4"/>
    </TTGlyph>
    <TTGlyph name="dollar" xMin="57" yMin="-114" xMax="651" yMax="806">
      <contour>
        <pt x="72" y="175" on="1"/>
        <pt x="101" y="154" on="0"/>
        <pt x="173" y="118" on="0"/>
        <pt x="250" y="92" on="0"/>
        <pt x="328" y="78" on="0"/>
        <pt x="363" y="78" on="1"/>
        <pt x="447" y="78" on="0"/>
        <pt x="530" y="143" on="0"/>
        <pt x="530" y="194" on="1"/>
        <pt x="530" y="240" on="0"/>
        <pt x="450" y="292" on="0"/>
        <pt x="353" y="323" on="1"/>
        <pt x="254" y="354" on="0"/>
        <pt x="146" y="427" on="0"/>
        <pt x="146" y="501" on="1"/>
        <pt x="146" y="539" on="0"/>
        <pt x="177" y="607" on="0"/>
        <pt x="237" y="656" on="0"/>
        <pt x="327" y="685" on="0"/>
        <pt x="385" y="685" on="1"/>
        <pt x="391" y="685" on="0"/>
        <pt x="403" y="685" on="0"/>
        <pt x="409" y="684" on="1"/>
        <pt x="435" y="806" on="1"/>
        <pt x="501" y="806" on="1"/>
        <pt x="473" y="676" on="1"/>
        <pt x="523" y="666" on="0"/>
        <pt x="614" y="629" on="0"/>
        <pt x="651" y="604" on="1"/>
        <pt x="636" y="537" on="1"/>
        <pt x="635" y="537" on="1"/>
        <pt x="580" y="577" on="0"/>
        <pt x="443" y="622" on="0"/>
        <pt x="383" y="622" on="1"/>
        <pt x="306" y="622" on="0"/>
        <pt x="216" y="562" on="0"/>
        <pt x="216" y="507" on="1"/>
        <pt x="216" y="462" on="0"/>
        <pt x="298" y="411" on="0"/>
        <pt x="390" y="383" on="1"/>
        <pt x="491" y="351" on="0"/>
        <pt x="601" y="274" on="0"/>
        <pt x="601" y="199" on="1"/>
        <pt x="601" y="120" on="0"/>
        <pt x="479" y="15" on="0"/>
        <pt x="357" y="15" on="1"/>
        <pt x="351" y="15" on="0"/>
        <pt x="339" y="15" on="0"/>
        <pt x="334" y="16" on="1"/>
        <pt x="308" y="-106" on="1"/>
        <pt x="240" y="-114" on="1"/>
        <pt x="269" y="23" on="1"/>
        <pt x="209" y="33" on="0"/>
        <pt x="98" y="79" on="0"/>
        <pt x="57" y="108" on="1"/>
        <pt x="71" y="175" on="1"/>
      </contour>
    </TTGlyph>
    <TTGlyph name="dollar.tab" xMin="78" yMin="-114" xMax="665" yMax="806">
      <contour>
        <pt x="93" y="176" on="1"/>
        <pt x="122" y="154" on="0"/>
        <pt x="193" y="118" on="0"/>
        <pt x="269" y="92" on="0"/>
        <pt x="346" y="78" on="0"/>
        <pt x="381" y="78" on="1"/>
        <pt x="463" y="78" on="0"/>
        <pt x="544" y="143" on="0"/>
        <pt x="544" y="194" on="1"/>
        <pt x="544" y="240" on="0"/>
        <pt x="466" y="292" on="0"/>
        <pt x="371" y="323" on="1"/>
        <pt x="273" y="354" on="0"/>
        <pt x="167" y="427" on="0"/>
        <pt x="167" y="502" on="1"/>
        <pt x="167" y="540" on="0"/>
        <pt x="198" y="607" on="0"/>
        <pt x="257" y="656" on="0"/>
        <pt x="346" y="685" on="0"/>
        <pt x="403" y="685" on="1"/>
        <pt x="409" y="685" on="0"/>
        <pt x="421" y="685" on="0"/>
        <pt x="427" y="684" on="1"/>
        <pt x="453" y="806" on="1"/>
        <pt x="519" y="806" on="1"/>
        <pt x="491" y="676" on="1"/>
        <pt x="540" y="666" on="0"/>
        <pt x="629" y="628" on="0"/>
        <pt x="665" y="604" on="1"/>
        <pt x="650" y="537" on="1"/>
        <pt x="649" y="537" on="1"/>
        <pt x="595" y="577" on="0"/>
        <pt x="461" y="622" on="0"/>
        <pt x="401" y="622" on="1"/>
        <pt x="326" y="622" on="0"/>
        <pt x="237" y="562" on="0"/>
        <pt x="237" y="507" on="1"/>
        <pt x="237" y="462" on="0"/>
        <pt x="318" y="411" on="0"/>
        <pt x="408" y="383" on="1"/>
        <pt x="507" y="351" on="0"/>
        <pt x="615" y="274" on="0"/>
        <pt x="615" y="198" on="1"/>
        <pt x="615" y="120" on="0"/>
        <pt x="494" y="15" on="0"/>
        <pt x="375" y="15" on="1"/>
        <pt x="369" y="15" on="0"/>
        <pt x="357" y="15" on="0"/>
        <pt x="351" y="16" on="1"/>
        <pt x="325" y="-106" on="1"/>
        <pt x="258" y="-114" on="1"/>
        <pt x="287" y="23" on="1"/>
        <pt x="228" y="34" on="0"/>
        <pt x="118" y="80" on="0"/>
        <pt x="78" y="109" on="1"/>
        <pt x="92" y="176" on="1"/>
      </contour>
    </TTGlyph>
    <TTGlyph name="dotaccent" xMin="287" yMin="637" xMax="393" yMax="732">
      <contour>
        <pt x="287" y="680" on="1"/>
        <pt x="287" y="700" on="0"/>
        <pt x="317" y="732" on="0"/>
        <pt x="344" y="732" on="1"/>
        <pt x="367" y="732" on="0"/>
        <pt x="393" y="708" on="0"/>
        <pt x="393" y="689" on="1"/>
        <pt x="393" y="669" on="0"/>
        <pt x="362" y="637" on="0"/>
        <pt x="336" y="637" on="1"/>
        <pt x="312" y="637" on="0"/>
        <pt x="287" y="662" on="0"/>
      </contour>
    </TTGlyph>
    <TTGlyph name="dotlessi" xMin="53" yMin="0" xMax="237" yMax="528">
      <contour>
        <pt x="166" y="528" on="1"/>
        <pt x="237" y="528" on="1"/>
        <pt x="124" y="0" on="1"/>
        <pt x="53" y="0" on="1"/>
      </contour>
    </TTGlyph>
    <TTGlyph name="dotlessi.sc" xMin="69" yMin="0" xMax="263" yMax="575">
      <component glyphName="i.sc" x="0" y="0" flags="0x204"/>
    </TTGlyph>
    <TTGlyph name="dotmath" xMin="114" yMin="295" xMax="236" yMax="405">
      <component glyphName="period" x="52" y="307" flags="0x4"/>
    </TTGlyph>
    <TTGlyph name="dotmath.tab" xMin="138" yMin="295" xMax="260" yMax="405">
      <component glyphName="dotmath" x="24" y="0" flags="0x4"/>
    </TTGlyph>
    <TTGlyph name="e" xMin="60" yMin="-13" xMax="542" yMax="542">
      <contour>
        <pt x="306" y="47" on="1"/>
        <pt x="357" y="47" on="0"/>
        <pt x="452" y="80" on="0"/>
        <pt x="494" y="108" on="1"/>
        <pt x="495" y="108" on="1"/>
        <pt x="480" y="38" on="1"/>
        <pt x="443" y="16" on="0"/>
        <pt x="351" y="-13" on="0"/>
        <pt x="297" y="-13" on="1"/>
        <pt x="190" y="-13" on="0"/>
        <pt x="60" y="105" on="0"/>
        <pt x="60" y="212" on="1"/>
        <pt x="60" y="281" on="0"/>
        <pt x="105" y="403" on="0"/>
        <pt x="182" y="491" on="0"/>
        <pt x="288" y="542" on="0"/>
        <pt x="349" y="542" on="1"/>
        <pt x="439" y="542" on="0"/>
        <pt x="542" y="436" on="0"/>
        <pt x="542" y="348" on="1"/>
        <pt x="542" y="324" on="0"/>
        <pt x="535" y="279" on="0"/>
        <pt x="528" y="255" on="1"/>
        <pt x="132" y="255" on="1"/>
        <pt x="132" y="248" on="0"/>
        <pt x="131" y="233" on="0"/>
        <pt x="131" y="226" on="1"/>
        <pt x="130" y="215" on="1"/>
        <pt x="130" y="128" on="0"/>
        <pt x="228" y="47" on="0"/>
      </contour>
      <contour>
        <pt x="343" y="483" on="1"/>
        <pt x="272" y="482" on="0"/>
        <pt x="161" y="384" on="0"/>
        <pt x="141" y="304" on="1"/>
        <pt x="471" y="304" on="1"/>
        <pt x="473" y="314" on="0"/>
        <pt x="475" y="337" on="0"/>
        <pt x="475" y="350" on="1"/>
        <pt x="475" y="410" on="0"/>
        <pt x="409" y="484" on="0"/>
      </contour>
    </TTGlyph>
    <TTGlyph name="e.sc" xMin="68" yMin="0" xMax="629" yMax="575">
      <contour>
        <pt x="68" y="0" on="1"/>
        <pt x="190" y="575" on="1"/>
        <pt x="629" y="575" on="1"/>
        <pt x="629" y="513" on="1"/>
        <pt x="248" y="513" on="1"/>
        <pt x="208" y="325" on="1"/>
        <pt x="516" y="325" on="1"/>
        <pt x="503" y="264" on="1"/>
        <pt x="195" y="264" on="1"/>
        <pt x="152" y="62" on="1"/>
        <pt x="552" y="62" on="1"/>
        <pt x="530" y="0" on="1"/>
      </contour>
    </TTGlyph>
    <TTGlyph name="eacute" xMin="60" yMin="-13" xMax="596" yMax="814">
      <component glyphName="e" x="0" y="0" flags="0x204"/>
      <component glyphName="acute" x="99" y="14" flags="0x4"/>
    </TTGlyph>
    <TTGlyph name="eacute.sc" xMin="68" yMin="0" xMax="641" yMax="847">
      <component glyphName="e.sc" x="0" y="0" flags="0x204"/>
      <component glyphName="acute" x="144" y="47" flags="0x4"/>
    </TTGlyph>
    <TTGlyph name="ebreve" xMin="60" yMin="-13" xMax="572" yMax="822">
      <component glyphName="e" x="0" y="0" flags="0x204"/>
      <component glyphName="breve" x="46" y="14" flags="0x4"/>
    </TTGlyph>
    <TTGlyph name="ebreve.sc" xMin="68" yMin="0" xMax="629" yMax="855">
      <component glyphName="e.sc" x="0" y="0" flags="0x204"/>
      <component glyphName="breve" x="91" y="47" flags="0x4"/>
    </TTGlyph>
    <TTGlyph name="ecaron" xMin="60" yMin="-13" xMax="606" yMax="821">
      <component glyphName="e" x="0" y="0" flags="0x204"/>
      <component glyphName="caron" x="47" y="14" flags="0x4"/>
    </TTGlyph>
    <TTGlyph name="ecaron.sc" xMin="68" yMin="0" xMax="650" yMax="854">
      <component glyphName="e.sc" x="0" y="0" flags="0x204"/>
      <component glyphName="caron" x="91" y="47" flags="0x4"/>
    </TTGlyph>
    <TTGlyph name="ecircumflex" xMin="60" yMin="-13" xMax="570" yMax="821">
      <component glyphName="e" x="0" y="0" flags="0x204"/>
      <component glyphName="circumflex" x="46" y="14" flags="0x4"/>
    </TTGlyph>
    <TTGlyph name="ecircumflex.sc" xMin="68" yMin="0" xMax="629" yMax="854">
      <component glyphName="e.sc" x="0" y="0" flags="0x204"/>
      <component glyphName="circumflex" x="91" y="47" flags="0x4"/>
    </TTGlyph>
    <TTGlyph name="edieresis" xMin="60" yMin="-13" xMax="560" yMax="743">
      <component glyphName="e" x="0" y="0" flags="0x204"/>
      <component glyphName="dieresis" x="46" y="14" flags="0x4"/>
    </TTGlyph>
    <TTGlyph name="edieresis.sc" xMin="68" yMin="0" xMax="629" yMax="776">
      <component glyphName="e.sc" x="0" y="0" flags="0x204"/>
      <component glyphName="dieresis" x="91" y="47" flags="0x4"/>
    </TTGlyph>
    <TTGlyph name="edotaccent" xMin="60" yMin="-13" xMax="542" yMax="746">
      <component glyphName="e" x="0" y="0" flags="0x204"/>
      <component glyphName="dotaccent" x="46" y="14" flags="0x4"/>
    </TTGlyph>
    <TTGlyph name="edotaccent.sc" xMin="68" yMin="0" xMax="629" yMax="779">
      <component glyphName="e.sc" x="0" y="0" flags="0x204"/>
      <component glyphName="dotaccent" x="91" y="47" flags="0x4"/>
    </TTGlyph>
    <TTGlyph name="egrave" xMin="60" yMin="-13" xMax="542" yMax="814">
      <component glyphName="e" x="0" y="0" flags="0x204"/>
      <component glyphName="grave" x="-8" y="14" flags="0x4"/>
    </TTGlyph>
    <TTGlyph name="egrave.sc" xMin="68" yMin="0" xMax="629" yMax="847">
      <component glyphName="e.sc" x="0" y="0" flags="0x204"/>
      <component glyphName="grave" x="37" y="47" flags="0x4"/>
    </TTGlyph>
    <TTGlyph name="eight" xMin="55" yMin="-22" xMax="689" yMax="719">
      <contour>
        <pt x="337" y="-22" on="1"/>
        <pt x="200" y="-22" on="0"/>
        <pt x="55" y="82" on="0"/>
        <pt x="55" y="163" on="1"/>
        <pt x="55" y="238" on="0"/>
        <pt x="167" y="344" on="0"/>
        <pt x="267" y="360" on="1"/>
        <pt x="207" y="381" on="0"/>
        <pt x="144" y="462" on="0"/>
        <pt x="144" y="514" on="1"/>
        <pt x="144" y="555" on="0"/>
        <pt x="180" y="630" on="0"/>
        <pt x="252" y="686" on="0"/>
        <pt x="359" y="719" on="0"/>
        <pt x="429" y="719" on="1"/>
        <pt x="553" y="719" on="0"/>
        <pt x="689" y="611" on="0"/>
        <pt x="689" y="533" on="1"/>
        <pt x="689" y="457" on="0"/>
        <pt x="581" y="362" on="0"/>
        <pt x="500" y="346" on="1"/>
        <pt x="562" y="325" on="0"/>
        <pt x="638" y="245" on="0"/>
        <pt x="638" y="183" on="1"/>
        <pt x="638" y="95" on="0"/>
        <pt x="477" y="-22" on="0"/>
      </contour>
      <contour>
        <pt x="406" y="378" on="1"/>
        <pt x="450" y="378" on="0"/>
        <pt x="526" y="398" on="0"/>
        <pt x="582" y="437" on="0"/>
        <pt x="614" y="492" on="0"/>
        <pt x="614" y="526" on="1"/>
        <pt x="614" y="587" on="0"/>
        <pt x="513" y="658" on="0"/>
        <pt x="426" y="658" on="1"/>
        <pt x="382" y="658" on="0"/>
        <pt x="306" y="638" on="0"/>
        <pt x="250" y="600" on="0"/>
        <pt x="218" y="545" on="0"/>
        <pt x="218" y="510" on="1"/>
        <pt x="218" y="450" on="0"/>
        <pt x="319" y="378" on="0"/>
      </contour>
      <contour>
        <pt x="356" y="325" on="1"/>
        <pt x="255" y="325" on="0"/>
        <pt x="130" y="242" on="0"/>
        <pt x="130" y="173" on="1"/>
        <pt x="130" y="112" on="0"/>
        <pt x="239" y="39" on="0"/>
        <pt x="337" y="39" on="1"/>
        <pt x="438" y="39" on="0"/>
        <pt x="562" y="121" on="0"/>
        <pt x="562" y="190" on="1"/>
        <pt x="562" y="252" on="0"/>
        <pt x="454" y="325" on="0"/>
      </contour>
    </TTGlyph>
    <TTGlyph name="eight.den" xMin="6" yMin="-11" xMax="374" yMax="410">
      <component glyphName="eight.small" x="-16" y="0" flags="0x4"/>
    </TTGlyph>
    <TTGlyph name="eight.den_tab" xMin="-12" yMin="-11" xMax="356" yMax="410">
      <component glyphName="eight.small" x="-34" y="0" flags="0x4"/>
    </TTGlyph>
    <TTGlyph name="eight.inf" xMin="2" yMin="-197" xMax="370" yMax="224">
      <component glyphName="eight.small" x="-20" y="-186" flags="0x4"/>
    </TTGlyph>
    <TTGlyph name="eight.num" xMin="102" yMin="289" xMax="470" yMax="710">
      <component glyphName="eight.small" x="80" y="300" flags="0x4"/>
    </TTGlyph>
    <TTGlyph name="eight.num_tab" xMin="83" yMin="289" xMax="451" yMax="710">
      <component glyphName="eight.small" x="61" y="300" flags="0x4"/>
    </TTGlyph>
    <TTGlyph name="eight.osf" xMin="63" yMin="-22" xMax="657" yMax="719">
      <contour>
        <pt x="416" y="719" on="1"/>
        <pt x="532" y="719" on="0"/>
        <pt x="657" y="613" on="0"/>
        <pt x="657" y="534" on="1"/>
        <pt x="657" y="462" on="0"/>
        <pt x="559" y="361" on="0"/>
        <pt x="479" y="345" on="1"/>
        <pt x="540" y="323" on="0"/>
        <pt x="607" y="240" on="0"/>
        <pt x="607" y="184" on="1"/>
        <pt x="607" y="141" on="0"/>
        <pt x="570" y="65" on="0"/>
        <pt x="499" y="10" on="0"/>
        <pt x="394" y="-22" on="0"/>
        <pt x="327" y="-22" on="1"/>
        <pt x="205" y="-22" on="0"/>
        <pt x="63" y="79" on="0"/>
        <pt x="63" y="163" on="1"/>
        <pt x="63" y="241" on="0"/>
        <pt x="174" y="345" on="0"/>
        <pt x="264" y="361" on="1"/>
        <pt x="212" y="382" on="0"/>
        <pt x="152" y="457" on="0"/>
        <pt x="152" y="514" on="1"/>
        <pt x="152" y="555" on="0"/>
        <pt x="188" y="630" on="0"/>
        <pt x="256" y="686" on="0"/>
        <pt x="354" y="719" on="0"/>
      </contour>
      <contour>
        <pt x="413" y="659" on="1"/>
        <pt x="330" y="659" on="0"/>
        <pt x="223" y="576" on="0"/>
        <pt x="223" y="510" on="1"/>
        <pt x="223" y="448" on="0"/>
        <pt x="317" y="379" on="0"/>
        <pt x="395" y="379" on="1"/>
        <pt x="478" y="379" on="0"/>
        <pt x="586" y="462" on="0"/>
        <pt x="586" y="528" on="1"/>
        <pt x="586" y="590" on="0"/>
        <pt x="491" y="659" on="0"/>
      </contour>
      <contour>
        <pt x="329" y="38" on="1"/>
        <pt x="422" y="38" on="0"/>
        <pt x="535" y="121" on="0"/>
        <pt x="535" y="190" on="1"/>
        <pt x="535" y="250" on="0"/>
        <pt x="432" y="324" on="0"/>
        <pt x="342" y="324" on="1"/>
        <pt x="252" y="324" on="0"/>
        <pt x="136" y="241" on="0"/>
        <pt x="136" y="172" on="1"/>
        <pt x="136" y="112" on="0"/>
        <pt x="239" y="38" on="0"/>
      </contour>
    </TTGlyph>
    <TTGlyph name="eight.small" xMin="22" yMin="-11" xMax="390" yMax="410">
      <contour>
        <pt x="186" y="-11" on="1"/>
        <pt x="106" y="-11" on="0"/>
        <pt x="22" y="46" on="0"/>
        <pt x="22" y="94" on="1"/>
        <pt x="22" y="137" on="0"/>
        <pt x="85" y="197" on="0"/>
        <pt x="140" y="206" on="1"/>
        <pt x="107" y="218" on="0"/>
        <pt x="73" y="263" on="0"/>
        <pt x="73" y="292" on="1"/>
        <pt x="73" y="340" on="0"/>
        <pt x="156" y="410" on="0"/>
        <pt x="239" y="410" on="1"/>
        <pt x="313" y="410" on="0"/>
        <pt x="390" y="349" on="0"/>
        <pt x="390" y="303" on="1"/>
        <pt x="390" y="260" on="0"/>
        <pt x="331" y="205" on="0"/>
        <pt x="285" y="198" on="1"/>
        <pt x="320" y="186" on="0"/>
        <pt x="362" y="140" on="0"/>
        <pt x="362" y="106" on="1"/>
        <pt x="362" y="55" on="0"/>
        <pt x="270" y="-11" on="0"/>
      </contour>
      <contour>
        <pt x="226" y="221" on="1"/>
        <pt x="272" y="221" on="0"/>
        <pt x="335" y="262" on="0"/>
        <pt x="335" y="296" on="1"/>
        <pt x="335" y="327" on="0"/>
        <pt x="283" y="364" on="0"/>
        <pt x="237" y="364" on="1"/>
        <pt x="190" y="364" on="0"/>
        <pt x="128" y="323" on="0"/>
        <pt x="128" y="289" on="1"/>
        <pt x="128" y="258" on="0"/>
        <pt x="180" y="221" on="0"/>
      </contour>
      <contour>
        <pt x="197" y="181" on="1"/>
        <pt x="143" y="181" on="0"/>
        <pt x="79" y="139" on="0"/>
        <pt x="79" y="103" on="1"/>
        <pt x="79" y="72" on="0"/>
        <pt x="136" y="35" on="0"/>
        <pt x="187" y="35" on="1"/>
        <pt x="241" y="35" on="0"/>
        <pt x="305" y="77" on="0"/>
        <pt x="305" y="112" on="1"/>
        <pt x="305" y="143" on="0"/>
        <pt x="248" y="181" on="0"/>
      </contour>
    </TTGlyph>
    <TTGlyph name="eight.sup" xMin="117" yMin="343" xMax="485" yMax="764">
      <component glyphName="eight.small" x="95" y="354" flags="0x4"/>
    </TTGlyph>
    <TTGlyph name="eight.tab" xMin="63" yMin="-22" xMax="690" yMax="719">
      <contour>
        <pt x="341" y="-22" on="1"/>
        <pt x="206" y="-22" on="0"/>
        <pt x="63" y="82" on="0"/>
        <pt x="63" y="163" on="1"/>
        <pt x="63" y="238" on="0"/>
        <pt x="174" y="344" on="0"/>
        <pt x="273" y="360" on="1"/>
        <pt x="213" y="381" on="0"/>
        <pt x="151" y="462" on="0"/>
        <pt x="151" y="514" on="1"/>
        <pt x="151" y="555" on="0"/>
        <pt x="187" y="630" on="0"/>
        <pt x="258" y="686" on="0"/>
        <pt x="365" y="719" on="0"/>
        <pt x="434" y="719" on="1"/>
        <pt x="556" y="719" on="0"/>
        <pt x="690" y="611" on="0"/>
        <pt x="690" y="533" on="1"/>
        <pt x="690" y="457" on="0"/>
        <pt x="582" y="362" on="0"/>
        <pt x="501" y="346" on="1"/>
        <pt x="564" y="325" on="0"/>
        <pt x="639" y="245" on="0"/>
        <pt x="639" y="183" on="1"/>
        <pt x="639" y="95" on="0"/>
        <pt x="481" y="-22" on="0"/>
      </contour>
      <contour>
        <pt x="411" y="378" on="1"/>
        <pt x="454" y="378" on="0"/>
        <pt x="529" y="398" on="0"/>
        <pt x="584" y="437" on="0"/>
        <pt x="616" y="492" on="0"/>
        <pt x="616" y="526" on="1"/>
        <pt x="616" y="587" on="0"/>
        <pt x="516" y="658" on="0"/>
        <pt x="431" y="658" on="1"/>
        <pt x="388" y="658" on="0"/>
        <pt x="312" y="638" on="0"/>
        <pt x="258" y="600" on="0"/>
        <pt x="226" y="545" on="0"/>
        <pt x="226" y="510" on="1"/>
        <pt x="226" y="450" on="0"/>
        <pt x="325" y="378" on="0"/>
      </contour>
      <contour>
        <pt x="360" y="325" on="1"/>
        <pt x="261" y="325" on="0"/>
        <pt x="138" y="242" on="0"/>
        <pt x="138" y="173" on="1"/>
        <pt x="138" y="112" on="0"/>
        <pt x="245" y="39" on="0"/>
        <pt x="342" y="39" on="1"/>
        <pt x="442" y="39" on="0"/>
        <pt x="564" y="121" on="0"/>
        <pt x="564" y="190" on="1"/>
        <pt x="564" y="252" on="0"/>
        <pt x="457" y="325" on="0"/>
      </contour>
    </TTGlyph>
    <TTGlyph name="ellipsis" xMin="62" yMin="-12" xMax="867" yMax="98">
      <contour>
        <pt x="62" y="38" on="1"/>
        <pt x="62" y="62" on="0"/>
        <pt x="98" y="98" on="0"/>
        <pt x="129" y="98" on="1"/>
        <pt x="155" y="98" on="0"/>
        <pt x="184" y="70" on="0"/>
        <pt x="184" y="48" on="1"/>
        <pt x="184" y="24" on="0"/>
        <pt x="149" y="-12" on="0"/>
        <pt x="118" y="-12" on="1"/>
        <pt x="92" y="-12" on="0"/>
        <pt x="62" y="16" on="0"/>
      </contour>
      <contour>
        <pt x="403" y="38" on="1"/>
        <pt x="403" y="62" on="0"/>
        <pt x="439" y="98" on="0"/>
        <pt x="470" y="98" on="1"/>
        <pt x="496" y="98" on="0"/>
        <pt x="526" y="70" on="0"/>
        <pt x="526" y="48" on="1"/>
        <pt x="526" y="24" on="0"/>
        <pt x="490" y="-12" on="0"/>
        <pt x="459" y="-12" on="1"/>
        <pt x="433" y="-12" on="0"/>
        <pt x="403" y="16" on="0"/>
      </contour>
      <contour>
        <pt x="745" y="38" on="1"/>
        <pt x="745" y="62" on="0"/>
        <pt x="780" y="98" on="0"/>
        <pt x="811" y="98" on="1"/>
        <pt x="837" y="98" on="0"/>
        <pt x="867" y="70" on="0"/>
        <pt x="867" y="48" on="1"/>
        <pt x="867" y="24" on="0"/>
        <pt x="831" y="-12" on="0"/>
        <pt x="800" y="-12" on="1"/>
        <pt x="774" y="-12" on="0"/>
        <pt x="745" y="16" on="0"/>
      </contour>
    </TTGlyph>
    <TTGlyph name="emacron" xMin="60" yMin="-13" xMax="568" yMax="724">
      <component glyphName="e" x="0" y="0" flags="0x204"/>
      <component glyphName="macron" x="46" y="14" flags="0x4"/>
    </TTGlyph>
    <TTGlyph name="emacron.sc" xMin="68" yMin="0" xMax="629" yMax="757">
      <component glyphName="e.sc" x="0" y="0" flags="0x204"/>
      <component glyphName="macron" x="91" y="47" flags="0x4"/>
    </TTGlyph>
    <TTGlyph name="emdash" xMin="83" yMin="283" xMax="797" yMax="350">
      <contour>
        <pt x="83" y="283" on="1"/>
        <pt x="97" y="350" on="1"/>
        <pt x="797" y="350" on="1"/>
        <pt x="783" y="283" on="1"/>
      </contour>
    </TTGlyph>
    <TTGlyph name="emdash.cap" xMin="90" yMin="316" xMax="804" yMax="383">
      <component glyphName="emdash" x="7" y="33" flags="0x4"/>
    </TTGlyph>
    <TTGlyph name="endash" xMin="83" yMin="283" xMax="635" yMax="350">
      <contour>
        <pt x="83" y="283" on="1"/>
        <pt x="97" y="350" on="1"/>
        <pt x="635" y="350" on="1"/>
        <pt x="621" y="283" on="1"/>
      </contour>
    </TTGlyph>
    <TTGlyph name="endash.cap" xMin="90" yMin="316" xMax="642" yMax="383">
      <component glyphName="endash" x="7" y="33" flags="0x4"/>
    </TTGlyph>
    <TTGlyph name="endash.tab" xMin="95" yMin="317" xMax="667" yMax="383">
      <contour>
        <pt x="95" y="317" on="1"/>
        <pt x="109" y="383" on="1"/>
        <pt x="667" y="383" on="1"/>
        <pt x="653" y="317" on="1"/>
      </contour>
    </TTGlyph>
    <TTGlyph name="eogonek" xMin="60" yMin="-289" xMax="542" yMax="542">
      <contour>
        <pt x="306" y="47" on="1"/>
        <pt x="357" y="47" on="0"/>
        <pt x="452" y="80" on="0"/>
        <pt x="494" y="108" on="1"/>
        <pt x="495" y="108" on="1"/>
        <pt x="480" y="38" on="1"/>
        <pt x="371" y="-56" on="1"/>
        <pt x="319" y="-102" on="0"/>
        <pt x="276" y="-159" on="0"/>
        <pt x="276" y="-185" on="1"/>
        <pt x="276" y="-207" on="0"/>
        <pt x="309" y="-233" on="0"/>
        <pt x="342" y="-233" on="1"/>
        <pt x="367" y="-233" on="0"/>
        <pt x="416" y="-217" on="0"/>
        <pt x="441" y="-203" on="1"/>
        <pt x="429" y="-261" on="1"/>
        <pt x="405" y="-275" on="0"/>
        <pt x="353" y="-289" on="0"/>
        <pt x="325" y="-289" on="1"/>
        <pt x="270" y="-289" on="0"/>
        <pt x="208" y="-238" on="0"/>
        <pt x="208" y="-198" on="1"/>
        <pt x="208" y="-155" on="0"/>
        <pt x="272" y="-77" on="0"/>
        <pt x="335" y="-27" on="1"/>
        <pt x="360" y="-8" on="1"/>
        <pt x="345" y="-10" on="0"/>
        <pt x="313" y="-13" on="0"/>
        <pt x="297" y="-13" on="1"/>
        <pt x="190" y="-13" on="0"/>
        <pt x="60" y="105" on="0"/>
        <pt x="60" y="212" on="1"/>
        <pt x="60" y="281" on="0"/>
        <pt x="105" y="403" on="0"/>
        <pt x="182" y="491" on="0"/>
        <pt x="288" y="542" on="0"/>
        <pt x="349" y="542" on="1"/>
        <pt x="439" y="542" on="0"/>
        <pt x="542" y="436" on="0"/>
        <pt x="542" y="348" on="1"/>
        <pt x="542" y="324" on="0"/>
        <pt x="535" y="279" on="0"/>
        <pt x="528" y="255" on="1"/>
        <pt x="132" y="255" on="1"/>
        <pt x="132" y="248" on="0"/>
        <pt x="131" y="233" on="0"/>
        <pt x="131" y="226" on="1"/>
        <pt x="130" y="215" on="1"/>
        <pt x="130" y="128" on="0"/>
        <pt x="228" y="47" on="0"/>
      </contour>
      <contour>
        <pt x="343" y="483" on="1"/>
        <pt x="272" y="482" on="0"/>
        <pt x="161" y="384" on="0"/>
        <pt x="141" y="304" on="1"/>
        <pt x="471" y="304" on="1"/>
        <pt x="473" y="314" on="0"/>
        <pt x="475" y="337" on="0"/>
        <pt x="475" y="350" on="1"/>
        <pt x="475" y="410" on="0"/>
        <pt x="409" y="484" on="0"/>
      </contour>
    </TTGlyph>
    <TTGlyph name="eogonek.sc" xMin="68" yMin="-289" xMax="629" yMax="575">
      <contour>
        <pt x="68" y="0" on="1"/>
        <pt x="190" y="575" on="1"/>
        <pt x="629" y="575" on="1"/>
        <pt x="629" y="513" on="1"/>
        <pt x="248" y="513" on="1"/>
        <pt x="208" y="325" on="1"/>
        <pt x="516" y="325" on="1"/>
        <pt x="503" y="264" on="1"/>
        <pt x="195" y="264" on="1"/>
        <pt x="152" y="62" on="1"/>
        <pt x="552" y="62" on="1"/>
        <pt x="530" y="0" on="1"/>
        <pt x="460" y="-57" on="1"/>
        <pt x="407" y="-102" on="0"/>
        <pt x="364" y="-159" on="0"/>
        <pt x="364" y="-185" on="1"/>
        <pt x="364" y="-207" on="0"/>
        <pt x="397" y="-233" on="0"/>
        <pt x="429" y="-233" on="1"/>
        <pt x="454" y="-233" on="0"/>
        <pt x="504" y="-217" on="0"/>
        <pt x="529" y="-203" on="1"/>
        <pt x="517" y="-261" on="1"/>
        <pt x="493" y="-275" on="0"/>
        <pt x="441" y="-289" on="0"/>
        <pt x="413" y="-289" on="1"/>
        <pt x="358" y="-289" on="0"/>
        <pt x="296" y="-238" on="0"/>
        <pt x="296" y="-198" on="1"/>
        <pt x="296" y="-155" on="0"/>
        <pt x="359" y="-76" on="0"/>
        <pt x="421" y="-25" on="1"/>
        <pt x="452" y="0" on="1"/>
      </contour>
    </TTGlyph>
    <TTGlyph name="equal" xMin="100" yMin="182" xMax="693" yMax="519">
      <contour>
        <pt x="159" y="456" on="1"/>
        <pt x="173" y="519" on="1"/>
        <pt x="693" y="519" on="1"/>
        <pt x="680" y="456" on="1"/>
      </contour>
      <contour>
        <pt x="100" y="182" on="1"/>
        <pt x="113" y="246" on="1"/>
        <pt x="634" y="246" on="1"/>
        <pt x="621" y="182" on="1"/>
      </contour>
    </TTGlyph>
    <TTGlyph name="equal.tab" xMin="85" yMin="182" xMax="678" yMax="519">
      <component glyphName="equal" x="-15" y="0" flags="0x4"/>
    </TTGlyph>
    <TTGlyph name="eth" xMin="58" yMin="-14" xMax="602" yMax="747">
      <contour>
        <pt x="571" y="322" on="1"/>
        <pt x="571" y="254" on="0"/>
        <pt x="531" y="131" on="0"/>
        <pt x="459" y="40" on="0"/>
        <pt x="355" y="-14" on="0"/>
        <pt x="291" y="-14" on="1"/>
        <pt x="188" y="-14" on="0"/>
        <pt x="58" y="107" on="0"/>
        <pt x="58" y="208" on="1"/>
        <pt x="58" y="266" on="0"/>
        <pt x="96" y="370" on="0"/>
        <pt x="164" y="446" on="0"/>
        <pt x="260" y="491" on="0"/>
        <pt x="317" y="491" on="1"/>
        <pt x="383" y="491" on="0"/>
        <pt x="480" y="428" on="0"/>
        <pt x="506" y="376" on="1"/>
        <pt x="498" y="442" on="0"/>
        <pt x="448" y="566" on="0"/>
        <pt x="397" y="623" on="1"/>
        <pt x="202" y="551" on="1"/>
        <pt x="213" y="604" on="1"/>
        <pt x="361" y="659" on="1"/>
        <pt x="339" y="680" on="0"/>
        <pt x="284" y="721" on="0"/>
        <pt x="251" y="742" on="1"/>
        <pt x="252" y="746" on="1"/>
        <pt x="334" y="746" on="1"/>
        <pt x="359" y="732" on="0"/>
        <pt x="403" y="699" on="0"/>
        <pt x="422" y="681" on="1"/>
        <pt x="602" y="747" on="1"/>
        <pt x="591" y="695" on="1"/>
        <pt x="456" y="645" on="1"/>
        <pt x="514" y="578" on="0"/>
        <pt x="572" y="411" on="0"/>
      </contour>
      <contour>
        <pt x="129" y="214" on="1"/>
        <pt x="129" y="139" on="0"/>
        <pt x="220" y="46" on="0"/>
        <pt x="294" y="46" on="1"/>
        <pt x="344" y="46" on="0"/>
        <pt x="421" y="93" on="0"/>
        <pt x="473" y="168" on="0"/>
        <pt x="501" y="263" on="0"/>
        <pt x="502" y="310" on="1"/>
        <pt x="480" y="370" on="0"/>
        <pt x="386" y="435" on="0"/>
        <pt x="329" y="435" on="1"/>
        <pt x="285" y="435" on="0"/>
        <pt x="211" y="400" on="0"/>
        <pt x="158" y="341" on="0"/>
        <pt x="129" y="260" on="0"/>
      </contour>
    </TTGlyph>
    <TTGlyph name="eth.sc" xMin="55" yMin="0" xMax="708" yMax="575">
      <contour>
        <pt x="104" y="0" on="1"/>
        <pt x="160" y="264" on="1"/>
        <pt x="55" y="264" on="1"/>
        <pt x="74" y="319" on="1"/>
        <pt x="172" y="319" on="1"/>
        <pt x="226" y="575" on="1"/>
        <pt x="434" y="575" on="1"/>
        <pt x="505" y="575" on="0"/>
        <pt x="609" y="539" on="0"/>
        <pt x="676" y="475" on="0"/>
        <pt x="708" y="386" on="0"/>
        <pt x="708" y="334" on="1"/>
        <pt x="708" y="268" on="0"/>
        <pt x="663" y="147" on="0"/>
        <pt x="571" y="55" on="0"/>
        <pt x="428" y="0" on="0"/>
        <pt x="331" y="0" on="1"/>
      </contour>
      <contour>
        <pt x="636" y="329" on="1"/>
        <pt x="635" y="412" on="0"/>
        <pt x="535" y="512" on="0"/>
        <pt x="427" y="512" on="1"/>
        <pt x="285" y="512" on="1"/>
        <pt x="244" y="319" on="1"/>
        <pt x="429" y="319" on="1"/>
        <pt x="418" y="264" on="1"/>
        <pt x="232" y="264" on="1"/>
        <pt x="189" y="63" on="1"/>
        <pt x="340" y="63" on="1"/>
        <pt x="416" y="63" on="0"/>
        <pt x="529" y="106" on="0"/>
        <pt x="601" y="179" on="0"/>
        <pt x="636" y="276" on="0"/>
      </contour>
    </TTGlyph>
    <TTGlyph name="exclam" xMin="78" yMin="-12" xMax="324" yMax="700">
      <contour>
        <pt x="146" y="223" on="1"/>
        <pt x="228" y="699" on="1"/>
        <pt x="228" y="700" on="1"/>
        <pt x="324" y="700" on="1"/>
        <pt x="324" y="699" on="1"/>
        <pt x="203" y="223" on="1"/>
      </contour>
      <contour>
        <pt x="78" y="38" on="1"/>
        <pt x="78" y="62" on="0"/>
        <pt x="113" y="98" on="0"/>
        <pt x="144" y="98" on="1"/>
        <pt x="170" y="98" on="0"/>
        <pt x="200" y="70" on="0"/>
        <pt x="200" y="48" on="1"/>
        <pt x="200" y="24" on="0"/>
        <pt x="164" y="-12" on="0"/>
        <pt x="133" y="-12" on="1"/>
        <pt x="107" y="-12" on="0"/>
        <pt x="78" y="16" on="0"/>
      </contour>
    </TTGlyph>
    <TTGlyph name="exclamdown" xMin="43" yMin="-170" xMax="289" yMax="542">
      <contour>
        <pt x="289" y="492" on="1"/>
        <pt x="289" y="468" on="0"/>
        <pt x="254" y="432" on="0"/>
        <pt x="223" y="432" on="1"/>
        <pt x="197" y="432" on="0"/>
        <pt x="167" y="460" on="0"/>
        <pt x="167" y="482" on="1"/>
        <pt x="167" y="506" on="0"/>
        <pt x="203" y="542" on="0"/>
        <pt x="234" y="542" on="1"/>
        <pt x="260" y="542" on="0"/>
        <pt x="289" y="514" on="0"/>
      </contour>
      <contour>
        <pt x="221" y="307" on="1"/>
        <pt x="139" y="-169" on="1"/>
        <pt x="139" y="-170" on="1"/>
        <pt x="43" y="-170" on="1"/>
        <pt x="43" y="-169" on="1"/>
        <pt x="164" y="307" on="1"/>
      </contour>
    </TTGlyph>
    <TTGlyph name="exclamdown.cap" xMin="79" yMin="0" xMax="325" yMax="712">
      <contour>
        <pt x="325" y="662" on="1"/>
        <pt x="325" y="638" on="0"/>
        <pt x="290" y="602" on="0"/>
        <pt x="259" y="602" on="1"/>
        <pt x="233" y="602" on="0"/>
        <pt x="203" y="630" on="0"/>
        <pt x="203" y="652" on="1"/>
        <pt x="203" y="676" on="0"/>
        <pt x="239" y="712" on="0"/>
        <pt x="270" y="712" on="1"/>
        <pt x="296" y="712" on="0"/>
        <pt x="325" y="684" on="0"/>
      </contour>
      <contour>
        <pt x="257" y="477" on="1"/>
        <pt x="175" y="1" on="1"/>
        <pt x="175" y="0" on="1"/>
        <pt x="79" y="0" on="1"/>
        <pt x="79" y="1" on="1"/>
        <pt x="200" y="477" on="1"/>
      </contour>
    </TTGlyph>
    <TTGlyph name="f" xMin="86" yMin="0" xMax="489" yMax="757">
      <contour>
        <pt x="285" y="571" on="1"/>
        <pt x="276" y="528" on="1"/>
        <pt x="451" y="528" on="1"/>
        <pt x="438" y="469" on="1"/>
        <pt x="263" y="469" on="1"/>
        <pt x="163" y="0" on="1"/>
        <pt x="93" y="0" on="1"/>
        <pt x="193" y="469" on="1"/>
        <pt x="86" y="469" on="1"/>
        <pt x="112" y="528" on="1"/>
        <pt x="205" y="528" on="1"/>
        <pt x="215" y="575" on="1"/>
        <pt x="237" y="680" on="0"/>
        <pt x="336" y="757" on="0"/>
        <pt x="397" y="757" on="1"/>
        <pt x="423" y="757" on="0"/>
        <pt x="471" y="744" on="0"/>
        <pt x="489" y="733" on="1"/>
        <pt x="475" y="675" on="1"/>
        <pt x="474" y="675" on="1"/>
        <pt x="461" y="684" on="0"/>
        <pt x="422" y="696" on="0"/>
        <pt x="401" y="696" on="1"/>
        <pt x="366" y="696" on="0"/>
        <pt x="301" y="649" on="0"/>
      </contour>
    </TTGlyph>
    <TTGlyph name="f.sc" xMin="68" yMin="0" xMax="616" yMax="575">
      <contour>
        <pt x="248" y="512" on="1"/>
        <pt x="207" y="317" on="1"/>
        <pt x="508" y="317" on="1"/>
        <pt x="494" y="255" on="1"/>
        <pt x="194" y="255" on="1"/>
        <pt x="139" y="0" on="1"/>
        <pt x="68" y="0" on="1"/>
        <pt x="190" y="575" on="1"/>
        <pt x="616" y="575" on="1"/>
        <pt x="616" y="512" on="1"/>
      </contour>
    </TTGlyph>
    <TTGlyph name="five" xMin="43" yMin="-16" xMax="652" yMax="700">
      <contour>
        <pt x="43" y="58" on="1"/>
        <pt x="58" y="126" on="1"/>
        <pt x="59" y="126" on="1"/>
        <pt x="119" y="90" on="0"/>
        <pt x="247" y="49" on="0"/>
        <pt x="320" y="49" on="1"/>
        <pt x="424" y="48" on="0"/>
        <pt x="535" y="143" on="0"/>
        <pt x="535" y="210" on="1"/>
        <pt x="535" y="277" on="0"/>
        <pt x="412" y="350" on="0"/>
        <pt x="272" y="350" on="1"/>
        <pt x="128" y="350" on="1"/>
        <pt x="212" y="700" on="1"/>
        <pt x="652" y="700" on="1"/>
        <pt x="652" y="635" on="1"/>
        <pt x="266" y="635" on="1"/>
        <pt x="211" y="413" on="1"/>
        <pt x="291" y="413" on="1"/>
        <pt x="459" y="413" on="0"/>
        <pt x="609" y="306" on="0"/>
        <pt x="609" y="216" on="1"/>
        <pt x="609" y="167" on="0"/>
        <pt x="570" y="82" on="0"/>
        <pt x="496" y="20" on="0"/>
        <pt x="387" y="-16" on="0"/>
        <pt x="318" y="-16" on="1"/>
        <pt x="240" y="-16" on="0"/>
        <pt x="102" y="24" on="0"/>
      </contour>
    </TTGlyph>
    <TTGlyph name="five.den" xMin="11" yMin="-10" xMax="370" yMax="400">
      <component glyphName="five.small" x="-16" y="0" flags="0x4"/>
    </TTGlyph>
    <TTGlyph name="five.den_tab" xMin="-7" yMin="-10" xMax="352" yMax="400">
      <component glyphName="five.small" x="-34" y="0" flags="0x4"/>
    </TTGlyph>
    <TTGlyph name="five.inf" xMin="7" yMin="-196" xMax="366" yMax="214">
      <component glyphName="five.small" x="-20" y="-186" flags="0x4"/>
    </TTGlyph>
    <TTGlyph name="five.num" xMin="107" yMin="290" xMax="466" yMax="700">
      <component glyphName="five.small" x="80" y="300" flags="0x4"/>
    </TTGlyph>
    <TTGlyph name="five.num_tab" xMin="88" yMin="290" xMax="447" yMax="700">
      <component glyphName="five.small" x="61" y="300" flags="0x4"/>
    </TTGlyph>
    <TTGlyph name="five.osf" xMin="10" yMin="-144" xMax="583" yMax="575">
      <contour>
        <pt x="10" y="-85" on="1"/>
        <pt x="23" y="-21" on="1"/>
        <pt x="24" y="-21" on="1"/>
        <pt x="74" y="-48" on="0"/>
        <pt x="192" y="-82" on="0"/>
        <pt x="252" y="-82" on="1"/>
        <pt x="349" y="-82" on="0"/>
        <pt x="450" y="6" on="0"/>
        <pt x="450" y="75" on="1"/>
        <pt x="450" y="145" on="0"/>
        <pt x="325" y="221" on="0"/>
        <pt x="189" y="223" on="1"/>
        <pt x="101" y="224" on="1"/>
        <pt x="181" y="575" on="1"/>
        <pt x="583" y="575" on="1"/>
        <pt x="582" y="512" on="1"/>
        <pt x="235" y="512" on="1"/>
        <pt x="182" y="283" on="1"/>
        <pt x="227" y="282" on="1"/>
        <pt x="372" y="278" on="0"/>
        <pt x="522" y="176" on="0"/>
        <pt x="522" y="80" on="1"/>
        <pt x="522" y="-19" on="0"/>
        <pt x="379" y="-144" on="0"/>
        <pt x="251" y="-144" on="1"/>
        <pt x="185" y="-144" on="0"/>
        <pt x="60" y="-110" on="0"/>
      </contour>
    </TTGlyph>
    <TTGlyph name="five.small" xMin="27" yMin="-10" xMax="386" yMax="400">
      <contour>
        <pt x="189" y="-10" on="1"/>
        <pt x="143" y="-10" on="0"/>
        <pt x="61" y="12" on="0"/>
        <pt x="27" y="31" on="1"/>
        <pt x="37" y="82" on="1"/>
        <pt x="38" y="82" on="1"/>
        <pt x="72" y="62" on="0"/>
        <pt x="149" y="40" on="0"/>
        <pt x="191" y="40" on="1"/>
        <pt x="246" y="39" on="0"/>
        <pt x="301" y="87" on="0"/>
        <pt x="301" y="121" on="1"/>
        <pt x="301" y="156" on="0"/>
        <pt x="230" y="191" on="0"/>
        <pt x="147" y="191" on="1"/>
        <pt x="73" y="191" on="1"/>
        <pt x="123" y="400" on="1"/>
        <pt x="386" y="400" on="1"/>
        <pt x="384" y="349" on="1"/>
        <pt x="165" y="349" on="1"/>
        <pt x="137" y="237" on="1"/>
        <pt x="172" y="237" on="1"/>
        <pt x="267" y="237" on="0"/>
        <pt x="360" y="179" on="0"/>
        <pt x="360" y="124" on="1"/>
        <pt x="360" y="67" on="0"/>
        <pt x="270" y="-10" on="0"/>
      </contour>
    </TTGlyph>
    <TTGlyph name="five.sup" xMin="122" yMin="344" xMax="481" yMax="754">
      <component glyphName="five.small" x="95" y="354" flags="0x4"/>
    </TTGlyph>
    <TTGlyph name="five.tab" xMin="61" yMin="-16" xMax="679" yMax="700">
      <contour>
        <pt x="342" y="-16" on="1"/>
        <pt x="263" y="-16" on="0"/>
        <pt x="120" y="24" on="0"/>
        <pt x="61" y="58" on="1"/>
        <pt x="75" y="126" on="1"/>
        <pt x="76" y="126" on="1"/>
        <pt x="136" y="90" on="0"/>
        <pt x="269" y="49" on="0"/>
        <pt x="344" y="49" on="1"/>
        <pt x="448" y="48" on="0"/>
        <pt x="559" y="143" on="0"/>
        <pt x="559" y="210" on="1"/>
        <pt x="559" y="277" on="0"/>
        <pt x="434" y="350" on="0"/>
        <pt x="293" y="350" on="1"/>
        <pt x="143" y="350" on="1"/>
        <pt x="228" y="700" on="1"/>
        <pt x="679" y="700" on="1"/>
        <pt x="679" y="635" on="1"/>
        <pt x="282" y="635" on="1"/>
        <pt x="227" y="413" on="1"/>
        <pt x="311" y="413" on="1"/>
        <pt x="480" y="413" on="0"/>
        <pt x="633" y="306" on="0"/>
        <pt x="633" y="216" on="1"/>
        <pt x="633" y="167" on="0"/>
        <pt x="594" y="82" on="0"/>
        <pt x="520" y="20" on="0"/>
        <pt x="411" y="-16" on="0"/>
      </contour>
    </TTGlyph>
    <TTGlyph name="fiveeighths" xMin="107" yMin="-11" xMax="1046" yMax="700">
      <component glyphName="five.num" x="0" y="0" flags="0x4"/>
      <component glyphName="fraction" x="444" y="0" flags="0x4"/>
      <component glyphName="eight.den" x="672" y="0" flags="0x4"/>
    </TTGlyph>
    <TTGlyph name="fiveeighths.tab" xMin="88" yMin="-11" xMax="1008" yMax="700">
      <component glyphName="five.num_tab" x="0" y="0" flags="0x4"/>
      <component glyphName="fraction.tab" x="445" y="0" flags="0x4"/>
      <component glyphName="eight.den_tab" x="652" y="0" flags="0x4"/>
    </TTGlyph>
    <TTGlyph name="four" xMin="34" yMin="0" xMax="691" yMax="700">
      <contour>
        <pt x="431" y="0" on="1"/>
        <pt x="469" y="179" on="1"/>
        <pt x="34" y="179" on="1"/>
        <pt x="50" y="236" on="1"/>
        <pt x="417" y="700" on="1"/>
        <pt x="650" y="700" on="1"/>
        <pt x="553" y="242" on="1"/>
        <pt x="691" y="242" on="1"/>
        <pt x="670" y="179" on="1"/>
        <pt x="539" y="179" on="1"/>
        <pt x="501" y="0" on="1"/>
      </contour>
      <contour>
        <pt x="140" y="242" on="1"/>
        <pt x="482" y="242" on="1"/>
        <pt x="566" y="635" on="1"/>
        <pt x="450" y="635" on="1"/>
      </contour>
    </TTGlyph>
    <TTGlyph name="four.den" xMin="-11" yMin="0" xMax="373" yMax="400">
      <component glyphName="four.small" x="-16" y="0" flags="0x4"/>
    </TTGlyph>
    <TTGlyph name="four.den_tab" xMin="-29" yMin="0" xMax="355" yMax="400">
      <component glyphName="four.small" x="-34" y="0" flags="0x4"/>
    </TTGlyph>
    <TTGlyph name="four.inf" xMin="-15" yMin="-186" xMax="369" yMax="214">
      <component glyphName="four.small" x="-20" y="-186" flags="0x4"/>
    </TTGlyph>
    <TTGlyph name="four.num" xMin="85" yMin="300" xMax="469" yMax="700">
      <component glyphName="four.small" x="80" y="300" flags="0x4"/>
    </TTGlyph>
    <TTGlyph name="four.num_tab" xMin="66" yMin="300" xMax="450" yMax="700">
      <component glyphName="four.small" x="61" y="300" flags="0x4"/>
    </TTGlyph>
    <TTGlyph name="four.osf" xMin="14" yMin="-134" xMax="633" yMax="575">
      <contour>
        <pt x="380" y="-134" on="1"/>
        <pt x="420" y="53" on="1"/>
        <pt x="14" y="53" on="1"/>
        <pt x="27" y="110" on="1"/>
        <pt x="370" y="575" on="1"/>
        <pt x="599" y="575" on="1"/>
        <pt x="501" y="114" on="1"/>
        <pt x="633" y="114" on="1"/>
        <pt x="612" y="53" on="1"/>
        <pt x="488" y="53" on="1"/>
        <pt x="449" y="-134" on="1"/>
      </contour>
      <contour>
        <pt x="110" y="114" on="1"/>
        <pt x="433" y="114" on="1"/>
        <pt x="517" y="510" on="1"/>
        <pt x="400" y="510" on="1"/>
      </contour>
    </TTGlyph>
    <TTGlyph name="four.small" xMin="5" yMin="0" xMax="389" yMax="400">
      <contour>
        <pt x="228" y="0" on="1"/>
        <pt x="248" y="93" on="1"/>
        <pt x="5" y="93" on="1"/>
        <pt x="14" y="138" on="1"/>
        <pt x="204" y="400" on="1"/>
        <pt x="369" y="400" on="1"/>
        <pt x="314" y="142" on="1"/>
        <pt x="389" y="142" on="1"/>
        <pt x="373" y="93" on="1"/>
        <pt x="304" y="93" on="1"/>
        <pt x="284" y="0" on="1"/>
      </contour>
      <contour>
        <pt x="79" y="141" on="1"/>
        <pt x="259" y="141" on="1"/>
        <pt x="304" y="351" on="1"/>
        <pt x="233" y="351" on="1"/>
      </contour>
    </TTGlyph>
    <TTGlyph name="four.sup" xMin="100" yMin="354" xMax="484" yMax="754">
      <component glyphName="four.small" x="95" y="354" flags="0x4"/>
    </TTGlyph>
    <TTGlyph name="four.tab" xMin="37" yMin="0" xMax="685" yMax="700">
      <contour>
        <pt x="433" y="0" on="1"/>
        <pt x="470" y="172" on="1"/>
        <pt x="37" y="172" on="1"/>
        <pt x="49" y="229" on="1"/>
        <pt x="404" y="700" on="1"/>
        <pt x="653" y="700" on="1"/>
        <pt x="554" y="235" on="1"/>
        <pt x="685" y="235" on="1"/>
        <pt x="665" y="172" on="1"/>
        <pt x="541" y="172" on="1"/>
        <pt x="504" y="0" on="1"/>
      </contour>
      <contour>
        <pt x="135" y="235" on="1"/>
        <pt x="483" y="235" on="1"/>
        <pt x="569" y="635" on="1"/>
        <pt x="439" y="635" on="1"/>
      </contour>
    </TTGlyph>
    <TTGlyph name="fraction" xMin="-219" yMin="0" xMax="486" yMax="700">
      <contour>
        <pt x="-219" y="1" on="1"/>
        <pt x="417" y="700" on="1"/>
        <pt x="485" y="700" on="1"/>
        <pt x="486" y="699" on="1"/>
        <pt x="-150" y="0" on="1"/>
        <pt x="-218" y="0" on="1"/>
      </contour>
    </TTGlyph>
    <TTGlyph name="fraction.tab" xMin="-242" yMin="0" xMax="463" yMax="700">
      <contour>
        <pt x="-242" y="1" on="1"/>
        <pt x="393" y="700" on="1"/>
        <pt x="462" y="700" on="1"/>
        <pt x="463" y="699" on="1"/>
        <pt x="-174" y="0" on="1"/>
        <pt x="-242" y="0" on="1"/>
      </contour>
    </TTGlyph>
    <TTGlyph name="g" xMin="-14" yMin="-201" xMax="615" yMax="629">
      <contour>
        <pt x="253" y="-201" on="1"/>
        <pt x="194" y="-201" on="0"/>
        <pt x="95" y="-184" on="0"/>
        <pt x="25" y="-150" on="0"/>
        <pt x="-14" y="-99" on="0"/>
        <pt x="-14" y="-67" on="1"/>
        <pt x="-14" y="-25" on="0"/>
        <pt x="58" y="41" on="0"/>
        <pt x="125" y="65" on="1"/>
        <pt x="178" y="209" on="1"/>
        <pt x="138" y="231" on="0"/>
        <pt x="96" y="303" on="0"/>
        <pt x="96" y="347" on="1"/>
        <pt x="96" y="386" on="0"/>
        <pt x="128" y="457" on="0"/>
        <pt x="187" y="509" on="0"/>
        <pt x="274" y="541" on="0"/>
        <pt x="329" y="541" on="1"/>
        <pt x="360" y="541" on="0"/>
        <pt x="415" y="531" on="0"/>
        <pt x="438" y="521" on="1"/>
        <pt x="528" y="629" on="1"/>
        <pt x="615" y="629" on="1"/>
        <pt x="615" y="628" on="1"/>
        <pt x="482" y="493" on="1"/>
        <pt x="510" y="471" on="0"/>
        <pt x="539" y="409" on="0"/>
        <pt x="539" y="372" on="1"/>
        <pt x="539" y="334" on="0"/>
        <pt x="508" y="263" on="0"/>
        <pt x="449" y="210" on="0"/>
        <pt x="362" y="179" on="0"/>
        <pt x="307" y="179" on="1"/>
        <pt x="285" y="179" on="0"/>
        <pt x="244" y="185" on="0"/>
        <pt x="226" y="189" on="1"/>
        <pt x="191" y="88" on="1"/>
        <pt x="358" y="74" on="0"/>
        <pt x="516" y="0" on="0"/>
        <pt x="516" y="-57" on="1"/>
        <pt x="516" y="-116" on="0"/>
        <pt x="384" y="-201" on="0"/>
      </contour>
      <contour>
        <pt x="311" y="232" on="1"/>
        <pt x="384" y="232" on="0"/>
        <pt x="472" y="312" on="0"/>
        <pt x="472" y="370" on="1"/>
        <pt x="472" y="425" on="0"/>
        <pt x="392" y="488" on="0"/>
        <pt x="327" y="488" on="1"/>
        <pt x="253" y="488" on="0"/>
        <pt x="166" y="408" on="0"/>
        <pt x="166" y="350" on="1"/>
        <pt x="166" y="295" on="0"/>
        <pt x="245" y="232" on="0"/>
      </contour>
      <contour>
        <pt x="266" y="-148" on="1"/>
        <pt x="351" y="-148" on="0"/>
        <pt x="450" y="-99" on="0"/>
        <pt x="450" y="-62" on="1"/>
        <pt x="450" y="-25" on="0"/>
        <pt x="295" y="26" on="0"/>
        <pt x="152" y="36" on="1"/>
        <pt x="103" y="18" on="0"/>
        <pt x="50" y="-28" on="0"/>
        <pt x="50" y="-55" on="1"/>
        <pt x="50" y="-79" on="0"/>
        <pt x="85" y="-115" on="0"/>
        <pt x="144" y="-138" on="0"/>
        <pt x="222" y="-148" on="0"/>
      </contour>
    </TTGlyph>
    <TTGlyph name="g.sc" xMin="80" yMin="-16" xMax="679" yMax="586">
      <contour>
        <pt x="420" y="523" on="1"/>
        <pt x="358" y="523" on="0"/>
        <pt x="259" y="481" on="0"/>
        <pt x="190" y="408" on="0"/>
        <pt x="153" y="310" on="0"/>
        <pt x="153" y="254" on="1"/>
        <pt x="153" y="157" on="0"/>
        <pt x="267" y="48" on="0"/>
        <pt x="367" y="48" on="1"/>
        <pt x="460" y="48" on="0"/>
        <pt x="584" y="151" on="0"/>
        <pt x="601" y="247" on="1"/>
        <pt x="360" y="247" on="1"/>
        <pt x="372" y="305" on="1"/>
        <pt x="679" y="305" on="1"/>
        <pt x="673" y="233" on="0"/>
        <pt x="625" y="111" on="0"/>
        <pt x="582" y="68" on="1"/>
        <pt x="542" y="29" on="0"/>
        <pt x="432" y="-16" on="0"/>
        <pt x="363" y="-16" on="1"/>
        <pt x="235" y="-16" on="0"/>
        <pt x="80" y="127" on="0"/>
        <pt x="80" y="249" on="1"/>
        <pt x="80" y="316" on="0"/>
        <pt x="126" y="439" on="0"/>
        <pt x="213" y="531" on="0"/>
        <pt x="340" y="586" on="0"/>
        <pt x="420" y="586" on="1"/>
        <pt x="492" y="586" on="0"/>
        <pt x="615" y="538" on="0"/>
        <pt x="655" y="499" on="1"/>
        <pt x="640" y="430" on="1"/>
        <pt x="639" y="430" on="1"/>
        <pt x="598" y="473" on="0"/>
        <pt x="484" y="523" on="0"/>
      </contour>
    </TTGlyph>
    <TTGlyph name="gbreve" xMin="-14" yMin="-201" xMax="615" yMax="824">
      <component glyphName="g" x="0" y="0" flags="0x204"/>
      <component glyphName="breve" x="34" y="16" flags="0x4"/>
    </TTGlyph>
    <TTGlyph name="gbreve.sc" xMin="80" yMin="-16" xMax="679" yMax="866">
      <component glyphName="g.sc" x="0" y="0" flags="0x204"/>
      <component glyphName="breve" x="123" y="58" flags="0x4"/>
    </TTGlyph>
    <TTGlyph name="gdotaccent" xMin="-14" yMin="-201" xMax="615" yMax="748">
      <component glyphName="g" x="0" y="0" flags="0x204"/>
      <component glyphName="dotaccent" x="34" y="16" flags="0x4"/>
    </TTGlyph>
    <TTGlyph name="gdotaccent.sc" xMin="80" yMin="-16" xMax="679" yMax="790">
      <component glyphName="g.sc" x="0" y="0" flags="0x204"/>
      <component glyphName="dotaccent" x="122" y="58" flags="0x4"/>
    </TTGlyph>
</ttFont>
